<?xml version="1.0" standalone="no"?>
<!DOCTYPE svg PUBLIC "-//W3C//DTD SVG 1.1//EN" "http://www.w3.org/Graphics/SVG/1.1/DTD/svg11.dtd" >
<svg>
<metadata>
Created by FontForge 20090622 at Tue Nov  3 11:57:36 2015
 By deploy user
Copyright (C) 2001, 2008 Hoefler &#38; Frere-Jones. http://www.typography.com
</metadata>
<defs>
<font id="Gotham-ExtraLight" horiz-adv-x="400" >
  <font-face 
    font-family="Gotham Extra Light"
    font-weight="275"
    font-stretch="normal"
    units-per-em="1000"
    panose-1="0 0 0 0 0 0 0 0 0 0"
    ascent="800"
    descent="-200"
    x-height="504"
    cap-height="700"
    bbox="-205 -202 1125 975"
    underline-thickness="50"
    underline-position="-50"
    unicode-range="U+0020-U+FB04"
  />
<missing-glyph horiz-adv-x="500" 
d="M0 -200v1000h500v-1000h-500zM71 750l179 -390l179 390h-358zM50 -76l172 376l-172 376v-752zM450 676l-172 -376l172 -376v752zM250 240l-179 -390h358z" />
    <glyph glyph-name="f_f" unicode="ff" horiz-adv-x="680" 
d="M466 0v475h-77v29h77v63q0 87 42 129q39 37 100 37q37 0 73 -13v-31q-33 13 -73 13q-110 0 -110 -138v-60h181v-29h-181v-475h-32zM126 0v475h-77v29h77v63q0 88 43 129q37 37 99 37q39 0 73 -13v-31q-33 13 -73 13q-110 0 -110 -138v-60h181v-29h-181v-475h-32z" />
    <glyph glyph-name="fi" unicode="fi" horiz-adv-x="571" 
d="M126 0v475h-77v29h77v63q0 88 43 129q37 37 99 37q39 0 73 -13v-31q-33 13 -73 13q-110 0 -110 -138v-60h181v-29h-181v-475h-32zM439 0v504h32v-504h-32zM434 643v61h43v-61h-43z" />
    <glyph glyph-name="fl" unicode="fl" horiz-adv-x="571" 
d="M126 0v475h-77v29h77v63q0 88 43 129q37 37 99 37q39 0 73 -13v-31q-33 13 -73 13q-110 0 -110 -138v-60h181v-29h-181v-475h-32zM439 0v730h32v-730h-32z" />
    <glyph glyph-name="f_f_i" unicode="ffi" horiz-adv-x="911" 
d="M466 0v475h-77v29h77v63q0 87 42 129q39 37 100 37q37 0 73 -13v-31q-33 13 -73 13q-110 0 -110 -138v-60h181v-29h-181v-475h-32zM126 0v475h-77v29h77v63q0 88 43 129q37 37 99 37q39 0 73 -13v-31q-33 13 -73 13q-110 0 -110 -138v-60h181v-29h-181v-475h-32zM779 0
v504h32v-504h-32zM774 643v61h43v-61h-43z" />
    <glyph glyph-name="f_f_l" unicode="ffl" horiz-adv-x="911" 
d="M466 0v475h-77v29h77v63q0 87 42 129q39 37 100 37q37 0 73 -13v-31q-33 13 -73 13q-110 0 -110 -138v-60h181v-29h-181v-475h-32zM126 0v475h-77v29h77v63q0 88 43 129q37 37 99 37q39 0 73 -13v-31q-33 13 -73 13q-110 0 -110 -138v-60h181v-29h-181v-475h-32zM779 0
v730h32v-730h-32z" />
    <glyph glyph-name=".notdef" horiz-adv-x="500" 
d="M0 -200v1000h500v-1000h-500zM71 750l179 -390l179 390h-358zM50 -76l172 376l-172 376v-752zM450 676l-172 -376l172 -376v752zM250 240l-179 -390h358z" />
    <glyph glyph-name=".null" horiz-adv-x="0" 
 />
    <glyph glyph-name="nonmarkingreturn" horiz-adv-x="333" 
 />
    <glyph glyph-name="space" unicode=" " horiz-adv-x="288" 
 />
    <glyph glyph-name="exclam" unicode="!" horiz-adv-x="217" 
d="M100 183l-10 424v93h37v-93l-10 -424h-17zM85 0v65h48v-65h-48z" />
    <glyph glyph-name="quotedbl" unicode="&#x22;" horiz-adv-x="346" 
d="M212 446l35 254h41v-3l-57 -251h-19zM63 446l35 254h41v-3l-57 -251h-19z" />
    <glyph glyph-name="numbersign" unicode="#" horiz-adv-x="676" 
d="M586 226v-31h-131l-33 -195h-31l33 195h-227l-33 -195h-31l33 195h-117v31h123l43 254h-126v30h131l33 190h31l-32 -190h226l33 190h31l-33 -190h117v-30h-122l-43 -254h125zM247 480l-44 -254h226l44 254h-226z" />
    <glyph glyph-name="dollar" unicode="$" horiz-adv-x="626" 
d="M530 617l-21 -26q-82 71 -179 78v-302q115 -26 168.5 -68t53.5 -116q0 -80 -61 -131.5t-160 -51.5v-98h-31v99q-133 10 -236 107l22 25q94 -93 215 -103v312q-111 24 -161 65.5t-50 115.5t59 124.5t151 51.5v59h31v-60q111 -7 199 -81zM518 181q0 62 -42.5 95.5
t-145.5 57.5v-305h3q83 0 134 43t51 109zM124 525q0 -60 39.5 -93.5t137.5 -56.5v296q-79 -1 -128 -43t-49 -103z" />
    <glyph glyph-name="percent" unicode="%" horiz-adv-x="806" 
d="M209 349q-68 0 -111.5 52.5t-43.5 125.5v2q0 73 43.5 126t111.5 53t111.5 -53t43.5 -125v-2q0 -73 -43.5 -126t-111.5 -53zM208 679q-53 0 -86.5 -44t-33.5 -105v-2q0 -63 35 -107t87 -44q53 0 86.5 43.5t33.5 105.5v2q0 62 -34.5 106.5t-87.5 44.5zM391 356l252 344h34
l-264 -360l-250 -340h-34zM597 -8q-68 0 -111.5 52.5t-43.5 125.5v2q0 73 43.5 126t111.5 53t111.5 -53t43.5 -125v-2q0 -73 -43.5 -126t-111.5 -53zM598 21q53 0 86.5 43.5t33.5 105.5v2q0 62 -34.5 106.5t-87.5 44.5t-86.5 -44t-33.5 -105v-2q0 -63 35 -107t87 -44z" />
    <glyph glyph-name="ampersand" unicode="&#x26;" horiz-adv-x="678" 
d="M618 -12l-120 128q-104 -126 -237 -126q-91 0 -150.5 53.5t-59.5 132.5v2q0 75 49.5 124t138.5 87q-88 95 -88 170v2q0 61 46 106t120 45q68 0 112.5 -43t44.5 -102v-2q0 -59 -42.5 -102.5t-137.5 -82.5l203 -215q51 72 95 185l30 -11q-48 -121 -104 -197l125 -132z
M273 401q91 36 129.5 74t38.5 89v2q0 47 -35 82t-90 35q-58 0 -94.5 -36t-36.5 -84v-2q0 -36 19.5 -72.5t68.5 -87.5zM261 20q119 0 216 118l-217 229q-84 -34 -129.5 -78t-45.5 -110v-2q0 -65 49.5 -111t126.5 -46z" />
    <glyph glyph-name="quotesingle" unicode="'" horiz-adv-x="198" 
d="M63 446l35 254h41v-3l-57 -251h-19z" />
    <glyph glyph-name="parenleft" unicode="(" horiz-adv-x="406" 
d="M337 -140q-131 74 -199.5 183.5t-68.5 243.5t68.5 243.5t199.5 183.5l14 -22q-121 -71 -184.5 -174.5t-63.5 -230.5t63.5 -230.5t184.5 -174.5z" />
    <glyph glyph-name="parenright" unicode=")" horiz-adv-x="406" 
d="M69 -140l-14 22q121 71 184.5 174.5t63.5 230.5t-63.5 230.5t-184.5 174.5l14 22q131 -74 199.5 -183.5t68.5 -243.5t-68.5 -243.5t-199.5 -183.5z" />
    <glyph glyph-name="asterisk" unicode="*" horiz-adv-x="430" 
d="M200 406l7 135l-113 -75l-16 27l123 61l-123 61l16 27l113 -75l-7 135h30l-7 -135l113 75l16 -27l-123 -61l123 -61l-16 -27l-113 75l7 -135h-30z" />
    <glyph glyph-name="plus" unicode="+" horiz-adv-x="608" 
d="M288 113v224h-218v30h218v224h32v-224h218v-30h-218v-224h-32z" />
    <glyph glyph-name="comma" unicode="," horiz-adv-x="190" 
d="M64 -91l-9 17q41 20 38 74h-22v65h48v-57q0 -44 -12.5 -66t-42.5 -33z" />
    <glyph glyph-name="hyphen" unicode="-" horiz-adv-x="396" 
d="M70 280v35h256v-35h-256z" />
    <glyph glyph-name="period" unicode="." horiz-adv-x="190" 
d="M71 0v65h48v-65h-48z" />
    <glyph glyph-name="slash" unicode="/" horiz-adv-x="483" 
d="M-18 -128l471 926h33l-471 -926h-33z" />
    <glyph glyph-name="zero" unicode="0" horiz-adv-x="710" 
d="M355 -12q-131 0 -209.5 105t-78.5 256v2q0 150 79 255.5t209 105.5q131 0 209.5 -105t78.5 -256v-2q0 -150 -79 -255.5t-209 -105.5zM356 19q115 0 183.5 97t68.5 232v2q0 135 -69.5 233t-184.5 98t-183.5 -96.5t-68.5 -232.5v-2q0 -135 69.5 -233t184.5 -98z" />
    <glyph glyph-name="one" unicode="1" horiz-adv-x="323" 
d="M175 0v668l-132 -53l-11 27l150 63h26v-705h-33z" />
    <glyph glyph-name="two" unicode="2" horiz-adv-x="576" 
d="M43 0v23l295 279q79 74 108 124t29 99q0 65 -50 110t-124 45q-131 0 -213 -137l-27 17q88 150 242 150q90 0 148.5 -52.5t58.5 -129.5v-2q0 -58 -31.5 -111t-118.5 -135l-262 -248h421v-32h-476z" />
    <glyph glyph-name="three" unicode="3" horiz-adv-x="566" 
d="M281 -12q-159 0 -253 125l26 22q88 -116 228 -116q80 0 136 47t56 118v2q0 82 -66 123.5t-178 41.5h-29l-10 20l260 297h-386v32h432v-24l-257 -294q123 -2 195.5 -51t72.5 -144v-2q0 -85 -66.5 -141t-160.5 -56z" />
    <glyph glyph-name="four" unicode="4" horiz-adv-x="638" 
d="M450 0v178h-399l-11 24l413 503h29v-497h115v-30h-115v-178h-32zM84 208h366v447z" />
    <glyph glyph-name="five" unicode="5" horiz-adv-x="597" 
d="M297 -12q-68 0 -133 32t-108 80l25 24q43 -47 100 -76t118 -29q90 0 148 53.5t58 135.5v2q0 79 -58.5 129t-147.5 50t-174 -46l-24 14l20 343h381v-32h-350l-18 -287q79 38 169 38q102 0 169 -58t67 -150v-2q0 -97 -68 -159t-174 -62z" />
    <glyph glyph-name="six" unicode="6" horiz-adv-x="632" 
d="M329 -12q-107 0 -176 71q-85 83 -85 270v2q0 166 75.5 273.5t203.5 107.5q106 0 198 -81l-22 -26q-82 76 -179 76q-112 0 -177 -100t-65 -255v-59q22 73 84 118t142 45q102 0 172.5 -60.5t70.5 -153.5v-2q0 -94 -70 -160t-172 -66zM331 19q88 0 146.5 57.5t58.5 136.5v2
q0 80 -59.5 132.5t-149.5 52.5q-86 0 -146.5 -56t-60.5 -130v-2q0 -80 61.5 -136.5t149.5 -56.5z" />
    <glyph glyph-name="seven" unicode="7" horiz-adv-x="555" 
d="M145 0l334 668h-421v32h459v-23l-335 -677h-37z" />
    <glyph glyph-name="eight" unicode="8" horiz-adv-x="628" 
d="M314 -10q-115 0 -186.5 55t-71.5 137v2q0 63 48.5 111t123.5 66q-66 21 -105.5 63.5t-39.5 102.5v2q0 78 67.5 129.5t163.5 51.5t163.5 -51.5t67.5 -129.5v-2q0 -60 -39.5 -102.5t-105.5 -63.5q75 -19 123 -66.5t48 -110.5v-2q0 -82 -71.5 -137t-185.5 -55zM314 375
q83 0 139.5 42t56.5 110v2q0 64 -57 107t-140 43t-139.5 -42.5t-56.5 -106.5v-2q0 -67 57.5 -110t139.5 -43zM314 21q101 0 162 46t61 113v2q0 70 -65 116.5t-159 46.5t-158 -46t-64 -116v-2q0 -67 61.5 -113.5t161.5 -46.5z" />
    <glyph glyph-name="nine" unicode="9" horiz-adv-x="632" 
d="M287 19q111 0 177.5 99.5t66.5 251.5q0 35 -1 60q-21 -75 -83 -121t-143 -46q-105 0 -174 61.5t-69 155.5v2q0 96 70 163t173 67t176 -71q85 -85 85 -271v-2q0 -166 -77 -273t-202 -107q-112 0 -206 87l22 26q87 -82 185 -82zM306 294q86 0 146 56.5t60 132.5v2
q0 82 -61 139t-150 57q-87 0 -146 -58.5t-59 -139.5v-2q0 -82 59.5 -134.5t150.5 -52.5z" />
    <glyph glyph-name="colon" unicode=":" horiz-adv-x="197" 
d="M74 439v65h48v-65h-48zM74 0v65h48v-65h-48z" />
    <glyph glyph-name="semicolon" unicode=";" horiz-adv-x="197" 
d="M74 439v65h48v-65h-48zM67 -91l-9 17q41 20 38 74h-22v65h48v-57q0 -44 -12.5 -66t-42.5 -33z" />
    <glyph glyph-name="less" unicode="&#x3c;" horiz-adv-x="608" 
d="M521 104l-462 237v22l462 237v-35l-418 -213l418 -213v-35z" />
    <glyph glyph-name="equal" unicode="=" horiz-adv-x="608" 
d="M89 452v32h430v-32h-430zM89 221v32h430v-32h-430z" />
    <glyph glyph-name="greater" unicode="&#x3e;" horiz-adv-x="608" 
d="M87 104v35l418 213l-418 213v35l462 -237v-22z" />
    <glyph glyph-name="question" unicode="?" horiz-adv-x="513" 
d="M219 183l-10 159l4 4q97 5 155.5 49.5t58.5 119.5v2q0 69 -50 115.5t-130 46.5q-117 0 -194 -112l-25 19q84 123 220 123q95 0 154 -54.5t59 -135.5v-2q0 -86 -62 -137.5t-153 -61.5l-8 -135h-19zM205 0v65h48v-65h-48z" />
    <glyph glyph-name="at" unicode="@" horiz-adv-x="961" 
d="M493 -163q-185 0 -309 122t-124 308q0 181 123 313t302 132q175 0 296 -116t121 -275q0 -119 -53 -181t-119 -62q-53 0 -83 31t-35 79q-65 -110 -173 -110q-73 0 -121.5 46.5t-48.5 123.5q0 100 66.5 170t151.5 70q57 0 97.5 -30.5t53.5 -78.5l17 90l31 -5l-36 -199
q-7 -36 -7 -63q0 -46 22.5 -72.5t66.5 -26.5q56 0 100 55.5t44 162.5q0 147 -113.5 257t-278.5 110q-170 0 -284.5 -124.5t-114.5 -296.5q0 -176 116.5 -291t292.5 -115q131 0 239 67l12 -19q-110 -72 -252 -72zM442 109q65 0 119 52q64 64 64 151q0 62 -39.5 103.5
t-98.5 41.5q-68 0 -122 -54q-62 -60 -62 -153q0 -66 38.5 -103.5t100.5 -37.5z" />
    <glyph glyph-name="A" unicode="A" horiz-adv-x="776" 
d="M40 0l332 705h32l332 -705h-37l-95 204h-433l-96 -204h-35zM186 235h403l-202 430z" />
    <glyph glyph-name="B" unicode="B" horiz-adv-x="724" 
d="M104 0v700h288q122 0 183 -61q45 -45 45 -113v-2q0 -64 -36 -107t-93 -59q73 -13 120 -58t47 -113v-2q0 -87 -67 -136t-184 -49h-303zM586 521v2q0 67 -52 106.5t-143 39.5h-253v-300h261q82 0 134.5 39.5t52.5 112.5zM623 186q0 72 -58 112t-153 40h-274v-307h270
q101 0 158 41t57 112v2z" />
    <glyph glyph-name="C" unicode="C" horiz-adv-x="731" 
d="M417 -12q-147 0 -245.5 104.5t-98.5 255.5v2q0 150 99 256t247 106q90 0 150 -28t119 -83l-24 -25q-51 49 -108.5 77t-137.5 28q-132 0 -221 -96.5t-89 -233.5v-2q0 -137 89.5 -233.5t221.5 -96.5q141 0 249 112l24 -23q-118 -120 -275 -120z" />
    <glyph glyph-name="D" unicode="D" horiz-adv-x="777" 
d="M104 0v700h228q163 0 267.5 -100t104.5 -249v-2q0 -149 -104.5 -249t-267.5 -100h-228zM332 669h-194v-638h195q148 0 242 91t94 226v2q0 135 -94 227t-243 92z" />
    <glyph glyph-name="E" unicode="E" horiz-adv-x="665" 
d="M104 0v700h493v-31h-459v-301h415v-31h-415v-306h464v-31h-498z" />
    <glyph glyph-name="F" unicode="F" horiz-adv-x="637" 
d="M104 0v700h488v-31h-454v-310h410v-31h-410v-328h-34z" />
    <glyph glyph-name="G" unicode="G" horiz-adv-x="781" 
d="M421 -12q-160 0 -254 103.5t-94 256.5v2q0 147 96.5 254.5t249.5 107.5q78 0 135 -22.5t113 -68.5l-22 -26q-51 42 -103.5 64t-124.5 22q-135 0 -222 -98t-87 -232v-2q0 -141 85.5 -236t228.5 -95q132 0 239 90v215h-249v33h282v-261q-118 -107 -273 -107z" />
    <glyph glyph-name="H" unicode="H" horiz-adv-x="755" 
d="M104 0v700h34v-332h479v332h34v-700h-34v337h-479v-337h-34z" />
    <glyph glyph-name="I" unicode="I" horiz-adv-x="256" 
d="M111 0v700h34v-700h-34z" />
    <glyph glyph-name="J" unicode="J" horiz-adv-x="540" 
d="M238 -11q-70 0 -123 36.5t-82 100.5l29 16q56 -122 178 -122q76 0 124 54.5t48 157.5v468h34v-464q0 -124 -65 -191q-58 -56 -143 -56z" />
    <glyph glyph-name="K" unicode="K" horiz-adv-x="709" 
d="M104 0v700h34v-468l469 468h47l-305 -301l317 -399h-44l-297 376l-187 -185v-191h-34z" />
    <glyph glyph-name="L" unicode="L" horiz-adv-x="598" 
d="M104 0v700h34v-669h422v-31h-456z" />
    <glyph glyph-name="M" unicode="M" horiz-adv-x="863" 
d="M104 0v700h32l296 -426l295 426h32v-700h-34v641l-293 -420h-2l-293 420v-641h-33z" />
    <glyph glyph-name="N" unicode="N" horiz-adv-x="784" 
d="M104 0v700h31l512 -642v642h33v-700h-27l-516 647v-647h-33z" />
    <glyph glyph-name="O" unicode="O" horiz-adv-x="845" 
d="M422 -12q-154 0 -251.5 106.5t-97.5 254.5v2q0 148 98 254.5t252 106.5t251.5 -106.5t97.5 -254.5v-2q0 -148 -98 -254.5t-252 -106.5zM424 19q136 0 224.5 96.5t88.5 232.5v2q0 136 -89 233.5t-226 97.5t-225.5 -96.5t-88.5 -232.5v-2q0 -136 89.5 -233.5t226.5 -97.5z
" />
    <glyph glyph-name="P" unicode="P" horiz-adv-x="668" 
d="M103 0v700h250q123 0 194 -56.5t71 -155.5v-2q0 -103 -75 -160t-198 -57h-208v-269h-34zM137 301h209q110 0 174 49t64 135v2q0 86 -62.5 134t-171.5 48h-213v-368z" />
    <glyph glyph-name="Q" unicode="Q" horiz-adv-x="845" 
d="M778 12l-23 -26l-100 89q-97 -87 -233 -87q-154 0 -251.5 106.5t-97.5 254.5v2q0 148 98 254.5t252 106.5t251.5 -106.5t97.5 -254.5v-2q0 -147 -95 -251zM424 19q118 0 206 78l-147 127l23 26l147 -130q84 95 84 228v2q0 136 -89 233.5t-226 97.5t-225.5 -96.5
t-88.5 -232.5v-2q0 -136 89.5 -233.5t226.5 -97.5z" />
    <glyph glyph-name="R" unicode="R" horiz-adv-x="724" 
d="M104 0v700h289q131 0 200 -67q51 -53 51 -130v-2q0 -86 -60 -137.5t-160 -60.5l233 -303h-43l-228 299h-248v-299h-34zM138 330h246q106 0 166 46.5t60 122.5v2q0 79 -58 123.5t-161 44.5h-253v-339z" />
    <glyph glyph-name="S" unicode="S" horiz-adv-x="641" 
d="M338 -10q-158 0 -279 112l23 25q112 -106 258 -106q90 0 145 43.5t55 110.5v2q0 63 -46 99t-170 62q-128 25 -183 69t-55 120v2q0 76 64.5 128.5t162.5 52.5q134 0 238 -82l-21 -27q-98 78 -219 78q-84 0 -137.5 -43.5t-53.5 -103.5v-2q0 -63 46.5 -99t170.5 -62
q129 -26 183 -70t54 -119v-2q0 -82 -65 -135t-171 -53z" />
    <glyph glyph-name="T" unicode="T" horiz-adv-x="608" 
d="M287 0v669h-249v31h533v-31h-250v-669h-34z" />
    <glyph glyph-name="U" unicode="U" horiz-adv-x="755" 
d="M378 -11q-130 0 -207.5 81t-77.5 232v398h34v-396q0 -137 68 -210.5t184 -73.5t182.5 72t66.5 210v398h34v-395q0 -153 -77 -234.5t-207 -81.5z" />
    <glyph glyph-name="V" unicode="V" horiz-adv-x="736" 
d="M354 -5l-314 705h37l292 -662l292 662h35l-314 -705h-28z" />
    <glyph glyph-name="W" unicode="W" horiz-adv-x="1051" 
d="M288 -5l-242 705h37l220 -651l210 653h26l211 -654l220 652h35l-242 -705h-28l-210 643l-209 -643h-28z" />
    <glyph glyph-name="X" unicode="X" horiz-adv-x="692" 
d="M599 700h40l-272 -344l282 -356h-40l-263 334l-263 -334h-40l282 356l-272 344h40l253 -322z" />
    <glyph glyph-name="Y" unicode="Y" horiz-adv-x="681" 
d="M324 0v287l-298 413h42l274 -383l272 383h41l-297 -413v-287h-34z" />
    <glyph glyph-name="Z" unicode="Z" horiz-adv-x="682" 
d="M67 0v19l496 650h-479v31h527v-19l-496 -650h494v-31h-542z" />
    <glyph glyph-name="bracketleft" unicode="[" horiz-adv-x="418" 
d="M98 -130v830h267v-25h-235v-780h235v-25h-267z" />
    <glyph glyph-name="backslash" unicode="\" horiz-adv-x="483" 
d="M467 -128l-471 926h34l471 -926h-34z" />
    <glyph glyph-name="bracketright" unicode="]" horiz-adv-x="418" 
d="M53 -130v25h235v780h-235v25h267v-830h-267z" />
    <glyph glyph-name="asciicircum" unicode="^" horiz-adv-x="500" 
d="M81 494l157 209h24l157 -209h-31l-138 176l-139 -176h-30z" />
    <glyph glyph-name="underscore" unicode="_" horiz-adv-x="570" 
d="M-2 -153v29h574v-29h-574z" />
    <glyph glyph-name="grave" unicode="`" horiz-adv-x="500" 
d="M273 595l-101 102l39 19l87 -121h-25z" />
    <glyph glyph-name="a" unicode="a" horiz-adv-x="569" 
d="M242 -12q-78 0 -134.5 40.5t-56.5 113.5v2q0 77 62 119.5t161 42.5q94 0 180 -28v34q0 84 -47 127t-133 43q-80 0 -164 -42l-12 28q91 44 178 44q105 0 160 -55q50 -52 50 -143v-314h-32v105q-22 -48 -77 -82.5t-135 -34.5zM244 18q90 0 150.5 49.5t60.5 118.5v62
q-86 28 -182 28q-85 0 -136.5 -34.5t-51.5 -95.5v-2q0 -59 46 -92.5t113 -33.5z" />
    <glyph glyph-name="b" unicode="b" horiz-adv-x="657" 
d="M348 -12q-80 0 -138 41.5t-85 107.5v-137h-32v730h32v-365q28 67 86 109t137 42q104 0 176.5 -74.5t72.5 -188.5v-2q0 -113 -72.5 -188t-176.5 -75zM345 19q95 0 156.5 65t61.5 166v2q0 100 -62 166.5t-156 66.5q-93 0 -157.5 -67.5t-64.5 -164.5v-2q0 -97 65 -164.5
t157 -67.5z" />
    <glyph glyph-name="c" unicode="c" horiz-adv-x="565" 
d="M315 -12q-108 0 -182.5 77.5t-74.5 185.5v2q0 108 75 185.5t183 77.5q112 0 201 -93l-23 -23q-81 86 -179 86q-94 0 -158.5 -68t-64.5 -164v-2q0 -96 65.5 -165t159.5 -69q100 0 181 90l23 -20q-86 -100 -206 -100z" />
    <glyph glyph-name="d" unicode="d" horiz-adv-x="657" 
d="M309 -12q-104 0 -176.5 74.5t-72.5 188.5v2q0 113 72.5 188t176.5 75q80 0 138 -41.5t85 -107.5v363h32v-730h-32v139q-28 -67 -86 -109t-137 -42zM312 19q93 0 157.5 67.5t64.5 164.5v2q0 97 -65 164.5t-157 67.5q-95 0 -156.5 -65t-61.5 -166v-2q0 -100 62 -166.5
t156 -66.5z" />
    <glyph glyph-name="e" unicode="e" horiz-adv-x="583" 
d="M308 -12q-105 0 -177.5 73t-72.5 191v2q0 112 68.5 187t172.5 75q108 0 169.5 -78t61.5 -187v-11h-437q4 -100 66.5 -161t149.5 -61q109 0 181 93l24 -19q-80 -104 -206 -104zM93 269h402q-4 89 -56.5 153t-141.5 64q-85 0 -142 -61.5t-62 -155.5z" />
    <glyph glyph-name="f" unicode="f" horiz-adv-x="340" 
d="M126 0v475h-77v29h77v63q0 88 43 129q37 37 99 37q39 0 73 -13v-31q-33 13 -73 13q-110 0 -110 -138v-60h181v-29h-181v-475h-32z" />
    <glyph glyph-name="g" unicode="g" horiz-adv-x="652" 
d="M313 -163q-127 0 -230 78l19 26q96 -73 211 -73q98 0 155.5 55t57.5 158v91q-31 -60 -88.5 -97.5t-131.5 -37.5q-100 0 -173 69t-73 169v2q0 101 73 170t173 69q74 0 131.5 -37t88.5 -96v121h33v-427q0 -109 -65 -174q-66 -66 -181 -66zM309 68q89 0 154.5 60t65.5 147v2
q0 87 -65.5 147.5t-154.5 60.5t-151.5 -59.5t-62.5 -147.5v-2q0 -87 63 -147.5t151 -60.5z" />
    <glyph glyph-name="h" unicode="h" horiz-adv-x="610" 
d="M93 0v730h32v-346q20 53 70 92.5t124 39.5q98 0 153 -60.5t55 -160.5v-295h-32v290q0 90 -47 143t-133 53q-80 0 -135 -58t-55 -144v-284h-32z" />
    <glyph glyph-name="i" unicode="i" horiz-adv-x="231" 
d="M94 643v61h43v-61h-43zM99 0v504h33v-504h-33z" />
    <glyph glyph-name="j" unicode="j" horiz-adv-x="232" 
d="M95 643v61h43v-61h-43zM30 -165q-21 0 -38 4v29q15 -4 37 -4q32 0 52 22.5t20 64.5v553h32v-551q0 -58 -27.5 -88t-75.5 -30z" />
    <glyph glyph-name="k" unicode="k" horiz-adv-x="550" 
d="M93 0v730h32v-552l335 326h43l-232 -223l244 -281h-40l-226 259l-124 -119v-140h-32z" />
    <glyph glyph-name="l" unicode="l" horiz-adv-x="231" 
d="M99 0v730h33v-730h-33z" />
    <glyph glyph-name="m" unicode="m" horiz-adv-x="934" 
d="M93 0v504h32v-113q19 50 64.5 87.5t107.5 37.5q71 0 115.5 -37t62.5 -96q21 55 69 94t112 39q87 0 139 -57t52 -158v-301h-32v298q0 90 -43.5 139t-117.5 49q-67 0 -117.5 -54.5t-50.5 -137.5v-294h-32v299q0 88 -43.5 137.5t-116.5 49.5q-67 0 -118 -56.5t-51 -136.5
v-293h-32z" />
    <glyph glyph-name="n" unicode="n" horiz-adv-x="610" 
d="M93 0v504h32v-120q20 53 70 92.5t124 39.5q98 0 153 -60.5t55 -160.5v-295h-32v290q0 90 -47 143t-133 53q-80 0 -135 -58t-55 -144v-284h-32z" />
    <glyph glyph-name="o" unicode="o" horiz-adv-x="636" 
d="M318 -12q-113 0 -187 77t-74 185v2q0 108 74 186t188 78q113 0 186.5 -77t73.5 -185v-2q0 -109 -73.5 -186.5t-187.5 -77.5zM319 18q98 0 162 68t64 165v2q0 96 -65.5 164.5t-162.5 68.5q-98 0 -161.5 -68t-63.5 -165v-2q0 -97 65 -165t162 -68z" />
    <glyph glyph-name="p" unicode="p" horiz-adv-x="657" 
d="M93 -160v664h32v-139q28 67 86 109t137 42q104 0 176.5 -74.5t72.5 -188.5v-2q0 -113 -72.5 -188t-176.5 -75q-80 0 -138 41.5t-85 107.5v-297h-32zM345 19q95 0 156.5 65t61.5 166v2q0 100 -62 166.5t-156 66.5q-93 0 -157.5 -67.5t-64.5 -164.5v-2q0 -97 65 -164.5
t157 -67.5z" />
    <glyph glyph-name="q" unicode="q" horiz-adv-x="657" 
d="M532 -160v299q-28 -67 -86 -109t-137 -42q-104 0 -176.5 74.5t-72.5 188.5v2q0 113 72.5 188t176.5 75q80 0 138 -41.5t85 -107.5v137h32v-664h-32zM312 19q93 0 157.5 67.5t64.5 164.5v2q0 97 -65 164.5t-157 67.5q-95 0 -156.5 -65t-61.5 -166v-2q0 -100 62 -166.5
t156 -66.5z" />
    <glyph glyph-name="r" unicode="r" horiz-adv-x="361" 
d="M93 0v504h32v-154q24 70 81 118t133 46v-33h-5q-89 0 -149 -73t-60 -169v-239h-32z" />
    <glyph glyph-name="s" unicode="s" horiz-adv-x="493" 
d="M251 -9q-54 0 -109 20t-96 54l19 25q88 -69 188 -69q61 0 102.5 29.5t41.5 75.5v2q0 21 -9.5 37.5t-21.5 27t-35.5 21t-40 15.5t-46.5 13q-35 10 -55 16.5t-46 19t-40 25t-24 32.5t-10 44v2q0 57 48 94.5t124 37.5q95 0 177 -56l-18 -27q-75 53 -160 53q-61 0 -99.5 -28
t-38.5 -71v-2q0 -18 8.5 -33.5t21 -25.5t35 -20t40.5 -16t48 -14q86 -23 130.5 -53t44.5 -89v-2q0 -61 -51 -99.5t-128 -38.5z" />
    <glyph glyph-name="t" unicode="t" horiz-adv-x="384" 
d="M254 -9q-62 0 -98 35.5t-36 102.5v346h-77v29h77v169h32v-169h183v-29h-183v-343q0 -55 27.5 -83t77.5 -28q37 0 76 18v-31q-35 -17 -79 -17z" />
    <glyph glyph-name="u" unicode="u" horiz-adv-x="610" 
d="M291 -12q-98 0 -153 60.5t-55 160.5v295h32v-290q0 -90 47 -143t133 -53q80 0 135 58t55 144v284h32v-504h-32v120q-20 -53 -70 -92.5t-124 -39.5z" />
    <glyph glyph-name="v" unicode="v" horiz-adv-x="569" 
d="M272 -4l-231 508h37l207 -469l208 469h35l-230 -508h-26z" />
    <glyph glyph-name="w" unicode="w" horiz-adv-x="827" 
d="M228 -4l-180 508h36l158 -462l159 465h26l159 -465l159 462h33l-179 -508h-27l-158 460l-159 -460h-27z" />
    <glyph glyph-name="x" unicode="x" horiz-adv-x="546" 
d="M86 504l187 -226l189 226h38l-207 -247l215 -257h-40l-196 235l-196 -235h-38l215 256l-207 248h40z" />
    <glyph glyph-name="y" unicode="y" horiz-adv-x="577" 
d="M299 35l203 469h34l-227 -517q-38 -87 -74.5 -118.5t-89.5 -31.5q-49 0 -97 25l13 27q41 -22 85 -22q43 0 72.5 28t64.5 106l-242 503h36z" />
    <glyph glyph-name="z" unicode="z" horiz-adv-x="514" 
d="M45 0v18l376 457h-363v29h410v-18l-375 -457h377v-29h-425z" />
    <glyph glyph-name="braceleft" unicode="{" horiz-adv-x="456" 
d="M389 -141q-65 12 -105 30.5t-59 46.5t-24.5 55.5t-5.5 72.5v79q0 130 -123 130h-22v28h22q123 0 123 130v79q0 45 5.5 72.5t24.5 55.5t59 46.5t105 30.5l5 -24q-57 -13 -91 -28.5t-50 -40.5t-20.5 -48.5t-4.5 -65.5v-78q0 -125 -108 -143q108 -21 108 -143v-78
q0 -42 4.5 -65.5t20.5 -48.5t50 -40.5t91 -28.5z" />
    <glyph glyph-name="bar" unicode="|" horiz-adv-x="269" 
d="M120 -128v926h29v-926h-29z" />
    <glyph glyph-name="braceright" unicode="}" horiz-adv-x="456" 
d="M67 -141l-5 24q57 13 91 28.5t50 40.5t20.5 48.5t4.5 65.5v78q0 125 108 143q-108 21 -108 143v78q0 42 -4.5 65.5t-20.5 48.5t-50 40.5t-91 28.5l5 24q65 -12 105 -30.5t59 -46.5t24.5 -55.5t5.5 -72.5v-79q0 -130 123 -130h22v-28h-22q-123 0 -123 -130v-79
q0 -45 -5.5 -72.5t-24.5 -55.5t-59 -46.5t-105 -30.5z" />
    <glyph glyph-name="asciitilde" unicode="~" horiz-adv-x="448" 
d="M288 255q-21 0 -69 27q-44 24 -60 24q-19 0 -31 -12.5t-23 -44.5l-22 5q20 85 77 85q19 0 69 -26q42 -25 60 -25q19 0 31 12.5t23 45.5l22 -6q-20 -85 -77 -85z" />
    <glyph glyph-name="uni00A0" unicode="&#xa0;" horiz-adv-x="288" 
 />
    <glyph glyph-name="exclamdown" unicode="&#xa1;" horiz-adv-x="217" 
d="M85 635v65h48v-65h-48zM90 0v93l10 424h17l10 -424v-93h-37z" />
    <glyph glyph-name="cent" unicode="&#xa2;" horiz-adv-x="569" 
d="M396 706l-18 -93q77 -15 147 -87l-23 -23q-63 65 -131 80l-90 -458q17 -4 41 -4q105 0 184 89l22 -19q-86 -100 -208 -100q-25 0 -44 4l-20 -101h-31l21 108q-80 25 -130 95t-50 157v1q0 108 75 186t182 78q4 0 12 -0.5t11 -0.5l18 88h32zM99 356q0 -78 42.5 -139.5
t111.5 -84.5l88 456q-6 1 -19 1q-93 0 -158 -68.5t-65 -164.5z" />
    <glyph glyph-name="sterling" unicode="&#xa3;" horiz-adv-x="617" 
d="M67 0v18l89 13v282h-89v32h89v117q0 124 66 190q58 58 148 58q122 0 198 -109l-26 -20q-70 98 -173 98q-75 0 -123 -48q-56 -54 -56 -167v-119h300v-32h-300v-282h374v-31h-497z" />
    <glyph glyph-name="yen" unicode="&#xa5;" horiz-adv-x="645" 
d="M97 281v30h195l-266 389h42l256 -382l255 382h40l-267 -389h195v-30h-208v-129h208v-30h-208v-122h-33v122h-209v30h209v129h-209z" />
    <glyph glyph-name="section" unicode="&#xa7;" horiz-adv-x="632" 
d="M388 225q112 -36 112 -112v-2q0 -53 -48.5 -87t-130.5 -34q-61 0 -118.5 22.5t-93.5 56.5l23 24q33 -30 85 -50.5t106 -20.5q67 0 104.5 25t37.5 64v2q0 42 -47 68.5t-152 48.5q-102 21 -149 52.5t-47 79.5v2q0 47 47 79t128 32q-113 37 -113 112v2q0 53 49 87t131 34
q61 0 118 -22.5t94 -56.5l-24 -24q-33 30 -84.5 50.5t-105.5 20.5q-67 0 -104.5 -25t-37.5 -64v-2q0 -42 47 -68.5t152 -48.5q102 -21 149 -52.5t47 -79.5v-2q0 -47 -47 -79t-128 -32zM386 247q61 0 102 25t41 61v2q0 35 -38.5 60t-128.5 44q-60 14 -115 14q-61 0 -102 -25
t-41 -61v-2q0 -35 38.5 -60t128.5 -44q59 -14 115 -14z" />
    <glyph glyph-name="dieresis" unicode="&#xa8;" horiz-adv-x="500" 
d="M297 606v62h49v-62h-49zM154 606v62h49v-62h-49z" />
    <glyph glyph-name="copyright" unicode="&#xa9;" horiz-adv-x="830" 
d="M415 -12q-151 0 -256.5 105.5t-105.5 255.5v2q0 149 106 255t256 106q151 0 256.5 -105.5t105.5 -255.5v-2q0 -149 -106 -255t-256 -106zM415 9q142 0 240.5 100t98.5 240v2q0 141 -98.5 240.5t-240.5 99.5t-240.5 -100t-98.5 -240v-2q0 -141 98.5 -240.5t240.5 -99.5z
M421 165q-77 0 -129.5 55.5t-52.5 132.5v2q0 78 52.5 134t130.5 56q79 0 141 -60l-21 -21q-54 54 -121 54q-65 0 -108.5 -47.5t-43.5 -114.5q-2 0 0 -2q0 -66 44.5 -114t108.5 -48q69 0 123 56l20 -19q-62 -64 -144 -64z" />
    <glyph glyph-name="ordfeminine" unicode="&#xaa;" horiz-adv-x="408" 
d="M183 413q-43 0 -75 23t-32 63v2q0 43 34 66.5t90 23.5q50 0 92 -13v13q0 43 -24.5 65t-68.5 22q-40 0 -88 -24l-10 24q51 24 100 24q58 0 90 -31q27 -27 27 -79v-173h-26v50q-35 -56 -109 -56zM184 437q46 0 77 25t31 61v32q-46 13 -94 13q-42 0 -68 -17.5t-26 -47.5v-2
q0 -29 23.5 -46.5t56.5 -17.5zM74 308v25h249v-25h-249z" />
    <glyph glyph-name="guillemotleft" unicode="&#xab;" horiz-adv-x="483" 
d="M400 45l-170 207v6l170 207l22 -16l-153 -194l153 -194zM216 45l-169 207v6l169 207l22 -16l-153 -194l153 -194z" />
    <glyph glyph-name="registered" unicode="&#xae;" horiz-adv-x="416" 
d="M208 360q-73 0 -123.5 51t-50.5 123v1q0 72 51 123.5t123 51.5q73 0 123.5 -51t50.5 -123v-1q0 -72 -51 -123.5t-123 -51.5zM208 377q65 0 110.5 46.5t45.5 111.5q0 66 -45 112t-111 46q-65 0 -110.5 -46.5t-45.5 -111.5q0 -66 45 -112t111 -46zM144 450v175h76
q28 0 46.5 -13.5t18.5 -38.5q0 -40 -45 -53l51 -70h-28l-48 67h-49v-67h-22zM166 536h51q21 0 33 9.5t12 25.5q0 34 -44 34h-52v-69z" />
    <glyph glyph-name="macron" unicode="&#xaf;" horiz-adv-x="500" 
d="M113 621v30h274v-30h-274z" />
    <glyph glyph-name="degree" unicode="&#xb0;" horiz-adv-x="438" 
d="M219 420q-59 0 -102.5 42t-43.5 100v2q0 58 43.5 100t102.5 42t102.5 -42t43.5 -100v-2q0 -58 -43.5 -100t-102.5 -42zM219 449q47 0 80.5 33.5t33.5 79.5v2q0 46 -33.5 80t-80.5 34t-80.5 -34t-33.5 -80v-2q0 -46 33.5 -79.5t80.5 -33.5z" />
    <glyph glyph-name="plusminus" unicode="&#xb1;" horiz-adv-x="608" 
d="M534 367h-214v-209h-32v209h-214v30h214v209h32v-209h214v-30zM534 0h-460v30h460v-30z" />
    <glyph glyph-name="two.sup" unicode="&#xb2;" 
d="M61 426v24l158 138q45 39 63.5 66t18.5 59q0 36 -26.5 60t-66.5 24q-68 0 -118 -79l-22 13q59 91 142 91q50 0 84.5 -31t34.5 -76q0 -41 -20.5 -70t-71.5 -74l-138 -119h235v-26h-273z" />
    <glyph glyph-name="three.sup" unicode="&#xb3;" 
d="M197 416q-86 0 -142 69l21 18q50 -62 122 -62q42 0 71.5 25t29.5 64q0 41 -34 64t-91 23h-25l-6 17l144 152h-214v26h250v-24l-140 -147q67 -2 106 -30.5t39 -79.5q0 -49 -38.5 -82t-92.5 -33z" />
    <glyph glyph-name="acute" unicode="&#xb4;" horiz-adv-x="500" 
d="M202 595l87 121l39 -19l-101 -102h-25z" />
    <glyph glyph-name="paragraph" unicode="&#xb6;" horiz-adv-x="467" 
d="M332 0v277h-9q-117 0 -194 56.5t-77 154.5v2q0 97 71.5 153.5t184.5 56.5h59v-700h-35z" />
    <glyph glyph-name="periodcentered" unicode="&#xb7;" horiz-adv-x="190" 
d="M71 262v65h48v-65h-48z" />
    <glyph glyph-name="cedilla" unicode="&#xb8;" horiz-adv-x="500" 
d="M205 -144l-35 17l87 132h26z" />
    <glyph glyph-name="one.sup" unicode="&#xb9;" horiz-adv-x="325" 
d="M200 426h-28v363l-98 -35l-7 24l110 41h23v-393z" />
    <glyph glyph-name="ordmasculine" unicode="&#xba;" horiz-adv-x="409" 
d="M204 413q-62 0 -102.5 42.5t-40.5 101.5v2q0 61 40.5 103.5t103.5 42.5q62 0 102.5 -42t40.5 -102v-2q0 -60 -41 -103t-103 -43zM64 308v25h281v-25h-281zM206 439q49 0 81 34.5t32 83.5v2q0 50 -33.5 85t-81.5 35q-49 0 -81.5 -34.5t-32.5 -83.5v-2q0 -50 33 -85t83 -35
z" />
    <glyph glyph-name="guillemotright" unicode="&#xbb;" horiz-adv-x="483" 
d="M267 45l-22 16l153 194l-153 194l22 16l169 -207v-6zM83 45l-22 16l153 194l-153 194l22 16l170 -207v-6z" />
    <glyph glyph-name="onequarter" unicode="&#xbc;" horiz-adv-x="825" 
d="M715 94v-96h-26v96h-200l-8 22l202 276h32v-274h60v-24h-60zM689 118v240l-176 -240h176zM145 0l245 355l232 345h33l-245 -355l-232 -345h-33zM195 314h-28v363l-98 -35l-7 24l110 41h23v-393z" />
    <glyph glyph-name="onehalf" unicode="&#xbd;" horiz-adv-x="825" 
d="M496 0v24l158 138q45 39 63.5 66t18.5 59q0 36 -26.5 60t-66.5 24q-68 0 -118 -79l-22 13q59 91 142 91q50 0 84.5 -31t34.5 -76q0 -41 -20.5 -70t-71.5 -74l-138 -119h235v-26h-273zM135 0l245 355l232 345h33l-245 -355l-232 -345h-33zM195 314h-28v363l-98 -35l-7 24
l110 41h23v-393z" />
    <glyph glyph-name="threequarters" unicode="&#xbe;" horiz-adv-x="900" 
d="M790 94v-96h-26v96h-200l-8 22l202 276h32v-274h60v-24h-60zM197 304q-86 0 -142 69l21 18q50 -62 122 -62q42 0 71.5 25t29.5 64q0 41 -34 64t-91 23h-25l-6 17l144 152h-214v26h250v-24l-140 -147q67 -2 106 -30.5t39 -79.5q0 -49 -38.5 -82t-92.5 -33zM764 118v240
l-176 -240h176zM215 0l245 355l232 345h33l-245 -355l-232 -345h-33z" />
    <glyph glyph-name="questiondown" unicode="&#xbf;" horiz-adv-x="513" 
d="M260 635v65h48v-65h-48zM265 -9q-95 0 -154 54.5t-59 135.5v2q0 86 62 137.5t153 61.5l8 135h19l10 -159l-4 -4q-97 -5 -155.5 -49.5t-58.5 -119.5v-2q0 -69 50 -115.5t130 -46.5q117 0 194 112l25 -19q-84 -123 -220 -123z" />
    <glyph glyph-name="Agrave" unicode="&#xc0;" horiz-adv-x="776" 
d="M40 0l332 705h32l332 -705h-37l-95 204h-433l-96 -204h-35zM186 235h403l-202 430zM404 772h-29l-105 88l37 19z" />
    <glyph glyph-name="Aacute" unicode="&#xc1;" horiz-adv-x="776" 
d="M40 0l332 705h32l332 -705h-37l-95 204h-433l-96 -204h-35zM186 235h403l-202 430zM371 772l97 107l37 -19l-105 -88h-29z" />
    <glyph glyph-name="Acircumflex" unicode="&#xc2;" horiz-adv-x="776" 
d="M40 0l332 705h32l332 -705h-37l-95 204h-433l-96 -204h-35zM186 235h403l-202 430zM268 769l104 101h30l104 -101h-34l-85 69l-86 -69h-33z" />
    <glyph glyph-name="Atilde" unicode="&#xc3;" horiz-adv-x="776" 
d="M40 0l332 705h32l332 -705h-37l-95 204h-433l-96 -204h-35zM186 235h403l-202 430zM454 779q-22 0 -70 25q-42 21 -58 21q-18 0 -30.5 -12t-23.5 -41l-23 6q21 79 76 79q21 0 71 -25q40 -21 58 -21t30.5 12t23.5 41l22 -6q-19 -79 -76 -79z" />
    <glyph glyph-name="Adieresis" unicode="&#xc4;" horiz-adv-x="776" 
d="M40 0l332 705h32l332 -705h-37l-95 204h-433l-96 -204h-35zM186 235h403l-202 430zM439 783v61h52v-61h-52zM285 783v61h52v-61h-52z" />
    <glyph glyph-name="Aring" unicode="&#xc5;" horiz-adv-x="776" 
d="M40 0l317 673q-32 8 -52 32t-20 55q0 39 30 65t73 26t73 -26t30 -65q0 -31 -20 -55t-52 -32l317 -673h-37l-95 204h-433l-96 -204h-35zM186 235h403l-202 430zM388 692q32 0 54 19t22 49t-22 49.5t-54 19.5t-54.5 -19.5t-22.5 -49.5t22.5 -49t54.5 -19z" />
    <glyph glyph-name="AE" unicode="&#xc6;" horiz-adv-x="1026" 
d="M8 0l439 700h511v-31h-443v-301h400v-31h-400v-306h448v-31h-482v204h-309l-127 -204h-37zM191 235h290v434h-18z" />
    <glyph glyph-name="Ccedilla" unicode="&#xc7;" horiz-adv-x="731" 
d="M357 -144l-35 17l76 116q-141 7 -233 110t-92 249v2q0 150 99 256t247 106q90 0 150 -28t119 -83l-24 -25q-51 49 -108.5 77t-137.5 28q-132 0 -221 -96.5t-89 -233.5v-2q0 -137 89.5 -233.5t221.5 -96.5q141 0 249 112l24 -23q-114 -116 -266 -120z" />
    <glyph glyph-name="Egrave" unicode="&#xc8;" horiz-adv-x="665" 
d="M369 765h-29l-105 88l37 19zM104 0v700h493v-31h-459v-301h415v-31h-415v-306h464v-31h-498z" />
    <glyph glyph-name="Eacute" unicode="&#xc9;" horiz-adv-x="665" 
d="M336 765l97 107l37 -19l-105 -88h-29zM104 0v700h493v-31h-459v-301h415v-31h-415v-306h464v-31h-498z" />
    <glyph glyph-name="Ecircumflex" unicode="&#xca;" horiz-adv-x="665" 
d="M104 0v700h493v-31h-459v-301h415v-31h-415v-306h464v-31h-498zM233 765l104 101h30l104 -101h-34l-85 69l-86 -69h-33z" />
    <glyph glyph-name="Edieresis" unicode="&#xcb;" horiz-adv-x="665" 
d="M404 776v61h52v-61h-52zM250 776v61h52v-61h-52zM104 0v700h493v-31h-459v-301h415v-31h-415v-306h464v-31h-498z" />
    <glyph glyph-name="Igrave" unicode="&#xcc;" horiz-adv-x="256" 
d="M111 0v700h34v-700h-34zM145 765h-29l-105 88l37 19z" />
    <glyph glyph-name="Iacute" unicode="&#xcd;" horiz-adv-x="256" 
d="M111 0v700h34v-700h-34zM112 765l97 107l37 -19l-105 -88h-29z" />
    <glyph glyph-name="Icircumflex" unicode="&#xce;" horiz-adv-x="256" 
d="M111 0v700h34v-700h-34zM9 765l104 101h30l104 -101h-34l-85 69l-86 -69h-33z" />
    <glyph glyph-name="Idieresis" unicode="&#xcf;" horiz-adv-x="256" 
d="M111 0v700h34v-700h-34zM180 776v61h52v-61h-52zM26 776v61h52v-61h-52z" />
    <glyph glyph-name="Eth" unicode="&#xd0;" horiz-adv-x="807" 
d="M134 0v336h-75v32h75v332h228q163 0 267.5 -100t104.5 -249v-2q0 -149 -104.5 -249t-267.5 -100h-228zM412 336h-244v-305h195q148 0 242 91t94 226v2q0 135 -94 227t-243 92h-194v-301h244v-32z" />
    <glyph glyph-name="Ntilde" unicode="&#xd1;" horiz-adv-x="784" 
d="M463 767q-22 0 -70 25q-42 21 -58 21q-18 0 -30.5 -12t-23.5 -41l-23 6q21 79 76 79q21 0 71 -25q40 -21 58 -21t30.5 12t23.5 41l22 -6q-19 -79 -76 -79zM104 0v700h31l512 -642v642h33v-700h-27l-516 647v-647h-33z" />
    <glyph glyph-name="Ograve" unicode="&#xd2;" horiz-adv-x="845" 
d="M439 772h-29l-105 88l37 19zM422 -12q-154 0 -251.5 106.5t-97.5 254.5v2q0 148 98 254.5t252 106.5t251.5 -106.5t97.5 -254.5v-2q0 -148 -98 -254.5t-252 -106.5zM424 19q136 0 224.5 96.5t88.5 232.5v2q0 136 -89 233.5t-226 97.5t-225.5 -96.5t-88.5 -232.5v-2
q0 -136 89.5 -233.5t226.5 -97.5z" />
    <glyph glyph-name="Oacute" unicode="&#xd3;" horiz-adv-x="845" 
d="M406 772l97 107l37 -19l-105 -88h-29zM422 -12q-154 0 -251.5 106.5t-97.5 254.5v2q0 148 98 254.5t252 106.5t251.5 -106.5t97.5 -254.5v-2q0 -148 -98 -254.5t-252 -106.5zM424 19q136 0 224.5 96.5t88.5 232.5v2q0 136 -89 233.5t-226 97.5t-225.5 -96.5t-88.5 -232.5
v-2q0 -136 89.5 -233.5t226.5 -97.5z" />
    <glyph glyph-name="Ocircumflex" unicode="&#xd4;" horiz-adv-x="845" 
d="M422 -12q-154 0 -251.5 106.5t-97.5 254.5v2q0 148 98 254.5t252 106.5t251.5 -106.5t97.5 -254.5v-2q0 -148 -98 -254.5t-252 -106.5zM424 19q136 0 224.5 96.5t88.5 232.5v2q0 136 -89 233.5t-226 97.5t-225.5 -96.5t-88.5 -232.5v-2q0 -136 89.5 -233.5t226.5 -97.5z
M303 772l104 101h30l104 -101h-34l-85 69l-86 -69h-33z" />
    <glyph glyph-name="Otilde" unicode="&#xd5;" horiz-adv-x="845" 
d="M489 779q-22 0 -70 25q-42 21 -58 21q-18 0 -30.5 -12t-23.5 -41l-23 6q21 79 76 79q21 0 71 -25q40 -21 58 -21t30.5 12t23.5 41l22 -6q-19 -79 -76 -79zM422 -12q-154 0 -251.5 106.5t-97.5 254.5v2q0 148 98 254.5t252 106.5t251.5 -106.5t97.5 -254.5v-2
q0 -148 -98 -254.5t-252 -106.5zM424 19q136 0 224.5 96.5t88.5 232.5v2q0 136 -89 233.5t-226 97.5t-225.5 -96.5t-88.5 -232.5v-2q0 -136 89.5 -233.5t226.5 -97.5z" />
    <glyph glyph-name="Odieresis" unicode="&#xd6;" horiz-adv-x="845" 
d="M474 783v61h52v-61h-52zM320 783v61h52v-61h-52zM422 -12q-154 0 -251.5 106.5t-97.5 254.5v2q0 148 98 254.5t252 106.5t251.5 -106.5t97.5 -254.5v-2q0 -148 -98 -254.5t-252 -106.5zM424 19q136 0 224.5 96.5t88.5 232.5v2q0 136 -89 233.5t-226 97.5t-225.5 -96.5
t-88.5 -232.5v-2q0 -136 89.5 -233.5t226.5 -97.5z" />
    <glyph glyph-name="multiply" unicode="&#xd7;" horiz-adv-x="608" 
d="M491 142l-188 189l-188 -189l-21 21l189 188l-189 188l23 23l188 -189l188 189l21 -21l-189 -188l189 -188z" />
    <glyph glyph-name="Oslash" unicode="&#xd8;" horiz-adv-x="845" 
d="M733 705h40l-96 -103q95 -103 95 -251v-2q0 -148 -98 -254.5t-252 -106.5q-138 0 -234 88l-76 -81h-40l95 102q-94 105 -94 252v2q0 148 98 254.5t252 106.5q139 0 234 -89zM107 351q0 -136 83 -230l445 478q-88 83 -213 83q-138 0 -226.5 -96.5t-88.5 -233.5v-1zM424 18
q137 0 225.5 96.5t88.5 233.5v1q0 136 -83 230l-446 -478q88 -83 215 -83z" />
    <glyph glyph-name="Ugrave" unicode="&#xd9;" horiz-adv-x="755" 
d="M394 760h-29l-105 88l37 19zM378 -11q-130 0 -207.5 81t-77.5 232v398h34v-396q0 -137 68 -210.5t184 -73.5t182.5 72t66.5 210v398h34v-395q0 -153 -77 -234.5t-207 -81.5z" />
    <glyph glyph-name="Uacute" unicode="&#xda;" horiz-adv-x="755" 
d="M361 760l97 107l37 -19l-105 -88h-29zM378 -11q-130 0 -207.5 81t-77.5 232v398h34v-396q0 -137 68 -210.5t184 -73.5t182.5 72t66.5 210v398h34v-395q0 -153 -77 -234.5t-207 -81.5z" />
    <glyph glyph-name="Ucircumflex" unicode="&#xdb;" horiz-adv-x="755" 
d="M378 -11q-130 0 -207.5 81t-77.5 232v398h34v-396q0 -137 68 -210.5t184 -73.5t182.5 72t66.5 210v398h34v-395q0 -153 -77 -234.5t-207 -81.5zM258 760l104 101h30l104 -101h-34l-85 69l-86 -69h-33z" />
    <glyph glyph-name="Udieresis" unicode="&#xdc;" horiz-adv-x="755" 
d="M429 771v61h52v-61h-52zM275 771v61h52v-61h-52zM378 -11q-130 0 -207.5 81t-77.5 232v398h34v-396q0 -137 68 -210.5t184 -73.5t182.5 72t66.5 210v398h34v-395q0 -153 -77 -234.5t-207 -81.5z" />
    <glyph glyph-name="Yacute" unicode="&#xdd;" horiz-adv-x="681" 
d="M324 0v287l-298 413h42l274 -383l272 383h41l-297 -413v-287h-34zM323 760l97 107l37 -19l-105 -88h-29z" />
    <glyph glyph-name="Thorn" unicode="&#xde;" horiz-adv-x="670" 
d="M103 0v700h34v-132h216q123 0 194 -56t71 -155v-2q0 -103 -75 -160.5t-198 -57.5h-208v-137h-34zM137 168h209q110 0 174 49.5t64 135.5v2q0 86 -62.5 134t-171.5 48h-213v-369z" />
    <glyph glyph-name="germandbls" unicode="&#xdf;" horiz-adv-x="591" 
d="M273 -3v30q102 2 163 44.5t61 118.5v2q0 71 -59.5 111.5t-164.5 48.5v28q81 23 130 67.5t49 112.5v2q0 60 -44.5 102t-111.5 42q-80 0 -125.5 -55.5t-45.5 -147.5v-503h-32v504q0 105 54 168.5t150 63.5q83 0 136.5 -50t53.5 -122v-2q0 -68 -45 -116.5t-117 -73.5
q92 -13 149 -58.5t57 -120.5v-2q0 -90 -71 -142t-187 -52z" />
    <glyph glyph-name="agrave" unicode="&#xe0;" horiz-adv-x="569" 
d="M242 -12q-78 0 -134.5 40.5t-56.5 113.5v2q0 77 62 119.5t161 42.5q94 0 180 -28v34q0 84 -47 127t-133 43q-80 0 -164 -42l-12 28q91 44 178 44q105 0 160 -55q50 -52 50 -143v-314h-32v105q-22 -48 -77 -82.5t-135 -34.5zM244 18q90 0 150.5 49.5t60.5 118.5v62
q-86 28 -182 28q-85 0 -136.5 -34.5t-51.5 -95.5v-2q0 -59 46 -92.5t113 -33.5zM276 595l-101 102l39 19l87 -121h-25z" />
    <glyph glyph-name="aacute" unicode="&#xe1;" horiz-adv-x="569" 
d="M242 -12q-78 0 -134.5 40.5t-56.5 113.5v2q0 77 62 119.5t161 42.5q94 0 180 -28v34q0 84 -47 127t-133 43q-80 0 -164 -42l-12 28q91 44 178 44q105 0 160 -55q50 -52 50 -143v-314h-32v105q-22 -48 -77 -82.5t-135 -34.5zM244 18q90 0 150.5 49.5t60.5 118.5v62
q-86 28 -182 28q-85 0 -136.5 -34.5t-51.5 -95.5v-2q0 -59 46 -92.5t113 -33.5zM270 595l87 121l39 -19l-101 -102h-25z" />
    <glyph glyph-name="acircumflex" unicode="&#xe2;" horiz-adv-x="569" 
d="M242 -12q-78 0 -134.5 40.5t-56.5 113.5v2q0 77 62 119.5t161 42.5q94 0 180 -28v34q0 84 -47 127t-133 43q-80 0 -164 -42l-12 28q91 44 178 44q105 0 160 -55q50 -52 50 -143v-314h-32v105q-22 -48 -77 -82.5t-135 -34.5zM244 18q90 0 150.5 49.5t60.5 118.5v62
q-86 28 -182 28q-85 0 -136.5 -34.5t-51.5 -95.5v-2q0 -59 46 -92.5t113 -33.5zM170 595l103 116h24l103 -116h-29l-86 79l-86 -79h-29z" />
    <glyph glyph-name="atilde" unicode="&#xe3;" horiz-adv-x="569" 
d="M242 -12q-78 0 -134.5 40.5t-56.5 113.5v2q0 77 62 119.5t161 42.5q94 0 180 -28v34q0 84 -47 127t-133 43q-80 0 -164 -42l-12 28q91 44 178 44q105 0 160 -55q50 -52 50 -143v-314h-32v105q-22 -48 -77 -82.5t-135 -34.5zM244 18q90 0 150.5 49.5t60.5 118.5v62
q-86 28 -182 28q-85 0 -136.5 -34.5t-51.5 -95.5v-2q0 -59 46 -92.5t113 -33.5zM352 602q-19 0 -69 26q-42 25 -60 25q-19 0 -31 -12.5t-23 -45.5l-22 5q20 86 77 86q17 0 69 -27q46 -25 60 -25q18 0 30.5 13t23.5 45l22 -5q-20 -85 -77 -85z" />
    <glyph glyph-name="adieresis" unicode="&#xe4;" horiz-adv-x="569" 
d="M242 -12q-78 0 -134.5 40.5t-56.5 113.5v2q0 77 62 119.5t161 42.5q94 0 180 -28v34q0 84 -47 127t-133 43q-80 0 -164 -42l-12 28q91 44 178 44q105 0 160 -55q50 -52 50 -143v-314h-32v105q-22 -48 -77 -82.5t-135 -34.5zM244 18q90 0 150.5 49.5t60.5 118.5v62
q-86 28 -182 28q-85 0 -136.5 -34.5t-51.5 -95.5v-2q0 -59 46 -92.5t113 -33.5zM332 606v62h49v-62h-49zM189 606v62h49v-62h-49z" />
    <glyph glyph-name="aring" unicode="&#xe5;" horiz-adv-x="569" 
d="M242 -12q-78 0 -134.5 40.5t-56.5 113.5v2q0 77 62 119.5t161 42.5q94 0 180 -28v34q0 84 -47 127t-133 43q-80 0 -164 -42l-12 28q91 44 178 44q105 0 160 -55q50 -52 50 -143v-314h-32v105q-22 -48 -77 -82.5t-135 -34.5zM244 18q90 0 150.5 49.5t60.5 118.5v62
q-86 28 -182 28q-85 0 -136.5 -34.5t-51.5 -95.5v-2q0 -59 46 -92.5t113 -33.5zM285 594q-41 0 -70.5 28t-29.5 67q0 40 29.5 68t70.5 28t70.5 -28t29.5 -68q0 -39 -29.5 -67t-70.5 -28zM285 615q31 0 53 21.5t22 52.5t-22 53t-53 22t-53 -22t-22 -53t22 -52.5t53 -21.5z
" />
    <glyph glyph-name="ae" unicode="&#xe6;" horiz-adv-x="970" 
d="M247 -12q-83 0 -139.5 40.5t-56.5 113.5v2q0 77 61.5 119.5t159.5 42.5q91 0 174 -27l3 35q-1 83 -47.5 125.5t-130.5 42.5q-77 0 -161 -42l-12 28q91 44 175 44q170 0 198 -141q28 66 85 105.5t129 39.5q108 0 170 -78.5t62 -186.5q0 -7 -1 -11h-437q4 -99 66.5 -160.5
t148.5 -61.5q113 0 183 88l23 -20q-78 -98 -207 -98q-66 0 -122 32t-89 88q-36 -50 -97.5 -85t-137.5 -35zM249 18q69 0 127.5 34t91.5 85q-22 51 -23 112q-81 27 -174 27q-84 0 -135 -34.5t-51 -95.5v-2q0 -60 45.5 -93t118.5 -33zM479 269h403q-5 89 -57 153t-141 64
q-86 0 -143 -61.5t-62 -155.5z" />
    <glyph glyph-name="ccedilla" unicode="&#xe7;" horiz-adv-x="565" 
d="M256 -144l-35 17l76 116q-101 7 -170 83t-69 179v2q0 108 75 185.5t183 77.5q112 0 201 -93l-23 -23q-81 86 -179 86q-94 0 -158.5 -68t-64.5 -164v-2q0 -96 65.5 -165t159.5 -69q100 0 181 90l23 -20q-82 -96 -196 -100z" />
    <glyph glyph-name="egrave" unicode="&#xe8;" horiz-adv-x="583" 
d="M308 -12q-105 0 -177.5 73t-72.5 191v2q0 112 68.5 187t172.5 75q108 0 169.5 -78t61.5 -187v-11h-437q4 -100 66.5 -161t149.5 -61q109 0 181 93l24 -19q-80 -104 -206 -104zM93 269h402q-4 89 -56.5 153t-141.5 64q-85 0 -142 -61.5t-62 -155.5zM288 595l-101 102
l39 19l87 -121h-25z" />
    <glyph glyph-name="eacute" unicode="&#xe9;" horiz-adv-x="583" 
d="M308 -12q-105 0 -177.5 73t-72.5 191v2q0 112 68.5 187t172.5 75q108 0 169.5 -78t61.5 -187v-11h-437q4 -100 66.5 -161t149.5 -61q109 0 181 93l24 -19q-80 -104 -206 -104zM93 269h402q-4 89 -56.5 153t-141.5 64q-85 0 -142 -61.5t-62 -155.5zM282 595l87 121l39 -19
l-101 -102h-25z" />
    <glyph glyph-name="ecircumflex" unicode="&#xea;" horiz-adv-x="583" 
d="M308 -12q-105 0 -177.5 73t-72.5 191v2q0 112 68.5 187t172.5 75q108 0 169.5 -78t61.5 -187v-11h-437q4 -100 66.5 -161t149.5 -61q109 0 181 93l24 -19q-80 -104 -206 -104zM93 269h402q-4 89 -56.5 153t-141.5 64q-85 0 -142 -61.5t-62 -155.5zM183 595l103 116h24
l103 -116h-29l-86 79l-86 -79h-29z" />
    <glyph glyph-name="edieresis" unicode="&#xeb;" horiz-adv-x="583" 
d="M308 -12q-105 0 -177.5 73t-72.5 191v2q0 112 68.5 187t172.5 75q108 0 169.5 -78t61.5 -187v-11h-437q4 -100 66.5 -161t149.5 -61q109 0 181 93l24 -19q-80 -104 -206 -104zM93 269h402q-4 89 -56.5 153t-141.5 64q-85 0 -142 -61.5t-62 -155.5zM345 606v62h49v-62h-49
zM202 606v62h49v-62h-49z" />
    <glyph glyph-name="igrave" unicode="&#xec;" horiz-adv-x="231" 
d="M99 0v504h33v-504h-33zM106 595l-101 102l39 19l87 -121h-25z" />
    <glyph glyph-name="iacute" unicode="&#xed;" horiz-adv-x="231" 
d="M100 595l87 121l39 -19l-101 -102h-25zM99 0v504h33v-504h-33z" />
    <glyph glyph-name="icircumflex" unicode="&#xee;" horiz-adv-x="231" 
d="M0 595l103 116h24l103 -116h-29l-86 79l-86 -79h-29zM99 0v504h33v-504h-33z" />
    <glyph glyph-name="idieresis" unicode="&#xef;" horiz-adv-x="231" 
d="M162 606v62h49v-62h-49zM19 606v62h49v-62h-49zM99 0v504h33v-504h-33z" />
    <glyph glyph-name="eth" unicode="&#xf0;" horiz-adv-x="634" 
d="M462 708l-94 -55q208 -187 208 -379v-2q0 -124 -73 -204t-187 -80q-110 0 -184.5 75.5t-74.5 187.5v2q0 110 74.5 184t179.5 74q119 0 201 -91q-48 109 -172 217l-109 -63l-16 24l102 59q-36 30 -97 73h52q43 -31 73 -56l101 59zM318 18q95 0 159 69.5t64 169.5v2
q0 95 -65 158.5t-163 63.5q-95 0 -158 -66.5t-63 -162.5v-2q0 -98 65 -165t161 -67z" />
    <glyph glyph-name="ntilde" unicode="&#xf1;" horiz-adv-x="610" 
d="M93 0v504h32v-120q20 53 70 92.5t124 39.5q98 0 153 -60.5t55 -160.5v-295h-32v290q0 90 -47 143t-133 53q-80 0 -135 -58t-55 -144v-284h-32zM376 602q-19 0 -69 26q-42 25 -60 25q-19 0 -31 -12.5t-23 -45.5l-22 5q20 86 77 86q17 0 69 -27q46 -25 60 -25q18 0 30.5 13
t23.5 45l22 -5q-20 -85 -77 -85z" />
    <glyph glyph-name="ograve" unicode="&#xf2;" horiz-adv-x="636" 
d="M318 -12q-113 0 -187 77t-74 185v2q0 108 74 186t188 78q113 0 186.5 -77t73.5 -185v-2q0 -109 -73.5 -186.5t-187.5 -77.5zM319 18q98 0 162 68t64 165v2q0 96 -65.5 164.5t-162.5 68.5q-98 0 -161.5 -68t-63.5 -165v-2q0 -97 65 -165t162 -68zM308 595l-101 102l39 19
l87 -121h-25z" />
    <glyph glyph-name="oacute" unicode="&#xf3;" horiz-adv-x="636" 
d="M302 595l87 121l39 -19l-101 -102h-25zM318 -12q-113 0 -187 77t-74 185v2q0 108 74 186t188 78q113 0 186.5 -77t73.5 -185v-2q0 -109 -73.5 -186.5t-187.5 -77.5zM319 18q98 0 162 68t64 165v2q0 96 -65.5 164.5t-162.5 68.5q-98 0 -161.5 -68t-63.5 -165v-2
q0 -97 65 -165t162 -68z" />
    <glyph glyph-name="ocircumflex" unicode="&#xf4;" horiz-adv-x="636" 
d="M203 595l103 116h24l103 -116h-29l-86 79l-86 -79h-29zM318 -12q-113 0 -187 77t-74 185v2q0 108 74 186t188 78q113 0 186.5 -77t73.5 -185v-2q0 -109 -73.5 -186.5t-187.5 -77.5zM319 18q98 0 162 68t64 165v2q0 96 -65.5 164.5t-162.5 68.5q-98 0 -161.5 -68
t-63.5 -165v-2q0 -97 65 -165t162 -68z" />
    <glyph glyph-name="otilde" unicode="&#xf5;" horiz-adv-x="636" 
d="M318 -12q-113 0 -187 77t-74 185v2q0 108 74 186t188 78q113 0 186.5 -77t73.5 -185v-2q0 -109 -73.5 -186.5t-187.5 -77.5zM319 18q98 0 162 68t64 165v2q0 96 -65.5 164.5t-162.5 68.5q-98 0 -161.5 -68t-63.5 -165v-2q0 -97 65 -165t162 -68zM384 602q-19 0 -69 26
q-42 25 -60 25q-19 0 -31 -12.5t-23 -45.5l-22 5q20 86 77 86q17 0 69 -27q46 -25 60 -25q18 0 30.5 13t23.5 45l22 -5q-20 -85 -77 -85z" />
    <glyph glyph-name="odieresis" unicode="&#xf6;" horiz-adv-x="636" 
d="M365 606v62h49v-62h-49zM222 606v62h49v-62h-49zM318 -12q-113 0 -187 77t-74 185v2q0 108 74 186t188 78q113 0 186.5 -77t73.5 -185v-2q0 -109 -73.5 -186.5t-187.5 -77.5zM319 18q98 0 162 68t64 165v2q0 96 -65.5 164.5t-162.5 68.5q-98 0 -161.5 -68t-63.5 -165v-2
q0 -97 65 -165t162 -68z" />
    <glyph glyph-name="divide" unicode="&#xf7;" horiz-adv-x="608" 
d="M277 522v67h54v-67h-54zM538 337h-468v30h468v-30zM277 115v67h54v-67h-54z" />
    <glyph glyph-name="oslash" unicode="&#xf8;" horiz-adv-x="636" 
d="M545 510h38l-73 -76q69 -77 69 -180v-2q0 -109 -73.5 -186.5t-187.5 -77.5q-100 0 -173 63l-53 -56h-38l72 75q-69 75 -69 180v2q0 108 74 186t188 78q98 0 172 -64zM91 252q0 -94 57 -159l321 336q-64 57 -152 57q-98 0 -162 -68t-64 -165v-1zM319 18q99 0 162.5 68
t63.5 165v1q0 93 -58 159l-320 -337q62 -56 152 -56z" />
    <glyph glyph-name="ugrave" unicode="&#xf9;" horiz-adv-x="610" 
d="M291 -12q-98 0 -153 60.5t-55 160.5v295h32v-290q0 -90 47 -143t133 -53q80 0 135 58t55 144v284h32v-504h-32v120q-20 -53 -70 -92.5t-124 -39.5zM290 592l-101 102l39 19l87 -121h-25z" />
    <glyph glyph-name="uacute" unicode="&#xfa;" horiz-adv-x="610" 
d="M284 592l87 121l39 -19l-101 -102h-25zM291 -12q-98 0 -153 60.5t-55 160.5v295h32v-290q0 -90 47 -143t133 -53q80 0 135 58t55 144v284h32v-504h-32v120q-20 -53 -70 -92.5t-124 -39.5z" />
    <glyph glyph-name="ucircumflex" unicode="&#xfb;" horiz-adv-x="610" 
d="M184 592l103 116h24l103 -116h-29l-86 79l-86 -79h-29zM291 -12q-98 0 -153 60.5t-55 160.5v295h32v-290q0 -90 47 -143t133 -53q80 0 135 58t55 144v284h32v-504h-32v120q-20 -53 -70 -92.5t-124 -39.5z" />
    <glyph glyph-name="udieresis" unicode="&#xfc;" horiz-adv-x="610" 
d="M346 603v62h49v-62h-49zM203 603v62h49v-62h-49zM291 -12q-98 0 -153 60.5t-55 160.5v295h32v-290q0 -90 47 -143t133 -53q80 0 135 58t55 144v284h32v-504h-32v120q-20 -53 -70 -92.5t-124 -39.5z" />
    <glyph glyph-name="yacute" unicode="&#xfd;" horiz-adv-x="577" 
d="M299 35l203 469h34l-227 -517q-38 -87 -74.5 -118.5t-89.5 -31.5q-49 0 -97 25l13 27q41 -22 85 -22q43 0 72.5 28t64.5 106l-242 503h36zM275 592l87 121l39 -19l-101 -102h-25z" />
    <glyph glyph-name="thorn" unicode="&#xfe;" horiz-adv-x="657" 
d="M93 -160v890h32v-365q28 67 86 109t137 42q104 0 176.5 -74.5t72.5 -188.5v-2q0 -113 -72.5 -188t-176.5 -75q-80 0 -138 41.5t-85 107.5v-297h-32zM345 19q95 0 156.5 65t61.5 166v2q0 100 -62 166.5t-156 66.5q-93 0 -157.5 -67.5t-64.5 -164.5v-2q0 -97 65 -164.5
t157 -67.5z" />
    <glyph glyph-name="ydieresis" unicode="&#xff;" horiz-adv-x="577" 
d="M299 35l203 469h34l-227 -517q-38 -87 -74.5 -118.5t-89.5 -31.5q-49 0 -97 25l13 27q41 -22 85 -22q43 0 72.5 28t64.5 106l-242 503h36zM337 603v62h49v-62h-49zM194 603v62h49v-62h-49z" />
    <glyph glyph-name="Amacron" unicode="&#x100;" horiz-adv-x="776" 
d="M40 0l332 705h32l332 -705h-37l-95 204h-433l-96 -204h-35zM186 235h403l-202 430zM243 798v32h288v-32h-288z" />
    <glyph glyph-name="amacron" unicode="&#x101;" horiz-adv-x="569" 
d="M242 -12q-78 0 -134.5 40.5t-56.5 113.5v2q0 77 62 119.5t161 42.5q94 0 180 -28v34q0 84 -47 127t-133 43q-80 0 -164 -42l-12 28q91 44 178 44q105 0 160 -55q50 -52 50 -143v-314h-32v105q-22 -48 -77 -82.5t-135 -34.5zM244 18q90 0 150.5 49.5t60.5 118.5v62
q-86 28 -182 28q-85 0 -136.5 -34.5t-51.5 -95.5v-2q0 -59 46 -92.5t113 -33.5zM148 621v30h274v-30h-274z" />
    <glyph glyph-name="Abreve" unicode="&#x102;" horiz-adv-x="776" 
d="M40 0l332 705h32l332 -705h-37l-95 204h-433l-96 -204h-35zM186 235h403l-202 430zM387 771q-56 0 -89.5 24.5t-39.5 65.5h28q18 -59 101 -59q82 0 101 59h28q-6 -41 -40 -65.5t-89 -24.5z" />
    <glyph glyph-name="abreve" unicode="&#x103;" horiz-adv-x="569" 
d="M242 -12q-78 0 -134.5 40.5t-56.5 113.5v2q0 77 62 119.5t161 42.5q94 0 180 -28v34q0 84 -47 127t-133 43q-80 0 -164 -42l-12 28q91 44 178 44q105 0 160 -55q50 -52 50 -143v-314h-32v105q-22 -48 -77 -82.5t-135 -34.5zM244 18q90 0 150.5 49.5t60.5 118.5v62
q-86 28 -182 28q-85 0 -136.5 -34.5t-51.5 -95.5v-2q0 -59 46 -92.5t113 -33.5zM285 594q-55 0 -89 28.5t-39 75.5h25q8 -31 34.5 -52.5t68.5 -21.5q43 0 69 21t34 53h25q-5 -47 -39 -75.5t-89 -28.5z" />
    <glyph glyph-name="Aogonek" unicode="&#x104;" horiz-adv-x="776" 
d="M750 -137v-24q-54 1 -85.5 22t-31.5 54q0 47 63 91l-92 198h-433l-96 -204h-35l332 705h32l332 -705h-12q-57 -41 -57 -81q0 -50 83 -56zM186 235h403l-202 430z" />
    <glyph glyph-name="aogonek" unicode="&#x105;" horiz-adv-x="569" 
d="M507 -137v-24q-54 1 -85.5 22t-31.5 54q0 48 64 92v98q-22 -48 -77 -82.5t-135 -34.5q-78 0 -134.5 40.5t-56.5 113.5v2q0 77 62 119.5t161 42.5q94 0 180 -28v34q0 84 -47 127t-133 43q-80 0 -164 -42l-12 28q91 44 178 44q105 0 160 -55q50 -52 50 -143v-314h-5
q-57 -41 -57 -81q0 -50 83 -56zM244 18q90 0 150.5 49.5t60.5 118.5v62q-86 28 -182 28q-85 0 -136.5 -34.5t-51.5 -95.5v-2q0 -59 46 -92.5t113 -33.5z" />
    <glyph glyph-name="Cacute" unicode="&#x106;" horiz-adv-x="731" 
d="M417 -12q-147 0 -245.5 104.5t-98.5 255.5v2q0 150 99 256t247 106q90 0 150 -28t119 -83l-24 -25q-51 49 -108.5 77t-137.5 28q-132 0 -221 -96.5t-89 -233.5v-2q0 -137 89.5 -233.5t221.5 -96.5q141 0 249 112l24 -23q-118 -120 -275 -120zM397 772l97 107l37 -19
l-105 -88h-29z" />
    <glyph glyph-name="cacute" unicode="&#x107;" horiz-adv-x="565" 
d="M299 595l87 121l39 -19l-101 -102h-25zM315 -12q-108 0 -182.5 77.5t-74.5 185.5v2q0 108 75 185.5t183 77.5q112 0 201 -93l-23 -23q-81 86 -179 86q-94 0 -158.5 -68t-64.5 -164v-2q0 -96 65.5 -165t159.5 -69q100 0 181 90l23 -20q-86 -100 -206 -100z" />
    <glyph glyph-name="Cdotaccent" unicode="&#x10a;" horiz-adv-x="731" 
d="M387 783v61h54v-61h-54zM417 -12q-147 0 -245.5 104.5t-98.5 255.5v2q0 150 99 256t247 106q90 0 150 -28t119 -83l-24 -25q-51 49 -108.5 77t-137.5 28q-132 0 -221 -96.5t-89 -233.5v-2q0 -137 89.5 -233.5t221.5 -96.5q141 0 249 112l24 -23q-118 -120 -275 -120z" />
    <glyph glyph-name="cdotaccent" unicode="&#x10b;" horiz-adv-x="565" 
d="M315 -12q-108 0 -182.5 77.5t-74.5 185.5v2q0 108 75 185.5t183 77.5q112 0 201 -93l-23 -23q-81 86 -179 86q-94 0 -158.5 -68t-64.5 -164v-2q0 -96 65.5 -165t159.5 -69q100 0 181 90l23 -20q-86 -100 -206 -100zM289 606v63h50v-63h-50z" />
    <glyph glyph-name="Ccaron" unicode="&#x10c;" horiz-adv-x="731" 
d="M417 -12q-147 0 -245.5 104.5t-98.5 255.5v2q0 150 99 256t247 106q90 0 150 -28t119 -83l-24 -25q-51 49 -108.5 77t-137.5 28q-132 0 -221 -96.5t-89 -233.5v-2q0 -137 89.5 -233.5t221.5 -96.5q141 0 249 112l24 -23q-118 -120 -275 -120zM533 873l-104 -101h-30
l-104 101h34l85 -69l86 69h33z" />
    <glyph glyph-name="ccaron" unicode="&#x10d;" horiz-adv-x="565" 
d="M429 711l-103 -116h-24l-103 116h29l86 -79l86 79h29zM315 -12q-108 0 -182.5 77.5t-74.5 185.5v2q0 108 75 185.5t183 77.5q112 0 201 -93l-23 -23q-81 86 -179 86q-94 0 -158.5 -68t-64.5 -164v-2q0 -96 65.5 -165t159.5 -69q100 0 181 90l23 -20q-86 -100 -206 -100z
" />
    <glyph glyph-name="Dcaron" unicode="&#x10e;" horiz-adv-x="777" 
d="M104 0v700h228q163 0 267.5 -100t104.5 -249v-2q0 -149 -104.5 -249t-267.5 -100h-228zM332 669h-194v-638h195q148 0 242 91t94 226v2q0 135 -94 227t-243 92zM485 866l-104 -101h-30l-104 101h34l85 -69l86 69h33z" />
    <glyph glyph-name="dcaron" unicode="&#x10f;" horiz-adv-x="657" 
d="M627 581l17 149h40v-2l-38 -147h-19zM309 -12q-104 0 -176.5 74.5t-72.5 188.5v2q0 113 72.5 188t176.5 75q80 0 138 -41.5t85 -107.5v363h32v-730h-32v139q-28 -67 -86 -109t-137 -42zM312 19q93 0 157.5 67.5t64.5 164.5v2q0 97 -65 164.5t-157 67.5q-95 0 -156.5 -65
t-61.5 -166v-2q0 -100 62 -166.5t156 -66.5z" />
    <glyph glyph-name="Dcroat" unicode="&#x110;" horiz-adv-x="807" 
d="M134 0v336h-75v32h75v332h228q163 0 267.5 -100t104.5 -249v-2q0 -149 -104.5 -249t-267.5 -100h-228zM412 336h-244v-305h195q148 0 242 91t94 226v2q0 135 -94 227t-243 92h-194v-301h244v-32z" />
    <glyph glyph-name="dcroat" unicode="&#x111;" horiz-adv-x="657" 
d="M347 618v29h185v83h32v-83h70v-29h-70v-618h-32v139q-28 -67 -86 -109t-137 -42q-104 0 -176.5 74.5t-72.5 188.5v2q0 113 72.5 188t176.5 75q80 0 138 -41.5t85 -107.5v251h-185zM312 19q93 0 157.5 67.5t64.5 164.5v2q0 97 -65 164.5t-157 67.5q-95 0 -156.5 -65
t-61.5 -166v-2q0 -100 62 -166.5t156 -66.5z" />
    <glyph glyph-name="Emacron" unicode="&#x112;" horiz-adv-x="665" 
d="M208 791v32h288v-32h-288zM104 0v700h493v-31h-459v-301h415v-31h-415v-306h464v-31h-498z" />
    <glyph glyph-name="emacron" unicode="&#x113;" horiz-adv-x="583" 
d="M308 -12q-105 0 -177.5 73t-72.5 191v2q0 112 68.5 187t172.5 75q108 0 169.5 -78t61.5 -187v-11h-437q4 -100 66.5 -161t149.5 -61q109 0 181 93l24 -19q-80 -104 -206 -104zM93 269h402q-4 89 -56.5 153t-141.5 64q-85 0 -142 -61.5t-62 -155.5zM161 621v30h274v-30
h-274z" />
    <glyph glyph-name="Ebreve" unicode="&#x114;" horiz-adv-x="665" 
d="M352 764q-56 0 -89.5 24.5t-39.5 65.5h28q18 -59 101 -59q82 0 101 59h28q-6 -41 -40 -65.5t-89 -24.5zM104 0v700h493v-31h-459v-301h415v-31h-415v-306h464v-31h-498z" />
    <glyph glyph-name="ebreve" unicode="&#x115;" horiz-adv-x="583" 
d="M308 -12q-105 0 -177.5 73t-72.5 191v2q0 112 68.5 187t172.5 75q108 0 169.5 -78t61.5 -187v-11h-437q4 -100 66.5 -161t149.5 -61q109 0 181 93l24 -19q-80 -104 -206 -104zM93 269h402q-4 89 -56.5 153t-141.5 64q-85 0 -142 -61.5t-62 -155.5zM298 594
q-55 0 -89 28.5t-39 75.5h25q8 -31 34.5 -52.5t68.5 -21.5q43 0 69 21t34 53h25q-5 -47 -39 -75.5t-89 -28.5z" />
    <glyph glyph-name="Edotaccent" unicode="&#x116;" horiz-adv-x="665" 
d="M325 776v61h54v-61h-54zM104 0v700h493v-31h-459v-301h415v-31h-415v-306h464v-31h-498z" />
    <glyph glyph-name="edotaccent" unicode="&#x117;" horiz-adv-x="583" 
d="M308 -12q-105 0 -177.5 73t-72.5 191v2q0 112 68.5 187t172.5 75q108 0 169.5 -78t61.5 -187v-11h-437q4 -100 66.5 -161t149.5 -61q109 0 181 93l24 -19q-80 -104 -206 -104zM93 269h402q-4 89 -56.5 153t-141.5 64q-85 0 -142 -61.5t-62 -155.5zM273 606v63h50v-63h-50
z" />
    <glyph glyph-name="Eogonek" unicode="&#x118;" horiz-adv-x="665" 
d="M104 0v700h493v-31h-459v-301h415v-31h-415v-306h464v-31h-28q-57 -41 -57 -81q0 -50 83 -56v-24q-54 1 -85.5 22t-31.5 54q0 45 54 85h-433z" />
    <glyph glyph-name="eogonek" unicode="&#x119;" horiz-adv-x="583" 
d="M490 111l24 -19q-22 -30 -73 -70q-69 -56 -69 -100q0 -52 83 -59v-24q-54 1 -85 22t-31 55q0 42 46 84q-41 -12 -77 -12q-105 0 -177.5 73t-72.5 191v2q0 112 68.5 187t172.5 75q108 0 169.5 -78t61.5 -187v-11h-437q4 -100 66.5 -161t149.5 -61q109 0 181 93zM93 269
h402q-4 89 -56.5 153t-141.5 64q-85 0 -142 -61.5t-62 -155.5z" />
    <glyph glyph-name="Ecaron" unicode="&#x11a;" horiz-adv-x="665" 
d="M471 866l-104 -101h-30l-104 101h34l85 -69l86 69h33zM104 0v700h493v-31h-459v-301h415v-31h-415v-306h464v-31h-498z" />
    <glyph glyph-name="ecaron" unicode="&#x11b;" horiz-adv-x="583" 
d="M308 -12q-105 0 -177.5 73t-72.5 191v2q0 112 68.5 187t172.5 75q108 0 169.5 -78t61.5 -187v-11h-437q4 -100 66.5 -161t149.5 -61q109 0 181 93l24 -19q-80 -104 -206 -104zM93 269h402q-4 89 -56.5 153t-141.5 64q-85 0 -142 -61.5t-62 -155.5zM413 711l-103 -116h-24
l-103 116h29l86 -79l86 79h29z" />
    <glyph glyph-name="Gbreve" unicode="&#x11e;" horiz-adv-x="781" 
d="M410 771q-56 0 -89.5 24.5t-39.5 65.5h28q18 -59 101 -59q82 0 101 59h28q-6 -41 -40 -65.5t-89 -24.5zM421 -12q-160 0 -254 103.5t-94 256.5v2q0 147 96.5 254.5t249.5 107.5q78 0 135 -22.5t113 -68.5l-22 -26q-51 42 -103.5 64t-124.5 22q-135 0 -222 -98t-87 -232
v-2q0 -141 85.5 -236t228.5 -95q132 0 239 90v215h-249v33h282v-261q-118 -107 -273 -107z" />
    <glyph glyph-name="gbreve" unicode="&#x11f;" horiz-adv-x="652" 
d="M313 -163q-127 0 -230 78l19 26q96 -73 211 -73q98 0 155.5 55t57.5 158v91q-31 -60 -88.5 -97.5t-131.5 -37.5q-100 0 -173 69t-73 169v2q0 101 73 170t173 69q74 0 131.5 -37t88.5 -96v121h33v-427q0 -109 -65 -174q-66 -66 -181 -66zM309 68q89 0 154.5 60t65.5 147v2
q0 87 -65.5 147.5t-154.5 60.5t-151.5 -59.5t-62.5 -147.5v-2q0 -87 63 -147.5t151 -60.5zM330 594q-55 0 -89 28.5t-39 75.5h25q8 -31 34.5 -52.5t68.5 -21.5q43 0 69 21t34 53h25q-5 -47 -39 -75.5t-89 -28.5z" />
    <glyph glyph-name="Gdotaccent" unicode="&#x120;" horiz-adv-x="781" 
d="M383 783v61h54v-61h-54zM421 -12q-160 0 -254 103.5t-94 256.5v2q0 147 96.5 254.5t249.5 107.5q78 0 135 -22.5t113 -68.5l-22 -26q-51 42 -103.5 64t-124.5 22q-135 0 -222 -98t-87 -232v-2q0 -141 85.5 -236t228.5 -95q132 0 239 90v215h-249v33h282v-261
q-118 -107 -273 -107z" />
    <glyph glyph-name="gdotaccent" unicode="&#x121;" horiz-adv-x="652" 
d="M313 -163q-127 0 -230 78l19 26q96 -73 211 -73q98 0 155.5 55t57.5 158v91q-31 -60 -88.5 -97.5t-131.5 -37.5q-100 0 -173 69t-73 169v2q0 101 73 170t173 69q74 0 131.5 -37t88.5 -96v121h33v-427q0 -109 -65 -174q-66 -66 -181 -66zM309 68q89 0 154.5 60t65.5 147v2
q0 87 -65.5 147.5t-154.5 60.5t-151.5 -59.5t-62.5 -147.5v-2q0 -87 63 -147.5t151 -60.5zM305 606v63h50v-63h-50z" />
    <glyph glyph-name="Gcommaaccent" unicode="&#x122;" horiz-adv-x="781" 
d="M376 -202l-7 17q38 13 38 51h-23v57h50v-37q0 -40 -13.5 -60t-44.5 -28zM421 -12q-160 0 -254 103.5t-94 256.5v2q0 147 96.5 254.5t249.5 107.5q78 0 135 -22.5t113 -68.5l-22 -26q-51 42 -103.5 64t-124.5 22q-135 0 -222 -98t-87 -232v-2q0 -141 85.5 -236t228.5 -95
q132 0 239 90v215h-249v33h282v-261q-118 -107 -273 -107z" />
    <glyph glyph-name="gcommaaccent" unicode="&#x123;" horiz-adv-x="652" 
d="M363 730l7 -17q-38 -13 -38 -51h23v-57h-50v37q0 40 13.5 60t44.5 28zM313 -163q-127 0 -230 78l19 26q96 -73 211 -73q98 0 155.5 55t57.5 158v91q-31 -60 -88.5 -97.5t-131.5 -37.5q-100 0 -173 69t-73 169v2q0 101 73 170t173 69q74 0 131.5 -37t88.5 -96v121h33v-427
q0 -109 -65 -174q-66 -66 -181 -66zM309 68q89 0 154.5 60t65.5 147v2q0 87 -65.5 147.5t-154.5 60.5t-151.5 -59.5t-62.5 -147.5v-2q0 -87 63 -147.5t151 -60.5z" />
    <glyph glyph-name="Hbar" unicode="&#x126;" horiz-adv-x="779" 
d="M41 521v29h75v150h34v-150h479v150h34v-150h75v-29h-75v-521h-34v335h-479v-335h-34v521h-75zM150 366h479v155h-479v-155z" />
    <glyph glyph-name="hbar" unicode="&#x127;" horiz-adv-x="610" 
d="M310 618h-185v-234q20 53 70 92.5t124 39.5q98 0 153 -60.5t55 -160.5v-295h-32v290q0 90 -47 143t-133 53q-80 0 -135 -58t-55 -144v-284h-32v618h-70v29h70v83h32v-83h185v-29z" />
    <glyph glyph-name="Imacron" unicode="&#x12a;" horiz-adv-x="256" 
d="M111 0v700h34v-700h-34zM-16 791v32h288v-32h-288z" />
    <glyph glyph-name="imacron" unicode="&#x12b;" horiz-adv-x="231" 
d="M99 0v504h33v-504h-33zM-22 621v30h274v-30h-274z" />
    <glyph glyph-name="Ibreve" unicode="&#x12c;" horiz-adv-x="256" 
d="M111 0v700h34v-700h-34zM128 764q-56 0 -89.5 24.5t-39.5 65.5h28q18 -59 101 -59q82 0 101 59h28q-6 -41 -40 -65.5t-89 -24.5z" />
    <glyph glyph-name="ibreve" unicode="&#x12d;" horiz-adv-x="231" 
d="M99 0v504h33v-504h-33zM115 594q-55 0 -89 28.5t-39 75.5h25q8 -31 34.5 -52.5t68.5 -21.5q43 0 69 21t34 53h25q-5 -47 -39 -75.5t-89 -28.5z" />
    <glyph glyph-name="Iogonek" unicode="&#x12e;" horiz-adv-x="256" 
d="M168 -137v-24q-54 1 -85.5 22t-31.5 54q0 47 60 89v696h34v-700h-3q-57 -41 -57 -81q0 -50 83 -56z" />
    <glyph glyph-name="iogonek" unicode="&#x12f;" horiz-adv-x="231" 
d="M155 -137v-24q-54 1 -85.5 22t-31.5 54q0 46 61 90v499h33v-504h-3q-57 -41 -57 -81q0 -50 83 -56zM94 643v61h43v-61h-43z" />
    <glyph glyph-name="Idotaccent" unicode="&#x130;" horiz-adv-x="256" 
d="M111 0v700h34v-700h-34zM101 776v61h54v-61h-54z" />
    <glyph glyph-name="dotlessi" unicode="&#x131;" horiz-adv-x="231" 
d="M99 0v504h33v-504h-33z" />
    <glyph glyph-name="Kcommaaccent" unicode="&#x136;" horiz-adv-x="709" 
d="M322 -194l-7 17q38 13 38 51h-23v57h50v-37q0 -40 -13.5 -60t-44.5 -28zM104 0v700h34v-468l469 468h47l-305 -301l317 -399h-44l-297 376l-187 -185v-191h-34z" />
    <glyph glyph-name="kcommaaccent" unicode="&#x137;" horiz-adv-x="550" 
d="M251 -196l-7 17q38 13 38 51h-23v57h50v-37q0 -40 -13.5 -60t-44.5 -28zM93 0v730h32v-552l335 326h43l-232 -223l244 -281h-40l-226 259l-124 -119v-140h-32z" />
    <glyph glyph-name="Lacute" unicode="&#x139;" horiz-adv-x="598" 
d="M117 765l97 107l37 -19l-105 -88h-29zM104 0v700h34v-669h422v-31h-456z" />
    <glyph glyph-name="lacute" unicode="&#x13a;" horiz-adv-x="231" 
d="M99 781l97 107l37 -19l-105 -88h-29zM99 0v730h33v-730h-33z" />
    <glyph glyph-name="Lcommaaccent" unicode="&#x13b;" horiz-adv-x="598" 
d="M293 -199l-7 17q38 13 38 51h-23v57h50v-37q0 -40 -13.5 -60t-44.5 -28zM104 0v700h34v-669h422v-31h-456z" />
    <glyph glyph-name="lcommaaccent" unicode="&#x13c;" horiz-adv-x="231" 
d="M81 -199l-7 17q38 13 38 51h-23v57h50v-37q0 -40 -13.5 -60t-44.5 -28zM99 0v730h33v-730h-33z" />
    <glyph glyph-name="Lcaron" unicode="&#x13d;" horiz-adv-x="598" 
d="M254 551l17 149h40v-2l-38 -147h-19zM104 0v700h34v-669h422v-31h-456z" />
    <glyph glyph-name="lcaron" unicode="&#x13e;" horiz-adv-x="231" 
d="M196 581l17 149h40v-2l-38 -147h-19zM99 0v730h33v-730h-33z" />
    <glyph glyph-name="Ldot" unicode="&#x13f;" horiz-adv-x="598" 
d="M418 324v66h49v-66h-49zM104 0v700h34v-669h422v-31h-456z" />
    <glyph glyph-name="ldot" unicode="&#x140;" horiz-adv-x="255" 
d="M219 332v67h49v-67h-49zM99 0v730h33v-730h-33z" />
    <glyph glyph-name="Lslash" unicode="&#x141;" horiz-adv-x="626" 
d="M368 422l-203 -97v-294h423v-31h-456v309l-87 -42v35l87 42v356h33v-341l203 97v-34z" />
    <glyph glyph-name="lslash" unicode="&#x142;" horiz-adv-x="279" 
d="M234 404l-78 -43v-361h-33v342l-78 -44v35l78 43v354h33v-335l78 43v-34z" />
    <glyph glyph-name="Nacute" unicode="&#x143;" horiz-adv-x="784" 
d="M380 760l97 107l37 -19l-105 -88h-29zM104 0v700h31l512 -642v642h33v-700h-27l-516 647v-647h-33z" />
    <glyph glyph-name="nacute" unicode="&#x144;" horiz-adv-x="610" 
d="M294 595l87 121l39 -19l-101 -102h-25zM93 0v504h32v-120q20 53 70 92.5t124 39.5q98 0 153 -60.5t55 -160.5v-295h-32v290q0 90 -47 143t-133 53q-80 0 -135 -58t-55 -144v-284h-32z" />
    <glyph glyph-name="Ncommaaccent" unicode="&#x145;" horiz-adv-x="784" 
d="M362 -194l-7 17q38 13 38 51h-23v57h50v-37q0 -40 -13.5 -60t-44.5 -28zM104 0v700h31l512 -642v642h33v-700h-27l-516 647v-647h-33z" />
    <glyph glyph-name="ncommaaccent" unicode="&#x146;" horiz-adv-x="610" 
d="M275 -196l-7 17q38 13 38 51h-23v57h50v-37q0 -40 -13.5 -60t-44.5 -28zM93 0v504h32v-120q20 53 70 92.5t124 39.5q98 0 153 -60.5t55 -160.5v-295h-32v290q0 90 -47 143t-133 53q-80 0 -135 -58t-55 -144v-284h-32z" />
    <glyph glyph-name="Ncaron" unicode="&#x147;" horiz-adv-x="784" 
d="M515 861l-104 -101h-30l-104 101h34l85 -69l86 69h33zM104 0v700h31l512 -642v642h33v-700h-27l-516 647v-647h-33z" />
    <glyph glyph-name="ncaron" unicode="&#x148;" horiz-adv-x="610" 
d="M424 711l-103 -116h-24l-103 116h29l86 -79l86 79h29zM93 0v504h32v-120q20 53 70 92.5t124 39.5q98 0 153 -60.5t55 -160.5v-295h-32v290q0 90 -47 143t-133 53q-80 0 -135 -58t-55 -144v-284h-32z" />
    <glyph glyph-name="Omacron" unicode="&#x14c;" horiz-adv-x="845" 
d="M278 798v32h288v-32h-288zM422 -12q-154 0 -251.5 106.5t-97.5 254.5v2q0 148 98 254.5t252 106.5t251.5 -106.5t97.5 -254.5v-2q0 -148 -98 -254.5t-252 -106.5zM424 19q136 0 224.5 96.5t88.5 232.5v2q0 136 -89 233.5t-226 97.5t-225.5 -96.5t-88.5 -232.5v-2
q0 -136 89.5 -233.5t226.5 -97.5z" />
    <glyph glyph-name="omacron" unicode="&#x14d;" horiz-adv-x="636" 
d="M181 621v30h274v-30h-274zM318 -12q-113 0 -187 77t-74 185v2q0 108 74 186t188 78q113 0 186.5 -77t73.5 -185v-2q0 -109 -73.5 -186.5t-187.5 -77.5zM319 18q98 0 162 68t64 165v2q0 96 -65.5 164.5t-162.5 68.5q-98 0 -161.5 -68t-63.5 -165v-2q0 -97 65 -165t162 -68
z" />
    <glyph glyph-name="Obreve" unicode="&#x14e;" horiz-adv-x="845" 
d="M422 771q-56 0 -89.5 24.5t-39.5 65.5h28q18 -59 101 -59q82 0 101 59h28q-6 -41 -40 -65.5t-89 -24.5zM422 -12q-154 0 -251.5 106.5t-97.5 254.5v2q0 148 98 254.5t252 106.5t251.5 -106.5t97.5 -254.5v-2q0 -148 -98 -254.5t-252 -106.5zM424 19q136 0 224.5 96.5
t88.5 232.5v2q0 136 -89 233.5t-226 97.5t-225.5 -96.5t-88.5 -232.5v-2q0 -136 89.5 -233.5t226.5 -97.5z" />
    <glyph glyph-name="obreve" unicode="&#x14f;" horiz-adv-x="636" 
d="M318 -12q-113 0 -187 77t-74 185v2q0 108 74 186t188 78q113 0 186.5 -77t73.5 -185v-2q0 -109 -73.5 -186.5t-187.5 -77.5zM319 18q98 0 162 68t64 165v2q0 96 -65.5 164.5t-162.5 68.5q-98 0 -161.5 -68t-63.5 -165v-2q0 -97 65 -165t162 -68zM318 594q-55 0 -89 28.5
t-39 75.5h25q8 -31 34.5 -52.5t68.5 -21.5q43 0 69 21t34 53h25q-5 -47 -39 -75.5t-89 -28.5z" />
    <glyph glyph-name="Ohungarumlaut" unicode="&#x150;" horiz-adv-x="845" 
d="M422 -12q-154 0 -251.5 106.5t-97.5 254.5v2q0 148 98 254.5t252 106.5t251.5 -106.5t97.5 -254.5v-2q0 -148 -98 -254.5t-252 -106.5zM424 19q136 0 224.5 96.5t88.5 232.5v2q0 136 -89 233.5t-226 97.5t-225.5 -96.5t-88.5 -232.5v-2q0 -136 89.5 -233.5t226.5 -97.5z
M334 772l97 107l37 -19l-105 -88h-29zM463 772l96 107l38 -19l-106 -88h-28z" />
    <glyph glyph-name="ohungarumlaut" unicode="&#x151;" horiz-adv-x="636" 
d="M353 595l88 121l36 -18l-99 -103h-25zM238 595l88 121l36 -18l-99 -103h-25zM318 -12q-113 0 -187 77t-74 185v2q0 108 74 186t188 78q113 0 186.5 -77t73.5 -185v-2q0 -109 -73.5 -186.5t-187.5 -77.5zM319 18q98 0 162 68t64 165v2q0 96 -65.5 164.5t-162.5 68.5
q-98 0 -161.5 -68t-63.5 -165v-2q0 -97 65 -165t162 -68z" />
    <glyph glyph-name="OE" unicode="&#x152;" horiz-adv-x="1160" 
d="M445 0q-163 0 -267.5 100t-104.5 249v2q0 149 104.5 249t267.5 100h647v-31h-444v-301h400v-31h-400v-306h449v-31h-652zM446 31h168v638h-170q-148 0 -242 -91t-94 -226v-2q0 -135 94 -227t244 -92z" />
    <glyph glyph-name="oe" unicode="&#x153;" horiz-adv-x="1068" 
d="M317 -12q-113 0 -186.5 77t-73.5 185v2q0 108 74 186t187 78q87 0 152.5 -48.5t89.5 -127.5q22 80 82.5 128t141.5 48q108 0 169.5 -78t61.5 -187v-11h-438q4 -100 66.5 -161t149.5 -61q113 0 183 88l23 -20q-80 -98 -207 -98q-81 0 -145 47.5t-87 130.5
q-24 -80 -89.5 -129t-153.5 -49zM319 18q98 0 162 68t64 165v2q0 96 -65.5 164.5t-162.5 68.5q-98 0 -161.5 -68t-63.5 -165v-2q0 -97 65 -165t162 -68zM577 269h403q-4 89 -56.5 153t-141.5 64q-85 0 -142.5 -61.5t-62.5 -155.5z" />
    <glyph glyph-name="Racute" unicode="&#x154;" horiz-adv-x="724" 
d="M104 0v700h289q131 0 200 -67q51 -53 51 -130v-2q0 -86 -60 -137.5t-160 -60.5l233 -303h-43l-228 299h-248v-299h-34zM138 330h246q106 0 166 46.5t60 122.5v2q0 79 -58 123.5t-161 44.5h-253v-339zM332 765l97 107l37 -19l-105 -88h-29z" />
    <glyph glyph-name="racute" unicode="&#x155;" horiz-adv-x="361" 
d="M93 0v504h32v-154q24 70 81 118t133 46v-33h-5q-89 0 -149 -73t-60 -169v-239h-32zM182 595l87 121l39 -19l-101 -102h-25z" />
    <glyph glyph-name="Rcommaaccent" unicode="&#x156;" horiz-adv-x="724" 
d="M104 0v700h289q131 0 200 -67q51 -53 51 -130v-2q0 -86 -60 -137.5t-160 -60.5l233 -303h-43l-228 299h-248v-299h-34zM138 330h246q106 0 166 46.5t60 122.5v2q0 79 -58 123.5t-161 44.5h-253v-339zM315 -194l-7 17q38 13 38 51h-23v57h50v-37q0 -40 -13.5 -60
t-44.5 -28z" />
    <glyph glyph-name="rcommaaccent" unicode="&#x157;" horiz-adv-x="361" 
d="M93 0v504h32v-154q24 70 81 118t133 46v-33h-5q-89 0 -149 -73t-60 -169v-239h-32zM80 -199l-7 17q38 13 38 51h-23v57h50v-37q0 -40 -13.5 -60t-44.5 -28z" />
    <glyph glyph-name="Rcaron" unicode="&#x158;" horiz-adv-x="724" 
d="M104 0v700h289q131 0 200 -67q51 -53 51 -130v-2q0 -86 -60 -137.5t-160 -60.5l233 -303h-43l-228 299h-248v-299h-34zM138 330h246q106 0 166 46.5t60 122.5v2q0 79 -58 123.5t-161 44.5h-253v-339zM468 866l-104 -101h-30l-104 101h34l85 -69l86 69h33z" />
    <glyph glyph-name="rcaron" unicode="&#x159;" horiz-adv-x="361" 
d="M93 0v504h32v-154q24 70 81 118t133 46v-33h-5q-89 0 -149 -73t-60 -169v-239h-32zM312 711l-103 -116h-24l-103 116h29l86 -79l86 79h29z" />
    <glyph glyph-name="Sacute" unicode="&#x15a;" horiz-adv-x="641" 
d="M338 -10q-158 0 -279 112l23 25q112 -106 258 -106q90 0 145 43.5t55 110.5v2q0 63 -46 99t-170 62q-128 25 -183 69t-55 120v2q0 76 64.5 128.5t162.5 52.5q134 0 238 -82l-21 -27q-98 78 -219 78q-84 0 -137.5 -43.5t-53.5 -103.5v-2q0 -63 46.5 -99t170.5 -62
q129 -26 183 -70t54 -119v-2q0 -82 -65 -135t-171 -53zM313 772l97 107l37 -19l-105 -88h-29z" />
    <glyph glyph-name="sacute" unicode="&#x15b;" horiz-adv-x="493" 
d="M233 595l87 121l39 -19l-101 -102h-25zM251 -9q-54 0 -109 20t-96 54l19 25q88 -69 188 -69q61 0 102.5 29.5t41.5 75.5v2q0 21 -9.5 37.5t-21.5 27t-35.5 21t-40 15.5t-46.5 13q-35 10 -55 16.5t-46 19t-40 25t-24 32.5t-10 44v2q0 57 48 94.5t124 37.5q95 0 177 -56
l-18 -27q-75 53 -160 53q-61 0 -99.5 -28t-38.5 -71v-2q0 -18 8.5 -33.5t21 -25.5t35 -20t40.5 -16t48 -14q86 -23 130.5 -53t44.5 -89v-2q0 -61 -51 -99.5t-128 -38.5z" />
    <glyph glyph-name="Scedilla" unicode="&#x15e;" horiz-adv-x="641" 
d="M277 -144l-35 17l77 118q-147 6 -260 111l23 25q112 -106 258 -106q90 0 145 43.5t55 110.5v2q0 63 -46 99t-170 62q-128 25 -183 69t-55 120v2q0 76 64.5 128.5t162.5 52.5q134 0 238 -82l-21 -27q-98 78 -219 78q-84 0 -137.5 -43.5t-53.5 -103.5v-2q0 -63 46.5 -99
t170.5 -62q129 -26 183 -70t54 -119v-2q0 -80 -62 -132.5t-165 -55.5z" />
    <glyph glyph-name="scedilla" unicode="&#x15f;" horiz-adv-x="493" 
d="M188 -144l-35 17l78 119q-108 8 -185 73l19 25q88 -69 188 -69q61 0 102.5 29.5t41.5 75.5v2q0 21 -9.5 37.5t-21.5 27t-35.5 21t-40 15.5t-46.5 13q-35 10 -55 16.5t-46 19t-40 25t-24 32.5t-10 44v2q0 57 48 94.5t124 37.5q95 0 177 -56l-18 -27q-75 53 -160 53
q-61 0 -99.5 -28t-38.5 -71v-2q0 -18 8.5 -33.5t21 -25.5t35 -20t40.5 -16t48 -14q86 -23 130.5 -53t44.5 -89v-2q0 -60 -48.5 -98t-123.5 -40z" />
    <glyph glyph-name="Scaron" unicode="&#x160;" horiz-adv-x="641" 
d="M338 -10q-158 0 -279 112l23 25q112 -106 258 -106q90 0 145 43.5t55 110.5v2q0 63 -46 99t-170 62q-128 25 -183 69t-55 120v2q0 76 64.5 128.5t162.5 52.5q134 0 238 -82l-21 -27q-98 78 -219 78q-84 0 -137.5 -43.5t-53.5 -103.5v-2q0 -63 46.5 -99t170.5 -62
q129 -26 183 -70t54 -119v-2q0 -82 -65 -135t-171 -53zM448 873l-104 -101h-30l-104 101h34l85 -69l86 69h33z" />
    <glyph glyph-name="scaron" unicode="&#x161;" horiz-adv-x="493" 
d="M364 711l-103 -116h-24l-103 116h29l86 -79l86 79h29zM251 -9q-54 0 -109 20t-96 54l19 25q88 -69 188 -69q61 0 102.5 29.5t41.5 75.5v2q0 21 -9.5 37.5t-21.5 27t-35.5 21t-40 15.5t-46.5 13q-35 10 -55 16.5t-46 19t-40 25t-24 32.5t-10 44v2q0 57 48 94.5t124 37.5
q95 0 177 -56l-18 -27q-75 53 -160 53q-61 0 -99.5 -28t-38.5 -71v-2q0 -18 8.5 -33.5t21 -25.5t35 -20t40.5 -16t48 -14q86 -23 130.5 -53t44.5 -89v-2q0 -61 -51 -99.5t-128 -38.5z" />
    <glyph glyph-name="Tcommaaccent" unicode="&#x162;" horiz-adv-x="608" 
d="M270 -199l-7 17q38 13 38 51h-23v57h50v-37q0 -40 -13.5 -60t-44.5 -28zM287 0v669h-249v31h533v-31h-250v-669h-34z" />
    <glyph glyph-name="tcommaaccent" unicode="&#x163;" horiz-adv-x="384" 
d="M182 -202l-7 17q38 13 38 51h-23v57h50v-37q0 -40 -13.5 -60t-44.5 -28zM254 -9q-62 0 -98 35.5t-36 102.5v346h-77v29h77v169h32v-169h183v-29h-183v-343q0 -55 27.5 -83t77.5 -28q37 0 76 18v-31q-35 -17 -79 -17z" />
    <glyph glyph-name="Tcaron" unicode="&#x164;" horiz-adv-x="608" 
d="M423 866l-104 -101h-30l-104 101h34l85 -69l86 69h33zM287 0v669h-249v31h533v-31h-250v-669h-34z" />
    <glyph glyph-name="tcaron" unicode="&#x165;" horiz-adv-x="384" 
d="M264 581l17 149h40v-2l-38 -147h-19zM254 -9q-62 0 -98 35.5t-36 102.5v346h-77v29h77v169h32v-169h183v-29h-183v-343q0 -55 27.5 -83t77.5 -28q37 0 76 18v-31q-35 -17 -79 -17z" />
    <glyph glyph-name="Umacron" unicode="&#x16a;" horiz-adv-x="755" 
d="M233 786v32h288v-32h-288zM378 -11q-130 0 -207.5 81t-77.5 232v398h34v-396q0 -137 68 -210.5t184 -73.5t182.5 72t66.5 210v398h34v-395q0 -153 -77 -234.5t-207 -81.5z" />
    <glyph glyph-name="umacron" unicode="&#x16b;" horiz-adv-x="610" 
d="M291 -12q-98 0 -153 60.5t-55 160.5v295h32v-290q0 -90 47 -143t133 -53q80 0 135 58t55 144v284h32v-504h-32v120q-20 -53 -70 -92.5t-124 -39.5zM162 618v30h274v-30h-274z" />
    <glyph glyph-name="Ubreve" unicode="&#x16c;" horiz-adv-x="755" 
d="M377 759q-56 0 -89.5 24.5t-39.5 65.5h28q18 -59 101 -59q82 0 101 59h28q-6 -41 -40 -65.5t-89 -24.5zM378 -11q-130 0 -207.5 81t-77.5 232v398h34v-396q0 -137 68 -210.5t184 -73.5t182.5 72t66.5 210v398h34v-395q0 -153 -77 -234.5t-207 -81.5z" />
    <glyph glyph-name="ubreve" unicode="&#x16d;" horiz-adv-x="610" 
d="M291 -12q-98 0 -153 60.5t-55 160.5v295h32v-290q0 -90 47 -143t133 -53q80 0 135 58t55 144v284h32v-504h-32v120q-20 -53 -70 -92.5t-124 -39.5zM299 591q-55 0 -89 28.5t-39 75.5h25q8 -31 34.5 -52.5t68.5 -21.5q43 0 69 21t34 53h25q-5 -47 -39 -75.5t-89 -28.5z
" />
    <glyph glyph-name="Uring" unicode="&#x16e;" horiz-adv-x="755" 
d="M378 -11q-130 0 -207.5 81t-77.5 232v398h34v-396q0 -137 68 -210.5t184 -73.5t182.5 72t66.5 210v398h34v-395q0 -153 -77 -234.5t-207 -81.5zM377 749q-43 0 -73 25.5t-30 64.5t30 65t73 26t73 -26t30 -65t-30 -64.5t-73 -25.5zM377 771q32 0 54 19t22 49t-22 49.5
t-54 19.5t-54 -19.5t-22 -49.5t22 -49t54 -19z" />
    <glyph glyph-name="uring" unicode="&#x16f;" horiz-adv-x="610" 
d="M299 581q-41 0 -70.5 28t-29.5 67q0 40 29.5 68t70.5 28t70.5 -28t29.5 -68q0 -39 -29.5 -67t-70.5 -28zM299 602q31 0 53 21.5t22 52.5t-22 53t-53 22t-53 -22t-22 -53t22 -52.5t53 -21.5zM291 -12q-98 0 -153 60.5t-55 160.5v295h32v-290q0 -90 47 -143t133 -53
q80 0 135 58t55 144v284h32v-504h-32v120q-20 -53 -70 -92.5t-124 -39.5z" />
    <glyph glyph-name="Uhungarumlaut" unicode="&#x170;" horiz-adv-x="755" 
d="M378 -11q-130 0 -207.5 81t-77.5 232v398h34v-396q0 -137 68 -210.5t184 -73.5t182.5 72t66.5 210v398h34v-395q0 -153 -77 -234.5t-207 -81.5zM289 760l97 107l37 -19l-105 -88h-29zM418 760l96 107l38 -19l-106 -88h-28z" />
    <glyph glyph-name="uhungarumlaut" unicode="&#x171;" horiz-adv-x="610" 
d="M291 -12q-98 0 -153 60.5t-55 160.5v295h32v-290q0 -90 47 -143t133 -53q80 0 135 58t55 144v284h32v-504h-32v120q-20 -53 -70 -92.5t-124 -39.5zM334 592l88 121l36 -18l-99 -103h-25zM219 592l88 121l36 -18l-99 -103h-25z" />
    <glyph glyph-name="Uogonek" unicode="&#x172;" horiz-adv-x="755" 
d="M433 -137v-24q-54 1 -85.5 22t-31.5 54q0 39 41 75q-121 6 -192.5 86.5t-71.5 225.5v398h34v-396q0 -137 68 -210.5t184 -73.5t182.5 72t66.5 210v398h34v-395q0 -149 -72.5 -230t-196.5 -86q-43 -36 -43 -70q0 -50 83 -56z" />
    <glyph glyph-name="uogonek" unicode="&#x173;" horiz-adv-x="610" 
d="M291 -12q-98 0 -153 60.5t-55 160.5v295h32v-290q0 -90 47 -143t133 -53q80 0 135 58t55 144v284h32v-504h-5q-57 -41 -57 -81q0 -50 83 -56v-24q-54 1 -85.5 22t-31.5 54q0 48 64 92v113q-20 -53 -70 -92.5t-124 -39.5z" />
    <glyph glyph-name="Wcircumflex" unicode="&#x174;" horiz-adv-x="1051" 
d="M288 -5l-242 705h37l220 -651l210 653h26l211 -654l220 652h35l-242 -705h-28l-210 643l-209 -643h-28zM406 765l104 101h30l104 -101h-34l-85 69l-86 -69h-33z" />
    <glyph glyph-name="wcircumflex" unicode="&#x175;" horiz-adv-x="827" 
d="M298 595l103 116h24l103 -116h-29l-86 79l-86 -79h-29zM228 -4l-180 508h36l158 -462l159 465h26l159 -465l159 462h33l-179 -508h-27l-158 460l-159 -460h-27z" />
    <glyph glyph-name="Ycircumflex" unicode="&#x176;" horiz-adv-x="681" 
d="M324 0v287l-298 413h42l274 -383l272 383h41l-297 -413v-287h-34zM221 760l104 101h30l104 -101h-34l-85 69l-86 -69h-33z" />
    <glyph glyph-name="ycircumflex" unicode="&#x177;" horiz-adv-x="577" 
d="M299 35l203 469h34l-227 -517q-38 -87 -74.5 -118.5t-89.5 -31.5q-49 0 -97 25l13 27q41 -22 85 -22q43 0 72.5 28t64.5 106l-242 503h36zM175 592l103 116h24l103 -116h-29l-86 79l-86 -79h-29z" />
    <glyph glyph-name="Ydieresis" unicode="&#x178;" horiz-adv-x="681" 
d="M324 0v287l-298 413h42l274 -383l272 383h41l-297 -413v-287h-34zM391 771v61h52v-61h-52zM237 771v61h52v-61h-52z" />
    <glyph glyph-name="Zacute" unicode="&#x179;" horiz-adv-x="682" 
d="M67 0v19l496 650h-479v31h527v-19l-496 -650h494v-31h-542zM331 765l97 107l37 -19l-105 -88h-29z" />
    <glyph glyph-name="zacute" unicode="&#x17a;" horiz-adv-x="514" 
d="M248 595l87 121l39 -19l-101 -102h-25zM45 0v18l376 457h-363v29h410v-18l-375 -457h377v-29h-425z" />
    <glyph glyph-name="Zdotaccent" unicode="&#x17b;" horiz-adv-x="682" 
d="M321 776v61h54v-61h-54zM67 0v19l496 650h-479v31h527v-19l-496 -650h494v-31h-542z" />
    <glyph glyph-name="zdotaccent" unicode="&#x17c;" horiz-adv-x="514" 
d="M45 0v18l376 457h-363v29h410v-18l-375 -457h377v-29h-425zM238 606v63h50v-63h-50z" />
    <glyph glyph-name="Zcaron" unicode="&#x17d;" horiz-adv-x="682" 
d="M467 866l-104 -101h-30l-104 101h34l85 -69l86 69h33zM67 0v19l496 650h-479v31h527v-19l-496 -650h494v-31h-542z" />
    <glyph glyph-name="zcaron" unicode="&#x17e;" horiz-adv-x="514" 
d="M378 711l-103 -116h-24l-103 116h29l86 -79l86 79h29zM45 0v18l376 457h-363v29h410v-18l-375 -457h377v-29h-425z" />
    <glyph glyph-name="florin" unicode="&#x192;" horiz-adv-x="481" 
d="M73 -4q-26 0 -43 4v29q17 -4 41 -4q36 0 59 23.5t34 79.5l49 266h-110v30h116l26 140q26 140 138 140q29 0 64 -9v-30q-34 9 -61 9q-44 0 -70 -26.5t-38 -90.5l-25 -133h156v-30h-162l-50 -271q-14 -70 -44 -98.5t-80 -28.5z" />
    <glyph glyph-name="Aringacute" unicode="&#x1fa;" horiz-adv-x="776" 
d="M40 0l317 673q-32 8 -52 32t-20 55q0 39 30 65t73 26t73 -26t30 -65q0 -31 -20 -55t-52 -32l317 -673h-37l-95 204h-433l-96 -204h-35zM186 235h403l-202 430zM388 692q32 0 54 19t22 49t-22 49.5t-54 19.5t-54.5 -19.5t-22.5 -49.5t22.5 -49t54.5 -19zM369 882l91 93
l36 -18l-97 -75h-30z" />
    <glyph glyph-name="aringacute" unicode="&#x1fb;" horiz-adv-x="569" 
d="M269 821l89 103l37 -18l-99 -85h-27zM242 -12q-78 0 -134.5 40.5t-56.5 113.5v2q0 77 62 119.5t161 42.5q94 0 180 -28v34q0 84 -47 127t-133 43q-80 0 -164 -42l-12 28q91 44 178 44q105 0 160 -55q50 -52 50 -143v-314h-32v105q-22 -48 -77 -82.5t-135 -34.5zM244 18
q90 0 150.5 49.5t60.5 118.5v62q-86 28 -182 28q-85 0 -136.5 -34.5t-51.5 -95.5v-2q0 -59 46 -92.5t113 -33.5zM285 594q-41 0 -70.5 28t-29.5 67q0 40 29.5 68t70.5 28t70.5 -28t29.5 -68q0 -39 -29.5 -67t-70.5 -28zM285 615q31 0 53 21.5t22 52.5t-22 53t-53 22t-53 -22
t-22 -53t22 -52.5t53 -21.5z" />
    <glyph glyph-name="AEacute" unicode="&#x1fc;" horiz-adv-x="1026" 
d="M600 765l97 107l37 -19l-105 -88h-29zM8 0l439 700h511v-31h-443v-301h400v-31h-400v-306h448v-31h-482v204h-309l-127 -204h-37zM191 235h290v434h-18z" />
    <glyph glyph-name="aeacute" unicode="&#x1fd;" horiz-adv-x="970" 
d="M247 -12q-83 0 -139.5 40.5t-56.5 113.5v2q0 77 61.5 119.5t159.5 42.5q91 0 174 -27l3 35q-1 83 -47.5 125.5t-130.5 42.5q-77 0 -161 -42l-12 28q91 44 175 44q170 0 198 -141q28 66 85 105.5t129 39.5q108 0 170 -78.5t62 -186.5q0 -7 -1 -11h-437q4 -99 66.5 -160.5
t148.5 -61.5q113 0 183 88l23 -20q-78 -98 -207 -98q-66 0 -122 32t-89 88q-36 -50 -97.5 -85t-137.5 -35zM249 18q69 0 127.5 34t91.5 85q-22 51 -23 112q-81 27 -174 27q-84 0 -135 -34.5t-51 -95.5v-2q0 -60 45.5 -93t118.5 -33zM479 269h403q-5 89 -57 153t-141 64
q-86 0 -143 -61.5t-62 -155.5zM468 595l87 121l39 -19l-101 -102h-25z" />
    <glyph glyph-name="Oslashacute" unicode="&#x1fe;" horiz-adv-x="845" 
d="M733 705h40l-96 -103q95 -103 95 -251v-2q0 -148 -98 -254.5t-252 -106.5q-138 0 -234 88l-76 -81h-40l95 102q-94 105 -94 252v2q0 148 98 254.5t252 106.5q139 0 234 -89zM107 351q0 -136 83 -230l445 478q-88 83 -213 83q-138 0 -226.5 -96.5t-88.5 -233.5v-1zM424 18
q137 0 225.5 96.5t88.5 233.5v1q0 136 -83 230l-446 -478q88 -83 215 -83zM406 772l97 107l37 -19l-105 -88h-29z" />
    <glyph glyph-name="oslashacute" unicode="&#x1ff;" horiz-adv-x="636" 
d="M545 510h38l-73 -76q69 -77 69 -180v-2q0 -109 -73.5 -186.5t-187.5 -77.5q-100 0 -173 63l-53 -56h-38l72 75q-69 75 -69 180v2q0 108 74 186t188 78q98 0 172 -64zM91 252q0 -94 57 -159l321 336q-64 57 -152 57q-98 0 -162 -68t-64 -165v-1zM319 18q99 0 162.5 68
t63.5 165v1q0 93 -58 159l-320 -337q62 -56 152 -56zM305 595l87 121l39 -19l-101 -102h-25z" />
    <glyph glyph-name="Scommaaccent" unicode="&#x218;" horiz-adv-x="641" 
d="M295 -202l-7 17q38 13 38 51h-23v57h50v-37q0 -40 -13.5 -60t-44.5 -28zM338 -10q-158 0 -279 112l23 25q112 -106 258 -106q90 0 145 43.5t55 110.5v2q0 63 -46 99t-170 62q-128 25 -183 69t-55 120v2q0 76 64.5 128.5t162.5 52.5q134 0 238 -82l-21 -27q-98 78 -219 78
q-84 0 -137.5 -43.5t-53.5 -103.5v-2q0 -63 46.5 -99t170.5 -62q129 -26 183 -70t54 -119v-2q0 -82 -65 -135t-171 -53z" />
    <glyph glyph-name="scommaaccent" unicode="&#x219;" horiz-adv-x="493" 
d="M215 -202l-7 17q38 13 38 51h-23v57h50v-37q0 -40 -13.5 -60t-44.5 -28zM251 -9q-54 0 -109 20t-96 54l19 25q88 -69 188 -69q61 0 102.5 29.5t41.5 75.5v2q0 21 -9.5 37.5t-21.5 27t-35.5 21t-40 15.5t-46.5 13q-35 10 -55 16.5t-46 19t-40 25t-24 32.5t-10 44v2
q0 57 48 94.5t124 37.5q95 0 177 -56l-18 -27q-75 53 -160 53q-61 0 -99.5 -28t-38.5 -71v-2q0 -18 8.5 -33.5t21 -25.5t35 -20t40.5 -16t48 -14q86 -23 130.5 -53t44.5 -89v-2q0 -61 -51 -99.5t-128 -38.5z" />
    <glyph glyph-name="schwa" unicode="&#x259;" horiz-adv-x="583" 
d="M275 516q105 0 177.5 -73t72.5 -191v-2q0 -112 -68.5 -187t-172.5 -75q-108 0 -169.5 78t-61.5 187v11h437q-4 100 -66.5 161t-149.5 61q-109 0 -181 -93l-24 19q80 104 206 104zM490 235h-402q4 -89 56.5 -153t141.5 -64q85 0 142 61.5t62 155.5z" />
    <glyph glyph-name="circumflex" unicode="&#x2c6;" horiz-adv-x="500" 
d="M135 595l103 116h24l103 -116h-29l-86 79l-86 -79h-29z" />
    <glyph glyph-name="caron" unicode="&#x2c7;" horiz-adv-x="500" 
d="M365 711l-103 -116h-24l-103 116h29l86 -79l86 79h29z" />
    <glyph glyph-name="breve" unicode="&#x2d8;" horiz-adv-x="500" 
d="M250 594q-55 0 -89 28.5t-39 75.5h25q8 -31 34.5 -52.5t68.5 -21.5q43 0 69 21t34 53h25q-5 -47 -39 -75.5t-89 -28.5z" />
    <glyph glyph-name="dotaccent" unicode="&#x2d9;" horiz-adv-x="500" 
d="M225 606v63h50v-63h-50z" />
    <glyph glyph-name="ring" unicode="&#x2da;" horiz-adv-x="500" 
d="M250 594q-41 0 -70.5 28t-29.5 67q0 40 29.5 68t70.5 28t70.5 -28t29.5 -68q0 -39 -29.5 -67t-70.5 -28zM250 615q31 0 53 21.5t22 52.5t-22 53t-53 22t-53 -22t-22 -53t22 -52.5t53 -21.5z" />
    <glyph glyph-name="ogonek" unicode="&#x2db;" horiz-adv-x="500" 
d="M323 -137v-24q-54 1 -85.5 22t-31.5 54q0 50 74 99l19 -13q-59 -43 -59 -82q0 -50 83 -56z" />
    <glyph glyph-name="tilde" unicode="&#x2dc;" horiz-adv-x="500" 
d="M314 602q-19 0 -69 26q-42 25 -60 25q-19 0 -31 -12.5t-23 -45.5l-22 5q20 86 77 86q17 0 69 -27q46 -25 60 -25q18 0 30.5 13t23.5 45l22 -5q-20 -85 -77 -85z" />
    <glyph glyph-name="hungarumlaut" unicode="&#x2dd;" horiz-adv-x="500" 
d="M242 595l88 121l36 -18l-99 -103h-25zM127 595l88 121l36 -18l-99 -103h-25z" />
    <glyph glyph-name="commaaccent" unicode="&#x326;" horiz-adv-x="500" 
d="M217 -199l-7 17q38 13 38 51h-23v57h50v-37q0 -40 -13.5 -60t-44.5 -28z" />
    <glyph glyph-name="baht" unicode="&#xe3f;" horiz-adv-x="625" 
d="M353 779h30l-15 -83q79 -11 124 -55.5t45 -113.5q0 -130 -132 -170q72 -15 117 -58.5t45 -112.5q0 -88 -65.5 -137t-180.5 -49h-76l-20 -118h-30l20 118h-113v700h214q15 0 23 -1zM328 339h-24l-54 -309h71q101 0 157 40.5t56 113.5q0 74 -56 114.5t-150 40.5zM135 368
h146l53 301q-6 1 -19 1h-180v-302zM504 524q0 59 -37 96t-106 47l-52 -299h10q84 0 134.5 41t50.5 115zM135 30h88l53 309h-141v-309z" />
    <glyph glyph-name="Wgrave" unicode="&#x1e80;" horiz-adv-x="1051" 
d="M541 765h-29l-105 88l37 19zM288 -5l-242 705h37l220 -651l210 653h26l211 -654l220 652h35l-242 -705h-28l-210 643l-209 -643h-28z" />
    <glyph glyph-name="wgrave" unicode="&#x1e81;" horiz-adv-x="827" 
d="M228 -4l-180 508h36l158 -462l159 465h26l159 -465l159 462h33l-179 -508h-27l-158 460l-159 -460h-27zM403 595l-101 102l39 19l87 -121h-25z" />
    <glyph glyph-name="Wacute" unicode="&#x1e82;" horiz-adv-x="1051" 
d="M508 765l97 107l37 -19l-105 -88h-29zM288 -5l-242 705h37l220 -651l210 653h26l211 -654l220 652h35l-242 -705h-28l-210 643l-209 -643h-28z" />
    <glyph glyph-name="wacute" unicode="&#x1e83;" horiz-adv-x="827" 
d="M397 595l87 121l39 -19l-101 -102h-25zM228 -4l-180 508h36l158 -462l159 465h26l159 -465l159 462h33l-179 -508h-27l-158 460l-159 -460h-27z" />
    <glyph glyph-name="Wdieresis" unicode="&#x1e84;" horiz-adv-x="1051" 
d="M576 776v61h52v-61h-52zM422 776v61h52v-61h-52zM288 -5l-242 705h37l220 -651l210 653h26l211 -654l220 652h35l-242 -705h-28l-210 643l-209 -643h-28z" />
    <glyph glyph-name="wdieresis" unicode="&#x1e85;" horiz-adv-x="827" 
d="M460 606v62h49v-62h-49zM317 606v62h49v-62h-49zM228 -4l-180 508h36l158 -462l159 465h26l159 -465l159 462h33l-179 -508h-27l-158 460l-159 -460h-27z" />
    <glyph glyph-name="Ygrave" unicode="&#x1ef2;" horiz-adv-x="681" 
d="M324 0v287l-298 413h42l274 -383l272 383h41l-297 -413v-287h-34zM356 760h-29l-105 88l37 19z" />
    <glyph glyph-name="ygrave" unicode="&#x1ef3;" horiz-adv-x="577" 
d="M299 35l203 469h34l-227 -517q-38 -87 -74.5 -118.5t-89.5 -31.5q-49 0 -97 25l13 27q41 -22 85 -22q43 0 72.5 28t64.5 106l-242 503h36zM281 592l-101 102l39 19l87 -121h-25z" />
    <glyph glyph-name="enspace" unicode="&#x2002;" horiz-adv-x="500" 
 />
    <glyph glyph-name="emspace" unicode="&#x2003;" horiz-adv-x="1000" 
 />
    <glyph glyph-name="threeperemspace" unicode="&#x2004;" horiz-adv-x="333" 
 />
    <glyph glyph-name="fourperemspace" unicode="&#x2005;" horiz-adv-x="250" 
 />
    <glyph glyph-name="figurespace" unicode="&#x2007;" horiz-adv-x="600" 
 />
    <glyph glyph-name="thinspace" unicode="&#x2009;" horiz-adv-x="133" 
 />
    <glyph glyph-name="hairspace" unicode="&#x200a;" horiz-adv-x="75" 
 />
    <glyph glyph-name="endash" unicode="&#x2013;" horiz-adv-x="534" 
d="M70 281v32h394v-32h-394z" />
    <glyph glyph-name="emdash" unicode="&#x2014;" horiz-adv-x="896" 
d="M70 281v32h756v-32h-756z" />
    <glyph glyph-name="quoteleft" unicode="&#x2018;" horiz-adv-x="190" 
d="M69 547v57q0 44 12.5 66t43.5 34l9 -18q-41 -20 -38 -74h21v-65h-48z" />
    <glyph glyph-name="quoteright" unicode="&#x2019;" horiz-adv-x="190" 
d="M66 543l-9 18q41 20 38 74h-22v65h48v-57q0 -43 -12.5 -65.5t-42.5 -34.5z" />
    <glyph glyph-name="quotesinglbase" unicode="&#x201a;" horiz-adv-x="190" 
d="M64 -91l-9 17q41 20 38 74h-22v65h48v-57q0 -44 -12.5 -66t-42.5 -33z" />
    <glyph glyph-name="quotedblleft" unicode="&#x201c;" horiz-adv-x="316" 
d="M195 547v57q0 44 12.5 66t43.5 34l9 -18q-41 -20 -38 -74h21v-65h-48zM69 547v57q0 44 12.5 66t43.5 34l9 -18q-41 -20 -38 -74h21v-65h-48z" />
    <glyph glyph-name="quotedblright" unicode="&#x201d;" horiz-adv-x="316" 
d="M192 543l-9 18q41 20 38 74h-22v65h48v-57q0 -43 -12.5 -65.5t-42.5 -34.5zM66 543l-9 18q41 20 38 74h-22v65h48v-57q0 -43 -12.5 -65.5t-42.5 -34.5z" />
    <glyph glyph-name="quotedblbase" unicode="&#x201e;" horiz-adv-x="316" 
d="M190 -91l-9 17q41 20 38 74h-22v65h48v-57q0 -44 -12.5 -66t-42.5 -33zM64 -91l-9 17q41 20 38 74h-22v65h48v-57q0 -44 -12.5 -66t-42.5 -33z" />
    <glyph glyph-name="dagger" unicode="&#x2020;" horiz-adv-x="397" 
d="M182 238l6 293l-125 -7v31l125 -6l-6 151h33l-6 -151l125 6v-31l-125 7l5 -293h-32z" />
    <glyph glyph-name="daggerdbl" unicode="&#x2021;" horiz-adv-x="405" 
d="M186 0l6 151l-125 -6v31l125 -7l-5 181l5 181l-125 -7v31l125 -6l-6 151h33l-6 -151l125 6v-31l-125 7l5 -181l-5 -181l125 7v-31l-125 6l6 -151h-33z" />
    <glyph glyph-name="bullet" unicode="&#x2022;" horiz-adv-x="446" 
d="M224 240q-47 0 -80.5 33t-33.5 79v2q0 45 34 78t80 33q45 0 79 -33t34 -78v-2q0 -46 -33 -79t-80 -33z" />
    <glyph glyph-name="ellipsis" unicode="&#x2026;" horiz-adv-x="562" 
d="M444 0v64h47v-64h-47zM258 0v64h47v-64h-47zM71 0v64h47v-64h-47z" />
    <glyph glyph-name="perthousand" unicode="&#x2030;" horiz-adv-x="1179" 
d="M210 377q53 0 86.5 43.5t33.5 105.5v2q0 62 -34.5 106.5t-87.5 44.5t-86.5 -44t-33.5 -105v-2q0 -63 35 -107t87 -44zM209 349q-68 0 -111.5 52.5t-43.5 125.5v2q0 73 43.5 126t111.5 53t111.5 -53t43.5 -125v-2q0 -73 -43.5 -126t-111.5 -53zM677 700l-264 -360
l-250 -340h-34l262 356l252 344h34zM598 21q53 0 86.5 43.5t33.5 105.5v2q0 62 -34.5 106.5t-87.5 44.5t-86.5 -44t-33.5 -105v-2q0 -63 35 -107t87 -44zM597 -8q-68 0 -111.5 52.5t-43.5 125.5v2q0 73 43.5 126t111.5 53t111.5 -53t43.5 -125v-2q0 -73 -43.5 -126
t-111.5 -53zM971 21q53 0 86.5 43.5t33.5 105.5v2q0 62 -34.5 106.5t-87.5 44.5t-86.5 -44t-33.5 -105v-2q0 -63 35 -107t87 -44zM970 -8q-68 0 -111.5 52.5t-43.5 125.5v2q0 73 43.5 126t111.5 53t111.5 -53t43.5 -125v-2q0 -73 -43.5 -126t-111.5 -53z" />
    <glyph glyph-name="guilsinglleft" unicode="&#x2039;" horiz-adv-x="300" 
d="M216 45l-169 207v6l169 207l22 -16l-153 -194l153 -194z" />
    <glyph glyph-name="guilsinglright" unicode="&#x203a;" horiz-adv-x="300" 
d="M83 45l-22 16l153 194l-153 194l22 16l170 -207v-6z" />
    <glyph glyph-name="fraction" unicode="&#x2044;" horiz-adv-x="100" 
d="M-205 0l245 355l232 345h33l-245 -355l-232 -345h-33z" />
    <glyph glyph-name="zero.sup" unicode="&#x2070;" 
d="M199 416q-63 0 -100.5 56.5t-37.5 144.5v2q0 88 38 145.5t101 57.5t101 -56.5t38 -144.5v-2q0 -88 -38.5 -145.5t-101.5 -57.5zM199 797q-50 0 -80 -50t-30 -127v-2q0 -77 30.5 -127t80.5 -50t80.5 50t30.5 127v2q0 76 -31 126.5t-81 50.5z" />
    <glyph glyph-name="four.sup" unicode="&#x2074;" 
d="M290 520v-96h-26v96h-200l-8 22l202 276h32v-274h60v-24h-60zM264 544v240l-176 -240h176z" />
    <glyph glyph-name="five.sup" unicode="&#x2075;" 
d="M195 416q-76 0 -136 65l20 18q53 -58 117 -58q50 0 81.5 28.5t31.5 70.5q0 40 -30 65t-78 25q-50 0 -100 -24l-18 12l13 194h225v-27h-201l-11 -149q46 20 94 20q58 0 96.5 -32t38.5 -82q0 -55 -41.5 -90.5t-101.5 -35.5z" />
    <glyph glyph-name="six.sup" unicode="&#x2076;" 
d="M197 417q-56 0 -93 37q-46 46 -46 149v2q0 96 43 156.5t112 60.5q60 0 106 -46l-19 -20q-39 41 -89 41q-54 0 -90 -54t-35 -144q40 68 118 68q53 0 89.5 -33t36.5 -88q0 -54 -38.5 -91.5t-94.5 -37.5zM197 442q45 0 75 29t30 73q0 45 -27.5 71.5t-72.5 26.5t-76.5 -29
t-31.5 -71q0 -43 30.5 -71.5t72.5 -28.5z" />
    <glyph glyph-name="seven.sup" unicode="&#x2077;" 
d="M153 424h-32l183 361h-234v27h265v-21z" />
    <glyph glyph-name="eight.sup" unicode="&#x2078;" 
d="M200 416q-60 0 -100 30.5t-40 78.5q0 69 83 100q-70 28 -70 92q0 46 38.5 75.5t90.5 29.5q51 0 89 -30t38 -75q0 -65 -70 -92q83 -28 83 -98q0 -49 -40.5 -80t-101.5 -31zM201 797q-44 0 -72.5 -22t-28.5 -58q0 -35 28.5 -58.5t72.5 -23.5t72.5 23.5t28.5 58.5
q0 36 -28.5 58t-72.5 22zM201 612q-51 0 -82 -25t-31 -62t31 -60.5t82 -23.5q50 0 81.5 23.5t31.5 60.5t-31.5 62t-81.5 25z" />
    <glyph glyph-name="nine.sup" unicode="&#x2079;" 
d="M203 821q56 0 93 -37q46 -46 46 -149v-2q0 -97 -43 -157t-112 -60q-61 0 -111 48l19 21q42 -44 94 -44q54 0 90 52.5t35 143.5q-40 -70 -118 -70q-53 0 -89.5 33t-36.5 90q0 55 38.5 93t94.5 38zM198 592q45 0 76.5 29.5t31.5 72.5t-31 72.5t-72 29.5q-45 0 -75 -29.5
t-30 -74.5q0 -46 27.5 -73t72.5 -27z" />
    <glyph glyph-name="zero.inf" unicode="&#x2080;" 
d="M199 -142q-63 0 -100.5 56.5t-37.5 144.5v2q0 88 38 145.5t101 57.5t101 -56.5t38 -144.5v-2q0 -88 -38.5 -145.5t-101.5 -57.5zM199 239q-50 0 -80 -50t-30 -127v-2q0 -77 30.5 -127t80.5 -50t80.5 50t30.5 127v2q0 76 -31 126.5t-81 50.5z" />
    <glyph glyph-name="one.inf" unicode="&#x2081;" horiz-adv-x="325" 
d="M200 -132h-28v363l-98 -35l-7 24l110 41h23v-393z" />
    <glyph glyph-name="two.inf" unicode="&#x2082;" 
d="M61 -132v24l158 138q45 39 63.5 66t18.5 59q0 36 -26.5 60t-66.5 24q-68 0 -118 -79l-22 13q59 91 142 91q50 0 84.5 -31t34.5 -76q0 -41 -20.5 -70t-71.5 -74l-138 -119h235v-26h-273z" />
    <glyph glyph-name="three.inf" unicode="&#x2083;" 
d="M197 -142q-86 0 -142 69l21 18q50 -62 122 -62q42 0 71.5 25t29.5 64q0 41 -34 64t-91 23h-25l-6 17l144 152h-214v26h250v-24l-140 -147q67 -2 106 -30.5t39 -79.5q0 -49 -38.5 -82t-92.5 -33z" />
    <glyph glyph-name="four.inf" unicode="&#x2084;" 
d="M290 -38v-96h-26v96h-200l-8 22l202 276h32v-274h60v-24h-60zM264 -14v240l-176 -240h176z" />
    <glyph glyph-name="five.inf" unicode="&#x2085;" 
d="M195 -142q-76 0 -136 65l20 18q53 -58 117 -58q50 0 81.5 28.5t31.5 70.5q0 40 -30 65t-78 25q-50 0 -100 -24l-18 12l13 194h225v-27h-201l-11 -149q46 20 94 20q58 0 96.5 -32t38.5 -82q0 -55 -41.5 -90.5t-101.5 -35.5z" />
    <glyph glyph-name="six.inf" unicode="&#x2086;" 
d="M197 -141q-56 0 -93 37q-46 46 -46 149v2q0 96 43 156.5t112 60.5q60 0 106 -46l-19 -20q-39 41 -89 41q-54 0 -90 -54t-35 -144q40 68 118 68q53 0 89.5 -33t36.5 -88q0 -54 -38.5 -91.5t-94.5 -37.5zM197 -116q45 0 75 29t30 73q0 45 -27.5 71.5t-72.5 26.5t-76.5 -29
t-31.5 -71q0 -43 30.5 -71.5t72.5 -28.5z" />
    <glyph glyph-name="seven.inf" unicode="&#x2087;" 
d="M153 -134h-32l183 361h-234v27h265v-21z" />
    <glyph glyph-name="eight.inf" unicode="&#x2088;" 
d="M200 -142q-60 0 -100 30.5t-40 78.5q0 69 83 100q-70 28 -70 92q0 46 38.5 75.5t90.5 29.5q51 0 89 -30t38 -75q0 -65 -70 -92q83 -28 83 -98q0 -49 -40.5 -80t-101.5 -31zM201 239q-44 0 -72.5 -22t-28.5 -58q0 -35 28.5 -58.5t72.5 -23.5t72.5 23.5t28.5 58.5
q0 36 -28.5 58t-72.5 22zM201 54q-51 0 -82 -25t-31 -62t31 -60.5t82 -23.5q50 0 81.5 23.5t31.5 60.5t-31.5 62t-81.5 25z" />
    <glyph glyph-name="nine.inf" unicode="&#x2089;" 
d="M203 263q56 0 93 -37q46 -46 46 -149v-2q0 -97 -43 -157t-112 -60q-61 0 -111 48l19 21q42 -44 94 -44q54 0 90 52.5t35 143.5q-40 -70 -118 -70q-53 0 -89.5 33t-36.5 90q0 55 38.5 93t94.5 38zM198 34q45 0 76.5 29.5t31.5 72.5t-31 72.5t-72 29.5q-45 0 -75 -29.5
t-30 -74.5q0 -46 27.5 -73t72.5 -27z" />
    <glyph glyph-name="colonmonetary" unicode="&#x20a1;" horiz-adv-x="596" 
d="M471 779h29l-19 -111q28 -16 58 -41l-19 -24q-26 22 -46 35l-107 -611q84 7 159 75l19 -22q-87 -77 -182 -82l-21 -116h-29l20 116q-57 2 -105 24l-25 -140h-29l27 155q-67 41 -105.5 120.5t-38.5 184.5v6q0 148 73 245t188 108l14 78h29l-13 -76q59 -1 106 -22zM90 343
q0 -93 32 -163.5t87 -110.5l105 603q-98 -13 -161 -100t-63 -223v-6zM233 54q50 -28 107 -28l108 626q-47 22 -103 22h-4z" />
    <glyph glyph-name="naira" unicode="&#x20a6;" horiz-adv-x="816" 
d="M768 237h-101v-237h-41l-160 237h-286v-237h-31v237h-100v29h100v172h-100v28h100v234h44l156 -234h287v234h31v-234h101v-28h-101v-172h101v-29zM367 438l116 -172h153v172h-269zM180 438v-172h269l-117 172h-152zM180 664v-199h134zM502 238l134 -199v199h-134z" />
    <glyph glyph-name="rupee" unicode="&#x20a8;" horiz-adv-x="1064" 
d="M87 0v700h218q114 0 180 -55.5t66 -146.5v-2q0 -80 -52.5 -133t-140.5 -67l212 -296h-41l-208 291h-201v-291h-33zM120 320h176q105 0 163.5 48.5t58.5 126.5v2q0 80 -57.5 126.5t-157.5 46.5h-183v-350zM837 -10q-107 0 -191 70l20 25q79 -65 172 -65q57 0 96 29t39 76
q0 41 -29.5 66t-107.5 49q-91 28 -129.5 60t-38.5 84v1q0 58 45 94t112 36q89 0 166 -55l-17 -27q-73 52 -150 52q-54 0 -89 -28t-35 -70v-1q0 -40 32 -66t114 -50q87 -26 123 -58t36 -85q0 -62 -48.5 -99.5t-119.5 -37.5z" />
    <glyph glyph-name="won" unicode="&#x20a9;" horiz-adv-x="1096" 
d="M990 700l-66 -234h127v-28h-135l-49 -172h184v-28h-192l-68 -242h-38l-75 242h-261l-73 -242h-38l-69 242h-192v28h184l-48 172h-136v28h128l-66 234h36l64 -234h250l72 236h40l72 -236h251l64 234h34zM479 438l-52 -172h242l-52 172h-138zM214 438l47 -172h137l51 172
h-235zM649 438l51 -172h137l46 172h-234zM771 30h3l56 208h-121zM325 31h3l61 207h-120zM547 661l-59 -195h121l-59 195h-3z" />
    <glyph glyph-name="sheqel" unicode="&#x20aa;" horiz-adv-x="616" 
d="M243 132l-33 201h30l32 -192q9 -57 38 -84.5t84 -27.5h107v475h31v-504h-139q-129 0 -150 132zM362 360q0 61 -29.5 88t-92.5 27h-125v-475h-31v504h157q77 0 114 -33.5t37 -108.5v-175h-30v173z" />
    <glyph glyph-name="Euro" unicode="&#x20ac;" horiz-adv-x="720" 
d="M658 571l-27 -18q-41 64 -90.5 96.5t-122.5 32.5q-85 0 -148.5 -63t-88.5 -163h301v-32h-307q-6 -36 -6 -74t4 -65h309v-31h-304q22 -107 89 -171.5t160 -64.5q123 0 207 136l26 -16q-94 -150 -234 -150q-106 0 -182 72.5t-99 193.5h-92v31h88q-4 27 -4 64q0 44 5 75h-89
v32h96q25 113 98 184.5t172 71.5q150 0 239 -141z" />
    <glyph glyph-name="peso" unicode="&#x20b1;" horiz-adv-x="706" 
d="M139 0v467h-100v29h100v204h175q119 0 189.5 -54.5t75.5 -149.5h98v-29h-98q-4 -98 -79 -153t-194 -55h-133v-259h-34zM308 290q106 0 170 47.5t68 130.5h-373v-178h135zM173 669v-174h373q-4 82 -66.5 128t-168.5 46h-138z" />
    <glyph glyph-name="published" unicode="&#x2117;" horiz-adv-x="830" 
d="M415 -12q-151 0 -256.5 105.5t-105.5 255.5v2q0 149 106 255t256 106q151 0 256.5 -105.5t105.5 -255.5v-2q0 -149 -106 -255t-256 -106zM415 9q142 0 240.5 100t98.5 240v2q0 141 -98.5 240.5t-240.5 99.5t-240.5 -100t-98.5 -240v-2q0 -141 98.5 -240.5t240.5 -99.5z
M304 169v366h135q64 0 102 -29.5t38 -82.5v-2q0 -56 -41 -86.5t-104 -30.5h-101v-135h-29zM333 331h101q53 0 84.5 23.5t31.5 64.5v2q0 42 -30 64.5t-83 22.5h-104v-177z" />
    <glyph glyph-name="servicemark" unicode="&#x2120;" horiz-adv-x="692" 
d="M348 392v308h23l126 -185l126 185h22v-308h-23v266l-125 -181h-2l-124 181v-266h-23zM160 387q-71 0 -126 49l15 17q48 -45 112 -45q36 0 58.5 18t22.5 45q0 26 -19 40.5t-71 25.5q-56 11 -81 31t-25 55t29.5 58.5t74.5 23.5q61 0 107 -37l-14 -17q-42 33 -94 33
q-35 0 -57 -17.5t-22 -42.5q0 -26 19.5 -40.5t72.5 -25.5q57 -13 80.5 -32.5t23.5 -53.5q0 -37 -30.5 -61t-75.5 -24z" />
    <glyph glyph-name="trademark" unicode="&#x2122;" horiz-adv-x="670" 
d="M325 392v308h23l126 -185l126 185h23v-308h-23v266l-125 -181h-3l-124 181v-266h-23zM127 392v285h-106v23h235v-23h-106v-285h-23z" />
    <glyph glyph-name="onethird" unicode="&#x2153;" horiz-adv-x="825" 
d="M632 -10q-86 0 -142 69l21 18q50 -62 122 -62q42 0 71.5 25t29.5 64q0 41 -34 64t-91 23h-25l-6 17l144 152h-214v26h250v-24l-140 -147q67 -2 106 -30.5t39 -79.5q0 -49 -38.5 -82t-92.5 -33zM195 314h-28v363l-98 -35l-7 24l110 41h23v-393zM120 0l245 355l232 345h33
l-245 -355l-232 -345h-33z" />
    <glyph glyph-name="twothirds" unicode="&#x2154;" horiz-adv-x="900" 
d="M707 -10q-86 0 -142 69l21 18q50 -62 122 -62q42 0 71.5 25t29.5 64q0 41 -34 64t-91 23h-25l-6 17l144 152h-214v26h250v-24l-140 -147q67 -2 106 -30.5t39 -79.5q0 -49 -38.5 -82t-92.5 -33zM51 314v24l158 138q45 39 63.5 66t18.5 59q0 36 -26.5 60t-66.5 24
q-68 0 -118 -79l-22 13q59 91 142 91q50 0 84.5 -31t34.5 -76q0 -41 -20.5 -70t-71.5 -74l-138 -119h235v-26h-273zM195 0l245 355l232 345h33l-245 -355l-232 -345h-33z" />
    <glyph glyph-name="onefifth" unicode="&#x2155;" horiz-adv-x="825" 
d="M630 -10q-76 0 -136 65l20 18q53 -58 117 -58q50 0 81.5 28.5t31.5 70.5q0 40 -30 65t-78 25q-50 0 -100 -24l-18 12l13 194h225v-27h-201l-11 -149q46 20 94 20q58 0 96.5 -32t38.5 -82q0 -55 -41.5 -90.5t-101.5 -35.5zM195 314h-28v363l-98 -35l-7 24l110 41h23v-393z
M128 0l245 355l232 345h33l-245 -355l-232 -345h-33z" />
    <glyph glyph-name="twofifths" unicode="&#x2156;" horiz-adv-x="900" 
d="M705 -10q-76 0 -136 65l20 18q53 -58 117 -58q50 0 81.5 28.5t31.5 70.5q0 40 -30 65t-78 25q-50 0 -100 -24l-18 12l13 194h225v-27h-201l-11 -149q46 20 94 20q58 0 96.5 -32t38.5 -82q0 -55 -41.5 -90.5t-101.5 -35.5zM205 0l245 355l232 345h33l-245 -355l-232 -345
h-33zM51 314v24l158 138q45 39 63.5 66t18.5 59q0 36 -26.5 60t-66.5 24q-68 0 -118 -79l-22 13q59 91 142 91q50 0 84.5 -31t34.5 -76q0 -41 -20.5 -70t-71.5 -74l-138 -119h235v-26h-273z" />
    <glyph glyph-name="threefifths" unicode="&#x2157;" horiz-adv-x="900" 
d="M705 -10q-76 0 -136 65l20 18q53 -58 117 -58q50 0 81.5 28.5t31.5 70.5q0 40 -30 65t-78 25q-50 0 -100 -24l-18 12l13 194h225v-27h-201l-11 -149q46 20 94 20q58 0 96.5 -32t38.5 -82q0 -55 -41.5 -90.5t-101.5 -35.5zM190 0l245 355l232 345h33l-245 -355l-232 -345
h-33zM187 304q-86 0 -142 69l21 18q50 -62 122 -62q42 0 71.5 25t29.5 64q0 41 -34 64t-91 23h-25l-6 17l144 152h-214v26h250v-24l-140 -147q67 -2 106 -30.5t39 -79.5q0 -49 -38.5 -82t-92.5 -33z" />
    <glyph glyph-name="fourfifths" unicode="&#x2158;" horiz-adv-x="900" 
d="M280 408v-96h-26v96h-200l-8 22l202 276h32v-274h60v-24h-60zM705 -10q-76 0 -136 65l20 18q53 -58 117 -58q50 0 81.5 28.5t31.5 70.5q0 40 -30 65t-78 25q-50 0 -100 -24l-18 12l13 194h225v-27h-201l-11 -149q46 20 94 20q58 0 96.5 -32t38.5 -82q0 -55 -41.5 -90.5
t-101.5 -35.5zM254 432v240l-176 -240h176zM205 0l245 355l232 345h33l-245 -355l-232 -345h-33z" />
    <glyph glyph-name="onesixth" unicode="&#x2159;" horiz-adv-x="825" 
d="M632 -9q-56 0 -93 37q-46 46 -46 149v2q0 96 43 156.5t112 60.5q60 0 106 -46l-19 -20q-39 41 -89 41q-54 0 -90 -54t-35 -144q40 68 118 68q53 0 89.5 -33t36.5 -88q0 -54 -38.5 -91.5t-94.5 -37.5zM632 16q45 0 75 29t30 73q0 45 -27.5 71.5t-72.5 26.5t-76.5 -29
t-31.5 -71q0 -43 30.5 -71.5t72.5 -28.5zM135 0l245 355l232 345h33l-245 -355l-232 -345h-33zM195 314h-28v363l-98 -35l-7 24l110 41h23v-393z" />
    <glyph glyph-name="fivesixths" unicode="&#x215a;" horiz-adv-x="900" 
d="M707 -9q-56 0 -93 37q-46 46 -46 149v2q0 96 43 156.5t112 60.5q60 0 106 -46l-19 -20q-39 41 -89 41q-54 0 -90 -54t-35 -144q40 68 118 68q53 0 89.5 -33t36.5 -88q0 -54 -38.5 -91.5t-94.5 -37.5zM707 16q45 0 75 29t30 73q0 45 -27.5 71.5t-72.5 26.5t-76.5 -29
t-31.5 -71q0 -43 30.5 -71.5t72.5 -28.5zM185 304q-76 0 -136 65l20 18q53 -58 117 -58q50 0 81.5 28.5t31.5 70.5q0 40 -30 65t-78 25q-50 0 -100 -24l-18 12l13 194h225v-27h-201l-11 -149q46 20 94 20q58 0 96.5 -32t38.5 -82q0 -55 -41.5 -90.5t-101.5 -35.5zM195 0
l245 355l232 345h33l-245 -355l-232 -345h-33z" />
    <glyph glyph-name="oneeighth" unicode="&#x215b;" horiz-adv-x="825" 
d="M635 -10q-60 0 -100 30.5t-40 78.5q0 69 83 100q-70 28 -70 92q0 46 38.5 75.5t90.5 29.5q51 0 89 -30t38 -75q0 -65 -70 -92q83 -28 83 -98q0 -49 -40.5 -80t-101.5 -31zM636 371q-44 0 -72.5 -22t-28.5 -58q0 -35 28.5 -58.5t72.5 -23.5t72.5 23.5t28.5 58.5
q0 36 -28.5 58t-72.5 22zM636 186q-51 0 -82 -25t-31 -62t31 -60.5t82 -23.5q50 0 81.5 23.5t31.5 60.5t-31.5 62t-81.5 25zM195 314h-28v363l-98 -35l-7 24l110 41h23v-393zM133 0l245 355l232 345h33l-245 -355l-232 -345h-33z" />
    <glyph glyph-name="threeeighths" unicode="&#x215c;" horiz-adv-x="900" 
d="M710 -10q-60 0 -100 30.5t-40 78.5q0 69 83 100q-70 28 -70 92q0 46 38.5 75.5t90.5 29.5q51 0 89 -30t38 -75q0 -65 -70 -92q83 -28 83 -98q0 -49 -40.5 -80t-101.5 -31zM711 371q-44 0 -72.5 -22t-28.5 -58q0 -35 28.5 -58.5t72.5 -23.5t72.5 23.5t28.5 58.5
q0 36 -28.5 58t-72.5 22zM711 186q-51 0 -82 -25t-31 -62t31 -60.5t82 -23.5q50 0 81.5 23.5t31.5 60.5t-31.5 62t-81.5 25zM195 0l245 355l232 345h33l-245 -355l-232 -345h-33zM187 304q-86 0 -142 69l21 18q50 -62 122 -62q42 0 71.5 25t29.5 64q0 41 -34 64t-91 23h-25
l-6 17l144 152h-214v26h250v-24l-140 -147q67 -2 106 -30.5t39 -79.5q0 -49 -38.5 -82t-92.5 -33z" />
    <glyph glyph-name="fiveeighths" unicode="&#x215d;" horiz-adv-x="900" 
d="M710 -10q-60 0 -100 30.5t-40 78.5q0 69 83 100q-70 28 -70 92q0 46 38.5 75.5t90.5 29.5q51 0 89 -30t38 -75q0 -65 -70 -92q83 -28 83 -98q0 -49 -40.5 -80t-101.5 -31zM711 371q-44 0 -72.5 -22t-28.5 -58q0 -35 28.5 -58.5t72.5 -23.5t72.5 23.5t28.5 58.5
q0 36 -28.5 58t-72.5 22zM711 186q-51 0 -82 -25t-31 -62t31 -60.5t82 -23.5q50 0 81.5 23.5t31.5 60.5t-31.5 62t-81.5 25zM195 0l245 355l232 345h33l-245 -355l-232 -345h-33zM185 304q-76 0 -136 65l20 18q53 -58 117 -58q50 0 81.5 28.5t31.5 70.5q0 40 -30 65t-78 25
q-50 0 -100 -24l-18 12l13 194h225v-27h-201l-11 -149q46 20 94 20q58 0 96.5 -32t38.5 -82q0 -55 -41.5 -90.5t-101.5 -35.5z" />
    <glyph glyph-name="seveneighths" unicode="&#x215e;" horiz-adv-x="900" 
d="M710 -10q-60 0 -100 30.5t-40 78.5q0 69 83 100q-70 28 -70 92q0 46 38.5 75.5t90.5 29.5q51 0 89 -30t38 -75q0 -65 -70 -92q83 -28 83 -98q0 -49 -40.5 -80t-101.5 -31zM711 371q-44 0 -72.5 -22t-28.5 -58q0 -35 28.5 -58.5t72.5 -23.5t72.5 23.5t28.5 58.5
q0 36 -28.5 58t-72.5 22zM711 186q-51 0 -82 -25t-31 -62t31 -60.5t82 -23.5q50 0 81.5 23.5t31.5 60.5t-31.5 62t-81.5 25zM153 312h-32l183 361h-234v27h265v-21zM165 0l245 355l232 345h33l-245 -355l-232 -345h-33z" />
    <glyph glyph-name="minus" unicode="&#x2212;" horiz-adv-x="608" 
d="M538 337h-468v30h468v-30z" />
    <glyph glyph-name="Q.alt" horiz-adv-x="845" 
d="M754 -101l-150 138q-82 -49 -182 -49q-154 0 -251.5 106.5t-97.5 254.5v2q0 148 98 254.5t252 106.5t251.5 -106.5t97.5 -254.5v-2q0 -88 -36.5 -165t-102.5 -127l166 -156v-2h-45zM424 19q136 0 224.5 96.5t88.5 232.5v2q0 136 -89 233.5t-226 97.5t-225.5 -96.5
t-88.5 -232.5v-2q0 -136 89.5 -233.5t226.5 -97.5z" />
    <glyph glyph-name="a.alt" horiz-adv-x="657" 
d="M309 -12q-104 0 -176.5 74.5t-72.5 188.5v2q0 113 72.5 188t176.5 75q80 0 138 -41.5t85 -107.5v137h32v-504h-32v139q-28 -67 -86 -109t-137 -42zM312 19q93 0 157.5 67.5t64.5 164.5v2q0 97 -65 164.5t-157 67.5q-95 0 -156.5 -65t-61.5 -166v-2q0 -100 62 -166.5
t156 -66.5z" />
    <glyph glyph-name="aacute.alt" horiz-adv-x="657" 
d="M315 595l87 121l39 -19l-101 -102h-25zM309 -12q-104 0 -176.5 74.5t-72.5 188.5v2q0 113 72.5 188t176.5 75q80 0 138 -41.5t85 -107.5v137h32v-504h-32v139q-28 -67 -86 -109t-137 -42zM312 19q93 0 157.5 67.5t64.5 164.5v2q0 97 -65 164.5t-157 67.5
q-95 0 -156.5 -65t-61.5 -166v-2q0 -100 62 -166.5t156 -66.5z" />
    <glyph glyph-name="abreve.alt" horiz-adv-x="657" 
d="M309 -12q-104 0 -176.5 74.5t-72.5 188.5v2q0 113 72.5 188t176.5 75q80 0 138 -41.5t85 -107.5v137h32v-504h-32v139q-28 -67 -86 -109t-137 -42zM312 19q93 0 157.5 67.5t64.5 164.5v2q0 97 -65 164.5t-157 67.5q-95 0 -156.5 -65t-61.5 -166v-2q0 -100 62 -166.5
t156 -66.5zM330 594q-55 0 -89 28.5t-39 75.5h25q8 -31 34.5 -52.5t68.5 -21.5q43 0 69 21t34 53h25q-5 -47 -39 -75.5t-89 -28.5z" />
    <glyph glyph-name="acircumflex.alt" horiz-adv-x="657" 
d="M215 595l103 116h24l103 -116h-29l-86 79l-86 -79h-29zM309 -12q-104 0 -176.5 74.5t-72.5 188.5v2q0 113 72.5 188t176.5 75q80 0 138 -41.5t85 -107.5v137h32v-504h-32v139q-28 -67 -86 -109t-137 -42zM312 19q93 0 157.5 67.5t64.5 164.5v2q0 97 -65 164.5t-157 67.5
q-95 0 -156.5 -65t-61.5 -166v-2q0 -100 62 -166.5t156 -66.5z" />
    <glyph glyph-name="adieresis.alt" horiz-adv-x="657" 
d="M377 606v62h49v-62h-49zM234 606v62h49v-62h-49zM309 -12q-104 0 -176.5 74.5t-72.5 188.5v2q0 113 72.5 188t176.5 75q80 0 138 -41.5t85 -107.5v137h32v-504h-32v139q-28 -67 -86 -109t-137 -42zM312 19q93 0 157.5 67.5t64.5 164.5v2q0 97 -65 164.5t-157 67.5
q-95 0 -156.5 -65t-61.5 -166v-2q0 -100 62 -166.5t156 -66.5z" />
    <glyph glyph-name="agrave.alt" horiz-adv-x="657" 
d="M309 -12q-104 0 -176.5 74.5t-72.5 188.5v2q0 113 72.5 188t176.5 75q80 0 138 -41.5t85 -107.5v137h32v-504h-32v139q-28 -67 -86 -109t-137 -42zM312 19q93 0 157.5 67.5t64.5 164.5v2q0 97 -65 164.5t-157 67.5q-95 0 -156.5 -65t-61.5 -166v-2q0 -100 62 -166.5
t156 -66.5zM321 595l-101 102l39 19l87 -121h-25z" />
    <glyph glyph-name="amacron.alt" horiz-adv-x="657" 
d="M309 -12q-104 0 -176.5 74.5t-72.5 188.5v2q0 113 72.5 188t176.5 75q80 0 138 -41.5t85 -107.5v137h32v-504h-32v139q-28 -67 -86 -109t-137 -42zM312 19q93 0 157.5 67.5t64.5 164.5v2q0 97 -65 164.5t-157 67.5q-95 0 -156.5 -65t-61.5 -166v-2q0 -100 62 -166.5
t156 -66.5zM193 621v30h274v-30h-274z" />
    <glyph glyph-name="aogonek.alt" horiz-adv-x="657" 
d="M585 -137v-24q-54 1 -85.5 22t-31.5 54q0 48 64 92v132q-28 -67 -86 -109t-137 -42q-104 0 -176.5 74.5t-72.5 188.5v2q0 113 72.5 188t176.5 75q80 0 138 -41.5t85 -107.5v137h32v-504h-5q-57 -41 -57 -81q0 -50 83 -56zM312 19q93 0 157.5 67.5t64.5 164.5v2
q0 97 -65 164.5t-157 67.5q-95 0 -156.5 -65t-61.5 -166v-2q0 -100 62 -166.5t156 -66.5z" />
    <glyph glyph-name="aring.alt" horiz-adv-x="657" 
d="M330 594q-41 0 -70.5 28t-29.5 67q0 40 29.5 68t70.5 28t70.5 -28t29.5 -68q0 -39 -29.5 -67t-70.5 -28zM330 615q31 0 53 21.5t22 52.5t-22 53t-53 22t-53 -22t-22 -53t22 -52.5t53 -21.5zM309 -12q-104 0 -176.5 74.5t-72.5 188.5v2q0 113 72.5 188t176.5 75
q80 0 138 -41.5t85 -107.5v137h32v-504h-32v139q-28 -67 -86 -109t-137 -42zM312 19q93 0 157.5 67.5t64.5 164.5v2q0 97 -65 164.5t-157 67.5q-95 0 -156.5 -65t-61.5 -166v-2q0 -100 62 -166.5t156 -66.5z" />
    <glyph glyph-name="aring.alt2" horiz-adv-x="569" 
d="M242 -12q-78 0 -134.5 40.5t-56.5 113.5v2q0 77 62 119.5t161 42.5q94 0 180 -28v34q0 84 -47 127t-133 43q-80 0 -164 -42l-12 28q70 33 131 41q-43 28 -43 77q0 40 29.5 68t70.5 28t70.5 -28t29.5 -68q0 -53 -48 -80q59 -12 98 -49q50 -52 50 -143v-314h-32v105
q-22 -48 -77 -82.5t-135 -34.5zM244 18q90 0 150.5 49.5t60.5 118.5v62q-86 28 -182 28q-85 0 -136.5 -34.5t-51.5 -95.5v-2q0 -59 46 -92.5t113 -33.5zM210 586q0 -31 22 -52.5t54 -21.5q31 0 53 21.5t22 52.5t-22 52.5t-53 21.5q-32 0 -54 -21.5t-22 -52.5z" />
    <glyph glyph-name="aringacute.alt" horiz-adv-x="657" 
d="M314 821l89 103l37 -18l-99 -85h-27zM330 594q-41 0 -70.5 28t-29.5 67q0 40 29.5 68t70.5 28t70.5 -28t29.5 -68q0 -39 -29.5 -67t-70.5 -28zM330 615q31 0 53 21.5t22 52.5t-22 53t-53 22t-53 -22t-22 -53t22 -52.5t53 -21.5zM309 -12q-104 0 -176.5 74.5t-72.5 188.5
v2q0 113 72.5 188t176.5 75q80 0 138 -41.5t85 -107.5v137h32v-504h-32v139q-28 -67 -86 -109t-137 -42zM312 19q93 0 157.5 67.5t64.5 164.5v2q0 97 -65 164.5t-157 67.5q-95 0 -156.5 -65t-61.5 -166v-2q0 -100 62 -166.5t156 -66.5z" />
    <glyph glyph-name="aringacute.alt2" horiz-adv-x="569" 
d="M269 722l89 103l37 -19l-99 -84h-27zM242 -12q-78 0 -134.5 40.5t-56.5 113.5v2q0 77 62 119.5t161 42.5q94 0 180 -28v34q0 84 -47 127t-133 43q-80 0 -164 -42l-12 28q70 33 131 41q-43 28 -43 77q0 40 29.5 68t70.5 28t70.5 -28t29.5 -68q0 -53 -48 -80q59 -12 98 -49
q50 -52 50 -143v-314h-32v105q-22 -48 -77 -82.5t-135 -34.5zM244 18q90 0 150.5 49.5t60.5 118.5v62q-86 28 -182 28q-85 0 -136.5 -34.5t-51.5 -95.5v-2q0 -59 46 -92.5t113 -33.5zM210 586q0 -31 22 -52.5t54 -21.5q31 0 53 21.5t22 52.5t-22 52.5t-53 21.5
q-32 0 -54 -21.5t-22 -52.5z" />
    <glyph glyph-name="atilde.alt" horiz-adv-x="657" 
d="M309 -12q-104 0 -176.5 74.5t-72.5 188.5v2q0 113 72.5 188t176.5 75q80 0 138 -41.5t85 -107.5v137h32v-504h-32v139q-28 -67 -86 -109t-137 -42zM312 19q93 0 157.5 67.5t64.5 164.5v2q0 97 -65 164.5t-157 67.5q-95 0 -156.5 -65t-61.5 -166v-2q0 -100 62 -166.5
t156 -66.5zM397 602q-19 0 -69 26q-42 25 -60 25q-19 0 -31 -12.5t-23 -45.5l-22 5q20 86 77 86q17 0 69 -27q46 -25 60 -25q18 0 30.5 13t23.5 45l22 -5q-20 -85 -77 -85z" />
    <glyph glyph-name="three.alt" horiz-adv-x="576" 
d="M290 -12q-80 0 -145.5 34.5t-109.5 93.5l28 21q85 -118 228 -118q84 0 140.5 45.5t56.5 118.5v2q0 76 -58.5 114.5t-160.5 38.5h-75v31h76q88 0 144 42.5t56 114.5v2q0 65 -53 109t-134 44q-126 0 -207 -116l-26 16q87 131 234 131q96 0 158.5 -53t62.5 -130v-2
q0 -69 -43 -113t-107 -57q75 -15 121.5 -57t46.5 -114v-2q0 -84 -67.5 -140t-165.5 -56z" />
    <glyph glyph-name="registered.alt" horiz-adv-x="830" 
d="M415 -12q-151 0 -256.5 105.5t-105.5 255.5v2q0 149 106 255t256 106q151 0 256.5 -105.5t105.5 -255.5v-2q0 -149 -106 -255t-256 -106zM415 9q142 0 240.5 100t98.5 240v2q0 141 -98.5 240.5t-240.5 99.5t-240.5 -100t-98.5 -240v-2q0 -141 98.5 -240.5t240.5 -99.5z
M281 177v366h157q71 0 105 -36q28 -26 28 -67v-2q0 -44 -28.5 -71t-78.5 -34l121 -156h-37l-118 152h-119v-152h-30zM311 356h123q49 0 78 21.5t29 58.5v2q0 36 -28 57t-77 21h-125v-160z" />
    <glyph glyph-name="R_p" horiz-adv-x="1174" 
d="M677 -160v666h32v-133q26 64 76 104t118 40q92 0 155.5 -74t63.5 -188v-4q0 -113 -64 -188t-155 -75q-68 0 -118 40.5t-76 103.5v-292h-32zM87 0v700h218q114 0 180 -55.5t66 -146.5v-2q0 -80 -52.5 -133t-140.5 -67l212 -296h-41l-208 291h-201v-291h-33zM900 18
q82 0 135.5 65t53.5 167v4q0 101 -54 167.5t-135 66.5q-80 0 -136.5 -67.5t-56.5 -165.5v-4q0 -98 56.5 -165.5t136.5 -67.5zM120 320h176q105 0 163.5 48.5t58.5 126.5v2q0 80 -57.5 126.5t-157.5 46.5h-183v-350z" />
    <glyph glyph-name="onehalf.alt" horiz-adv-x="900" 
d="M344 314h-273v24h126v339l-114 -40l-7 25l127 45h23v-369h118v-24zM571 0v24l158 138q45 39 63.5 66t18.5 59q0 36 -26.5 60t-66.5 24q-68 0 -118 -79l-22 13q59 91 142 91q50 0 84.5 -31t34.5 -76q0 -41 -20.5 -70t-71.5 -74l-138 -119h235v-26h-273zM215 0l245 355
l232 345h33l-245 -355l-232 -345h-33z" />
    <glyph glyph-name="onethird.alt" horiz-adv-x="900" 
d="M344 314h-273v24h126v339l-114 -40l-7 25l127 45h23v-369h118v-24zM707 -10q-86 0 -142 69l21 18q50 -62 122 -62q42 0 71.5 25t29.5 64q0 41 -34 64t-91 23h-25l-6 17l144 152h-214v26h250v-24l-140 -147q67 -2 106 -30.5t39 -79.5q0 -49 -38.5 -82t-92.5 -33zM205 0
l245 355l232 345h33l-245 -355l-232 -345h-33z" />
    <glyph glyph-name="onequarter.alt" horiz-adv-x="900" 
d="M790 94v-96h-26v96h-200l-8 22l202 276h32v-274h60v-24h-60zM764 118v240l-176 -240h176zM220 0l245 355l232 345h33l-245 -355l-232 -345h-33zM344 314h-273v24h126v339l-114 -40l-7 25l127 45h23v-369h118v-24z" />
    <glyph glyph-name="onefifth.alt" horiz-adv-x="900" 
d="M344 314h-273v24h126v339l-114 -40l-7 25l127 45h23v-369h118v-24zM705 -10q-76 0 -136 65l20 18q53 -58 117 -58q50 0 81.5 28.5t31.5 70.5q0 40 -30 65t-78 25q-50 0 -100 -24l-18 12l13 194h225v-27h-201l-11 -149q46 20 94 20q58 0 96.5 -32t38.5 -82
q0 -55 -41.5 -90.5t-101.5 -35.5zM210 0l245 355l232 345h33l-245 -355l-232 -345h-33z" />
    <glyph glyph-name="onesixth.alt" horiz-adv-x="900" 
d="M707 -9q-56 0 -93 37q-46 46 -46 149v2q0 96 43 156.5t112 60.5q60 0 106 -46l-19 -20q-39 41 -89 41q-54 0 -90 -54t-35 -144q40 68 118 68q53 0 89.5 -33t36.5 -88q0 -54 -38.5 -91.5t-94.5 -37.5zM707 16q45 0 75 29t30 73q0 45 -27.5 71.5t-72.5 26.5t-76.5 -29
t-31.5 -71q0 -43 30.5 -71.5t72.5 -28.5zM210 0l245 355l232 345h33l-245 -355l-232 -345h-33zM344 314h-273v24h126v339l-114 -40l-7 25l127 45h23v-369h118v-24z" />
    <glyph glyph-name="oneeighth.alt" horiz-adv-x="900" 
d="M344 314h-273v24h126v339l-114 -40l-7 25l127 45h23v-369h118v-24zM710 -10q-60 0 -100 30.5t-40 78.5q0 69 83 100q-70 28 -70 92q0 46 38.5 75.5t90.5 29.5q51 0 89 -30t38 -75q0 -65 -70 -92q83 -28 83 -98q0 -49 -40.5 -80t-101.5 -31zM711 371q-44 0 -72.5 -22
t-28.5 -58q0 -35 28.5 -58.5t72.5 -23.5t72.5 23.5t28.5 58.5q0 36 -28.5 58t-72.5 22zM711 186q-51 0 -82 -25t-31 -62t31 -60.5t82 -23.5q50 0 81.5 23.5t31.5 60.5t-31.5 62t-81.5 25zM210 0l245 355l232 345h33l-245 -355l-232 -345h-33z" />
    <glyph glyph-name="one.sup_alt" 
d="M349 426h-273v24h126v339l-114 -40l-7 25l127 45h23v-369h118v-24z" />
    <glyph glyph-name="one.inf_alt" 
d="M349 -132h-273v24h126v339l-114 -40l-7 25l127 45h23v-369h118v-24z" />
    <glyph glyph-name="zero.tab" horiz-adv-x="600" 
d="M300 -12q-108 0 -175 99t-67 261v3q0 162 67 261.5t175 99.5t175 -99t67 -261v-3q0 -162 -67 -261.5t-175 -99.5zM299 682q-93 0 -150 -90.5t-57 -238.5v-4q0 -148 58 -239.5t151 -91.5t150 90.5t57 238.5v4q0 148 -58 239.5t-151 91.5z" />
    <glyph glyph-name="one.tab" horiz-adv-x="600" 
d="M557 0h-462v31h225v638l-205 -77l-10 28l222 85h26v-674h204v-31z" />
    <glyph glyph-name="two.tab" horiz-adv-x="600" 
d="M530 0h-475v25l292 269q76 70 108 121.5t32 103.5q0 69 -49 115t-126 46q-130 0 -212 -142l-28 16q90 156 242 156q93 0 150.5 -54t57.5 -134v-2q0 -62 -34.5 -116.5t-118.5 -131.5l-262 -240h423v-32z" />
    <glyph glyph-name="three.tab" horiz-adv-x="600" 
d="M292 -12q-156 0 -245 127l27 21q82 -117 220 -117q80 0 138 49.5t58 123.5v2q0 77 -61.5 117.5t-169.5 40.5h-43l-12 22l268 294h-398v32h441v-28l-264 -290q125 2 199 -46t74 -141v-2q0 -88 -68.5 -146.5t-163.5 -58.5z" />
    <glyph glyph-name="three.tab_alt" horiz-adv-x="600" 
d="M301 -12q-160 0 -253 128l27 19q85 -117 227 -117q84 0 141.5 45.5t57.5 120.5q0 76 -59.5 115t-160.5 39h-75v31h80q89 0 145.5 42.5t56.5 115.5q0 68 -51.5 111.5t-137.5 43.5q-129 0 -211 -117l-26 16q87 131 239 131q98 0 159.5 -52.5t61.5 -131.5q0 -68 -44 -113
t-107 -59q73 -16 118.5 -58t45.5 -113q0 -86 -68 -141.5t-166 -55.5z" />
    <glyph glyph-name="four.tab" horiz-adv-x="600" 
d="M419 0v177h-372l-10 27l375 501h38v-498h117v-30h-117v-177h-31zM419 207v455l-343 -455h343z" />
    <glyph glyph-name="five.tab" horiz-adv-x="600" 
d="M294 -12q-70 0 -133 31.5t-104 80.5l26 22q91 -104 213 -104q91 0 150 54t59 136v2q0 80 -55.5 128.5t-144.5 48.5q-85 0 -180 -49l-26 15l25 347h388v-32h-358l-22 -294q90 44 175 44q102 0 167.5 -56.5t65.5 -149.5v-2q0 -97 -70 -159.5t-176 -62.5z" />
    <glyph glyph-name="six.tab" horiz-adv-x="600" 
d="M317 435q97 0 162 -60.5t65 -156.5v-2q0 -95 -67 -161.5t-164 -66.5q-99 0 -168 69q-82 82 -82 270v3q0 168 73 275t197 107q100 0 184 -78l-22 -24q-74 72 -164 72q-109 -1 -172 -99t-63 -251q0 -34 1 -58q20 73 79.5 117t140.5 44zM312 18q85 0 141.5 58t56.5 140
q0 83 -54.5 136t-139.5 53q-89 0 -146 -56t-57 -137q0 -80 58.5 -137t140.5 -57z" />
    <glyph glyph-name="seven.tab" horiz-adv-x="600" 
d="M499 668h-426v32h464v-23l-334 -677h-37z" />
    <glyph glyph-name="eight.tab" horiz-adv-x="600" 
d="M300 -11q-110 0 -178 55t-68 136v3q0 64 46 112t118 66q-64 21 -103 64t-39 103v3q0 77 65.5 128.5t158.5 51.5t158.5 -51.5t65.5 -128.5v-3q0 -60 -39 -103.5t-103 -63.5q72 -18 118 -66.5t46 -111.5v-3q0 -81 -68 -136t-178 -55zM300 375q80 0 134.5 42.5t54.5 110.5v2
q0 64 -55 107.5t-135 43.5t-134 -42.5t-54 -107.5v-2q0 -68 54.5 -111t134.5 -43zM301 19q95 0 152.5 46t57.5 114v2q0 71 -61 117.5t-151 46.5q-89 0 -149.5 -46t-60.5 -117v-2q0 -67 58 -114t154 -47z" />
    <glyph glyph-name="nine.tab" horiz-adv-x="600" 
d="M282 259q-97 0 -161.5 61.5t-64.5 158.5v2q0 96 67 163.5t164 67.5q99 0 168 -69q82 -82 82 -270v-3q0 -168 -73 -275t-197 -107q-101 0 -191 83l22 24q82 -77 171 -77q108 0 171.5 99.5t63.5 251.5q0 3 -0.5 21t-0.5 31q-21 -73 -81 -117.5t-140 -44.5zM288 682
q-85 0 -141.5 -59t-56.5 -142q0 -85 54.5 -138.5t139.5 -53.5q89 0 146 57t57 139t-58 139.5t-141 57.5z" />
    <glyph glyph-name="period.tab" horiz-adv-x="300" 
d="M121 0v72h58v-72h-58z" />
    <glyph glyph-name="comma.tab" horiz-adv-x="300" 
d="M114 -91l-9 17q44 21 43 74h-26v72h56v-64q0 -42 -16 -64.5t-48 -34.5z" />
    <glyph glyph-name="colon.tab" horiz-adv-x="300" 
d="M121 432v72h58v-72h-58zM121 0v72h58v-72h-58z" />
    <glyph glyph-name="semicolon.tab" horiz-adv-x="300" 
d="M121 432v72h58v-72h-58zM114 -91l-9 17q44 21 43 74h-26v72h56v-64q0 -42 -16 -64.5t-48 -34.5z" />
    <glyph glyph-name="twodotleader.tab" horiz-adv-x="600" 
d="M424 0v67h52v-67h-52zM124 0v67h52v-67h-52z" />
    <glyph glyph-name="periodcentered.tab" horiz-adv-x="300" 
d="M121 262v72h58v-72h-58z" />
    <glyph glyph-name="slash.tab" horiz-adv-x="600" 
d="M565 798l-511 -926h-34l511 926h34z" />
    <glyph glyph-name="bar.tab" horiz-adv-x="300" 
d="M135 -128v926h30v-926h-30z" />
    <glyph glyph-name="underscore.tab" horiz-adv-x="600" 
d="M-2 -153v29h604v-29h-604z" />
    <glyph glyph-name="dollar.tab" horiz-adv-x="600" 
d="M371 779l-10 -85q84 -16 155 -75l-20 -26q-69 56 -141 71l-36 -297q110 -25 163.5 -68.5t53.5 -118.5q0 -77 -61 -128.5t-159 -51.5q-28 0 -41 2l-14 -120h-31l15 124q-108 21 -189 99l22 24q78 -76 173 -95l37 309q-106 24 -155 68t-49 114q0 77 58 126t150 49
q14 0 38 -2l10 81h31zM504 178q0 64 -45 100.5t-144 58.5l-37 -307q13 -2 40 -2q82 0 134 43t52 107zM117 526q0 -57 40.5 -94t134.5 -59l36 296q-24 2 -37 2q-79 0 -126.5 -40t-47.5 -105z" />
    <glyph glyph-name="sterling.tab" horiz-adv-x="600" 
d="M151 345v120q0 120 65 187q58 58 147 58q115 0 190 -103l-26 -21q-67 94 -165 94q-73 0 -122 -49q-55 -53 -55 -164v-122h292v-30h-292v-285h365v-30h-486v17l87 13v285h-87v30h87z" />
    <glyph glyph-name="Euro.tab" horiz-adv-x="600" 
d="M44 430v29h88q20 111 82 181t153 70q105 0 177 -98l-24 -20q-65 89 -154 89q-78 0 -130 -61t-72 -161h260v-29h-265q-5 -42 -5 -76v-6q0 -42 4 -71h266v-29h-262q18 -103 70 -166t130 -63q91 0 161 94l23 -18q-77 -105 -185 -105q-90 0 -151.5 70t-79.5 188h-86v29h81
q-3 22 -3 69v8q0 45 5 76h-83z" />
    <glyph glyph-name="yen.tab" horiz-adv-x="600" 
d="M90 148h194v134h-194v29h182l-248 389h40l237 -380l237 380h38l-249 -389h183v-29h-194v-134h194v-29h-194v-119h-32v119h-194v29z" />
    <glyph glyph-name="cent.tab" horiz-adv-x="600" 
d="M400 706l-19 -93q82 -16 150 -89l-22 -22q-67 69 -135 83l-91 -462q18 -3 38 -3q111 0 192 92l21 -19q-88 -102 -214 -102q-22 0 -43 3l-19 -100h-32l21 107q-81 24 -131 93.5t-50 157.5v2q0 107 76 186t184 79q4 0 12.5 -0.5t12.5 -0.5l18 88h31zM99 353
q0 -78 43 -139.5t113 -83.5l91 459q-7 1 -21 1q-96 0 -161 -69.5t-65 -165.5v-2z" />
    <glyph glyph-name="numbersign.tab" horiz-adv-x="600" 
d="M41 225h105l41 255h-112v29h116l31 191h29l-31 -191h209l30 191h30l-31 -191h101v-29h-105l-41 -255h112v-29h-116l-31 -196h-30l31 196h-208l-31 -196h-30l31 196h-100v29zM216 480l-41 -255h209l41 255h-209z" />
    <glyph glyph-name="paragraph.tab" horiz-adv-x="600" 
d="M436 0v277h-81q-117 0 -192.5 56.5t-75.5 154.5t72.5 155t189.5 57h121v-700h-34z" />
    <glyph glyph-name="section.tab" horiz-adv-x="600" 
d="M307 -10q-61 0 -116.5 21t-92.5 54l22 26q33 -30 84 -50.5t105 -20.5q63 0 100 25t37 65q0 43 -45 70.5t-141 47.5q-106 24 -154 55.5t-48 81.5q0 48 46.5 79.5t126.5 30.5q-111 38 -111 114q0 53 48 87t125 34q61 0 116.5 -21t92.5 -54l-22 -26q-33 30 -84 50.5
t-105 20.5q-63 0 -100 -25t-37 -65q0 -43 45 -70.5t141 -47.5q106 -24 154 -55.5t48 -81.5q0 -48 -46.5 -79.5t-126.5 -30.5q111 -38 111 -114q0 -53 -48 -87t-125 -34zM231 453q-62 1 -100.5 -24t-38.5 -62t37 -61.5t123 -43.5q65 -15 117 -15q62 -1 100.5 24t38.5 62
t-37 61.5t-123 43.5q-65 15 -117 15z" />
    <glyph glyph-name="degree.tab" horiz-adv-x="600" 
d="M299 313q-82 0 -141 58t-59 139t60 139t142 58t141 -58t59 -139t-60 -139t-142 -58zM300 342q70 0 119.5 49t49.5 119t-49 119t-120 49q-70 0 -119.5 -49t-49.5 -119t49 -119t120 -49z" />
    <glyph glyph-name="percent.tab" horiz-adv-x="600" 
d="M447 328q51 0 83 -47t32 -118v-4q0 -71 -32 -119t-83 -48t-82.5 47.5t-31.5 117.5v4q0 71 31.5 119t82.5 48zM153 708q51 0 82.5 -47.5t31.5 -117.5v-4q0 -71 -31.5 -119t-82.5 -48t-83 47t-32 118v4q0 71 32 119t83 48zM447 301q-38 0 -61.5 -40t-23.5 -97v-8
q0 -57 23.5 -97.5t61.5 -40.5q39 0 62.5 40.5t23.5 97.5v8q0 57 -23.5 97t-62.5 40zM153 682q-39 0 -62.5 -40.5t-23.5 -97.5v-8q0 -57 23.5 -97t62.5 -40q38 0 61.5 40t23.5 97v8q0 57 -23.5 97.5t-61.5 40.5zM477 700h30l-196 -356l-188 -344h-30l197 356z" />
    <glyph glyph-name="quotedbl.tab" horiz-adv-x="600" 
d="M356 446l65 254h42v-3l-87 -251h-20zM146 446l65 254h42v-3l-87 -251h-20z" />
    <glyph glyph-name="quotesingle.tab" horiz-adv-x="300" 
d="M101 446l65 254h42v-3l-87 -251h-20z" />
    <glyph glyph-name="plus.tab" horiz-adv-x="600" 
d="M530 337h-214v-219h-32v219h-214v30h214v219h32v-219h214v-30z" />
    <glyph glyph-name="minus.tab" horiz-adv-x="600" 
d="M530 337h-460v30h460v-30z" />
    <glyph glyph-name="divide.tab" horiz-adv-x="600" 
d="M273 522v67h54v-67h-54zM530 337h-460v30h460v-30zM273 115v67h54v-67h-54z" />
    <glyph glyph-name="equal.tab" horiz-adv-x="600" 
d="M510 451h-420v32h420v-32zM510 222h-420v31h420v-31z" />
    <glyph glyph-name="multiply.tab" horiz-adv-x="600" 
d="M487 142l-188 189l-188 -189l-21 21l189 188l-189 188l23 23l188 -189l188 189l21 -21l-189 -188l189 -188z" />
    <glyph glyph-name="less.tab" horiz-adv-x="600" 
d="M512 106l-451 235v22l451 235v-34l-410 -212l410 -212v-34z" />
    <glyph glyph-name="greater.tab" horiz-adv-x="600" 
d="M539 341l-451 -235v34l410 212l-410 212v34l451 -235v-22z" />
    <glyph glyph-name="plusminus.tab" horiz-adv-x="600" 
d="M530 367h-214v-209h-32v209h-214v30h214v209h32v-209h214v-30zM530 0h-460v30h460v-30z" />
    <glyph glyph-name="space.tab" horiz-adv-x="300" 
 />
    <glyph glyph-name="NUL" horiz-adv-x="0" 
 />
    <glyph glyph-name="hfjslug" horiz-adv-x="694" 
d="M644 -200h-208l-8 14h-163l-8 -14h-207v303q14 0 23 9.5t9 22.5t-9.5 22.5t-22.5 9.5v554h100l30 79h334l29 -79h101v-921zM400 563v-172h15v78h38v14h-38v66h43v14h-58zM184 563v-172h15v79h47v-79h15v172h-15v-79h-47v79h-15zM460 394q10 -4 21 -4q31 0 31 36v137h-16
v-137q0 -22 -16 -22q-8 0 -20 5v-15zM371 465l-13 3q-4 -18 -8 -30h-1l-16 31q23 21 23 42q0 31 -27 31q-12 0 -20 -9t-8 -22t14 -39q-23 -18 -23 -47q0 -16 8 -26.5t21 -10.5q19 0 29 24h1l12 -24l12 6l-17 32q6 14 13 39zM523 323v-46h8v12l8 8l15 -20h10l-20 26l18 20
h-10l-20 -24h-1v24h-8zM488 292l10 -15h9l-12 17q10 4 10 14q0 15 -17 15h-20v-46h8v15h12zM426 276q10 0 17 7t7 17q0 9 -7 16.5t-17 7.5t-17 -7.5t-7 -16.5q0 -10 7 -17t17 -7zM370 301l-13 22h-9l18 -29v-17h8v17l18 29h-9zM193 323v-46h34v7h-26v13h23v7h-23v12h26v7
h-34zM132 323v-46h8v32l25 -32h7v46h-8v-32l-25 32h-7zM241 323l14 -47h8l11 34h1l11 -34h8l14 47h-8l-10 -35h-1l-11 35h-7l-11 -35h-1l-10 35h-8zM327 479q-12 22 -12 32q0 19 14 19q13 0 13 -19q0 -15 -15 -32zM342 423q-8 -21 -20 -21q-16 0 -16 25q0 19 16 35zM487 299
h-11v17h11q10 0 10 -8q0 -9 -10 -9zM426 283q-16 0 -16 17q0 6 4.5 11.5t11.5 5.5t11.5 -5.5t4.5 -11.5q0 -17 -16 -17z" />
    <glyph glyph-name="i.dot" horiz-adv-x="231" 
d="M94 643v61h43v-61h-43zM99 0v504h33v-504h-33z" />
    <glyph glyph-name="zero.num" 
d="M199 304q-63 0 -100.5 56.5t-37.5 144.5v2q0 88 38 145.5t101 57.5t101 -56.5t38 -144.5v-2q0 -88 -38.5 -145.5t-101.5 -57.5zM199 685q-50 0 -80 -50t-30 -127v-2q0 -77 30.5 -127t80.5 -50t80.5 50t30.5 127v2q0 76 -31 126.5t-81 50.5z" />
    <glyph glyph-name="one.num" horiz-adv-x="325" 
d="M200 314h-28v363l-98 -35l-7 24l110 41h23v-393z" />
    <glyph glyph-name="one.num_alt" 
d="M349 314h-273v24h126v339l-114 -40l-7 25l127 45h23v-369h118v-24z" />
    <glyph glyph-name="two.num" 
d="M61 314v24l158 138q45 39 63.5 66t18.5 59q0 36 -26.5 60t-66.5 24q-68 0 -118 -79l-22 13q59 91 142 91q50 0 84.5 -31t34.5 -76q0 -41 -20.5 -70t-71.5 -74l-138 -119h235v-26h-273z" />
    <glyph glyph-name="three.num" 
d="M197 304q-86 0 -142 69l21 18q50 -62 122 -62q42 0 71.5 25t29.5 64q0 41 -34 64t-91 23h-25l-6 17l144 152h-214v26h250v-24l-140 -147q67 -2 106 -30.5t39 -79.5q0 -49 -38.5 -82t-92.5 -33z" />
    <glyph glyph-name="four.num" 
d="M290 408v-96h-26v96h-200l-8 22l202 276h32v-274h60v-24h-60zM264 432v240l-176 -240h176z" />
    <glyph glyph-name="five.num" 
d="M195 304q-76 0 -136 65l20 18q53 -58 117 -58q50 0 81.5 28.5t31.5 70.5q0 40 -30 65t-78 25q-50 0 -100 -24l-18 12l13 194h225v-27h-201l-11 -149q46 20 94 20q58 0 96.5 -32t38.5 -82q0 -55 -41.5 -90.5t-101.5 -35.5z" />
    <glyph glyph-name="six.num" 
d="M197 305q-56 0 -93 37q-46 46 -46 149v2q0 96 43 156.5t112 60.5q60 0 106 -46l-19 -20q-39 41 -89 41q-54 0 -90 -54t-35 -144q40 68 118 68q53 0 89.5 -33t36.5 -88q0 -54 -38.5 -91.5t-94.5 -37.5zM197 330q45 0 75 29t30 73q0 45 -27.5 71.5t-72.5 26.5t-76.5 -29
t-31.5 -71q0 -43 30.5 -71.5t72.5 -28.5z" />
    <glyph glyph-name="seven.num" 
d="M153 312h-32l183 361h-234v27h265v-21z" />
    <glyph glyph-name="eight.num" 
d="M200 304q-60 0 -100 30.5t-40 78.5q0 69 83 100q-70 28 -70 92q0 46 38.5 75.5t90.5 29.5q51 0 89 -30t38 -75q0 -65 -70 -92q83 -28 83 -98q0 -49 -40.5 -80t-101.5 -31zM201 685q-44 0 -72.5 -22t-28.5 -58q0 -35 28.5 -58.5t72.5 -23.5t72.5 23.5t28.5 58.5
q0 36 -28.5 58t-72.5 22zM201 500q-51 0 -82 -25t-31 -62t31 -60.5t82 -23.5q50 0 81.5 23.5t31.5 60.5t-31.5 62t-81.5 25z" />
    <glyph glyph-name="nine.num" 
d="M203 709q56 0 93 -37q46 -46 46 -149v-2q0 -97 -43 -157t-112 -60q-61 0 -111 48l19 21q42 -44 94 -44q54 0 90 52.5t35 143.5q-40 -70 -118 -70q-53 0 -89.5 33t-36.5 90q0 55 38.5 93t94.5 38zM198 480q45 0 76.5 29.5t31.5 72.5t-31 72.5t-72 29.5q-45 0 -75 -29.5
t-30 -74.5q0 -46 27.5 -73t72.5 -27z" />
    <glyph glyph-name="zero.den" 
d="M199 -10q-63 0 -100.5 56.5t-37.5 144.5v2q0 88 38 145.5t101 57.5t101 -56.5t38 -144.5v-2q0 -88 -38.5 -145.5t-101.5 -57.5zM199 371q-50 0 -80 -50t-30 -127v-2q0 -77 30.5 -127t80.5 -50t80.5 50t30.5 127v2q0 76 -31 126.5t-81 50.5z" />
    <glyph glyph-name="one.den" horiz-adv-x="325" 
d="M200 0h-28v363l-98 -35l-7 24l110 41h23v-393z" />
    <glyph glyph-name="one.den_alt" 
d="M349 0h-273v24h126v339l-114 -40l-7 25l127 45h23v-369h118v-24z" />
    <glyph glyph-name="two.den" 
d="M61 0v24l158 138q45 39 63.5 66t18.5 59q0 36 -26.5 60t-66.5 24q-68 0 -118 -79l-22 13q59 91 142 91q50 0 84.5 -31t34.5 -76q0 -41 -20.5 -70t-71.5 -74l-138 -119h235v-26h-273z" />
    <glyph glyph-name="three.den" 
d="M197 -10q-86 0 -142 69l21 18q50 -62 122 -62q42 0 71.5 25t29.5 64q0 41 -34 64t-91 23h-25l-6 17l144 152h-214v26h250v-24l-140 -147q67 -2 106 -30.5t39 -79.5q0 -49 -38.5 -82t-92.5 -33z" />
    <glyph glyph-name="four.den" 
d="M290 94v-96h-26v96h-200l-8 22l202 276h32v-274h60v-24h-60zM264 118v240l-176 -240h176z" />
    <glyph glyph-name="five.den" 
d="M195 -10q-76 0 -136 65l20 18q53 -58 117 -58q50 0 81.5 28.5t31.5 70.5q0 40 -30 65t-78 25q-50 0 -100 -24l-18 12l13 194h225v-27h-201l-11 -149q46 20 94 20q58 0 96.5 -32t38.5 -82q0 -55 -41.5 -90.5t-101.5 -35.5z" />
    <glyph glyph-name="six.den" 
d="M197 -9q-56 0 -93 37q-46 46 -46 149v2q0 96 43 156.5t112 60.5q60 0 106 -46l-19 -20q-39 41 -89 41q-54 0 -90 -54t-35 -144q40 68 118 68q53 0 89.5 -33t36.5 -88q0 -54 -38.5 -91.5t-94.5 -37.5zM197 16q45 0 75 29t30 73q0 45 -27.5 71.5t-72.5 26.5t-76.5 -29
t-31.5 -71q0 -43 30.5 -71.5t72.5 -28.5z" />
    <glyph glyph-name="seven.den" 
d="M153 -2h-32l183 361h-234v27h265v-21z" />
    <glyph glyph-name="eight.den" 
d="M200 -10q-60 0 -100 30.5t-40 78.5q0 69 83 100q-70 28 -70 92q0 46 38.5 75.5t90.5 29.5q51 0 89 -30t38 -75q0 -65 -70 -92q83 -28 83 -98q0 -49 -40.5 -80t-101.5 -31zM201 371q-44 0 -72.5 -22t-28.5 -58q0 -35 28.5 -58.5t72.5 -23.5t72.5 23.5t28.5 58.5
q0 36 -28.5 58t-72.5 22zM201 186q-51 0 -82 -25t-31 -62t31 -60.5t82 -23.5q50 0 81.5 23.5t31.5 60.5t-31.5 62t-81.5 25z" />
    <glyph glyph-name="nine.den" 
d="M203 395q56 0 93 -37q46 -46 46 -149v-2q0 -97 -43 -157t-112 -60q-61 0 -111 48l19 21q42 -44 94 -44q54 0 90 52.5t35 143.5q-40 -70 -118 -70q-53 0 -89.5 33t-36.5 90q0 55 38.5 93t94.5 38zM198 166q45 0 76.5 29.5t31.5 72.5t-31 72.5t-72 29.5q-45 0 -75 -29.5
t-30 -74.5q0 -46 27.5 -73t72.5 -27z" />
    <glyph glyph-name="caron.alt" horiz-adv-x="500" 
d="M222 581l17 149h40v-2l-38 -147h-19z" />
    <glyph glyph-name="acute.cap" horiz-adv-x="500" 
d="M199 765l97 107l37 -19l-105 -88h-29z" />
    <glyph glyph-name="hungarumlaut.cap" horiz-adv-x="500" 
d="M118 765l97 107l37 -19l-105 -88h-29zM247 765l96 107l38 -19l-106 -88h-28z" />
    <glyph glyph-name="grave.cap" horiz-adv-x="500" 
d="M301 765h-29l-105 88l37 19z" />
    <glyph glyph-name="circumflex.cap" horiz-adv-x="500" 
d="M131 765l104 101h30l104 -101h-34l-85 69l-86 -69h-33z" />
    <glyph glyph-name="caron.cap" horiz-adv-x="500" 
d="M369 866l-104 -101h-30l-104 101h34l85 -69l86 69h33z" />
    <glyph glyph-name="breve.cap" horiz-adv-x="500" 
d="M250 764q-56 0 -89.5 24.5t-39.5 65.5h28q18 -59 101 -59q82 0 101 59h28q-6 -41 -40 -65.5t-89 -24.5z" />
    <glyph glyph-name="tilde.cap" horiz-adv-x="500" 
d="M314 772q-22 0 -70 25q-42 21 -58 21q-18 0 -30.5 -12t-23.5 -41l-23 6q21 79 76 79q21 0 71 -25q40 -21 58 -21t30.5 12t23.5 41l22 -6q-19 -79 -76 -79z" />
    <glyph glyph-name="macron.cap" horiz-adv-x="500" 
d="M106 791v32h288v-32h-288z" />
    <glyph glyph-name="dieresis.cap" horiz-adv-x="500" 
d="M301 776v61h52v-61h-52zM147 776v61h52v-61h-52z" />
    <glyph glyph-name="dotaccent.cap" horiz-adv-x="500" 
d="M223 776v61h54v-61h-54z" />
    <glyph glyph-name="ring.cap" horiz-adv-x="500" 
d="M250 764q-43 0 -73 25.5t-30 64.5t30 65t73 26t73 -26t30 -65t-30 -64.5t-73 -25.5zM250 786q32 0 54 19t22 49t-22 49.5t-54 19.5t-54 -19.5t-22 -49.5t22 -49t54 -19z" />
    </font>
</defs>
</svg>
